<svg xmlns="http://www.w3.org/2000/svg" width="1791.2" height="817.8" viewBox="0 0 1791.2 817.8"><style xmlns="http://www.w3.org/2000/svg">path {fill:#000000; opacity: 0.1}</style><path d="M1114.1 317.9l-1 .6 90.1 52-5.1 2.9-90.1-52-1 .6 90.1 52-5.1 2.9-90.1-52-1 .6 90.1 52-5.1 2.9-90.1-52-1 .6 90.1 52-5.1 2.9-90.1-52-1 .6 90.1 52-5.1 2.9-90.1-52-1 .6 90.1 52-5.1 2.9-90.1-52-1 .6 90.1 52-5.1 2.9-90.1-52-1 .6 90.1 52-5.1 2.9-90.1-52-1 .6 90.1 52-5.1 2.9-90.1-52-1 .6 90.1 52-5.1 2.9-90.1-52-1 .6 90.1 52-5.1 2.9-90.1-52-1 .6 90.1 52-5.1 2.9-90.1-52-1 .6 90.1 52-5.1 2.9-90.1-52-1 .6 89.9 52-79.9 46v-2.2l-117 67.7v3.3l117.4-67.8 80.6-46.6 4.9 2.9-85.9 49.5v-2.2l-117 67.8v3.3l117.4-67.8 86.7-50 4.9 2.9-91.9 53v-2.2l-117 67.8v3.3l117.4-67.8 92.7-53.5 4.9 2.9-97.9 56.4v-2.2l-117 67.8v3.3l117.4-67.8 98.7-57 4.9 2.9-103 59.8v-2.2L928 555v3.3l117.4-67.8 104.7-60.5 4.9 2.9-110 63.4v-2.2L928 562v3.3l117.4-67.8 110.7-63.9 4.9 2.9-116 66.9v-2.2L928 569v3.3l117-67.8 116.9-67.4 5 2.9-121.9 70.3v-2.2l-117.2 67.8-.1 3.3 117.3-67.8 123-70.9 5 2.9-128 73.9v-2.2l-117 67.8v3.3l117-67.8v-1.1l5.6-2 123.4-71.2 4.9 2.9-134 77.3V522l-117 67.8v3.3l117.4-67.8 134.8-77.8 4.9 2.9-140 80.8V529l-117 67.8v3.3l117.4-67.8 140.8-81.3 4.9 2.9-146.1 84.2v-2.2l-117 67.8v3.3l117.4-67.8 146.9-84.8 4.9 2.9-152.2 87.8v-2.2l-117 67.8v3.3l117.4-67.8 152.9-88.3 4.9 2.9L1045 552v-2.2l-117 67.8v3.3l117.4-67.8 158.9-91.7h-.2v-1.1h.2l-5.2-2.9 5-2.9v-1.1l-4.9-2.9 5.1-2.9h-.2v-1.1h.1l-5-2.9 5-2.9h-.1v-1.1h.1l-5-2.9 5-2.9h-.1v-1.1h.1l-5-2.9 5-2.9h-.1v-1.1h.1l-5-2.9 5-2.9h-.1v-1.1h.1l-5-2.9 5-2.9h-.1V412h.1l-5-2.9 5-2.9h-.1v-1.1h.1l-5-2.9 5-2.9h-.1v-1.1h.1l-5-2.9 5-2.9h-.1v-1.1h.1l-5-2.9 5-2.9h-.1v-1.1h.1l-5-2.9 5-2.9h-.1v-1.1h.1l-5-2.9 5-2.9h-.1V370h.1l-90.1-52.1zm78.1 60.1l5.1 2.9-5.1 2.9-5.1-2.9 5.1-2.9zm-6 3.5l5.1 2.9-5.1 2.9-5.1-2.9 5.1-2.9zm0 61.4l-5.1-2.9 5.1-2.9 5.1 2.9-5.1 2.9zm6-2.3l5.1 2.9-5.1 2.9-5.1-2.9 5.1-2.9zm-13-42.3l-5.1 2.9-5.1-2.9 5.1-2.9 5.1 2.9zm-4.1-3.5l5.1-2.9 5.1 2.9-5.1 2.9-5.1-2.9zm-1 34.2l-5.1-2.9 5.1-2.9 5.1 2.9-5.1 2.9zm6.1-2.3l5.1 2.9-5.1 2.9-5.1-2.9 5.1-2.9zm-13-14.5l-5.1 2.9-5.1-2.9 5.1-2.9 5.1 2.9zm-4.1-3.5l5.1-2.9 5.1 2.9-5.1 2.9-5.1-2.9zm5 4.1l5.1 2.9-5.1 2.9-5.1-2.9 5.1-2.9zm-7 2.9l-5.1 2.9-5.1-2.9 5.1-2.9 5.1 2.9zm1 .5l5.1 2.9-5.1 2.9-5.1-2.9 5.1-2.9zm6 3.5l5.1 2.9-5.1 2.9-5.1-2.9 5.1-2.9zm7 2.9l5.1-2.9 5.1 2.9-5.1 2.9-5.1-2.9zm-1-.5l-5.1-2.9 5.1-2.9 5.1 2.9-5.1 2.9zm1-6.4l5.1-2.9 5.1 2.9-5.1 2.9-5.1-2.9zm-1-.6l-5.1-2.9 5.1-2.9 5.1 2.9-5.1 2.9zm1-6.4l5.1-2.9 5.1 2.9-5.1 2.9-5.1-2.9zm-1-.5l-5.1-2.9 5.1-2.9 5.1 2.9-5.1 2.9zm1-6.4l5.1-2.9 5.1 2.9-5.1 2.9-5.1-2.9zm-1.9 0l-5.1 2.9-5.1-2.9 5.1-2.9 5.1 2.9zm-6 3.5l-5.1 2.9-5.1-2.9 5.1-2.9 5.1 2.9zm-6.1 3.4l-5.1 2.9-5.1-2.9 5.1-2.9 5.1 2.9zm-6 3.5l-5.1 2.9-5.1-2.9 5.1-2.9 5.1 2.9zm-6 3.5l-5.1 2.9-5.1-2.9 5.1-2.9 5.1 2.9zm1 .5l5.1 2.9-5.1 2.9-5.1-2.9 5.1-2.9zm6 3.5l5.1 2.9-5.1 2.9-5.1-2.9 5.1-2.9zm6 3.5l5.1 2.9-5.1 2.9-5.1-2.9 5.1-2.9zm6 3.5l5.1 2.9-5.1 2.9-5.1-2.9 5.1-2.9zm6 3.4l5.1 2.9-5.1 2.9-5.1-2.9 5.1-2.9zm6.1 3.5l5.1 2.9-5.1 2.9-5.1-2.9 5.1-2.9zm6.9 2.9l5.1-2.9 5.1 2.9-5.1 2.9-5.1-2.9zm-.9-.5l-5.1-2.9 5.1-2.9 5.1 2.9-5.1 2.9zm.9-6.4l5.1-2.9 5.1 2.9-5.1 2.9-5.1-2.9zm-.9-.6l-5.1-2.9 5.1-2.9 5.1 2.9-5.1 2.9zm.9-6.4l5.1-2.9 5.1 2.9-5.1 2.9-5.1-2.9zm-.9-.5l-5.1-2.9 5.1-2.9 5.1 2.9-5.1 2.9zm.9-6.4l5.1-2.9 5.1 2.9-5.1 2.9-5.1-2.9zm-.9-.6l-5.1-2.9 5.1-2.9 5.1 2.9-5.1 2.9zm.9-6.4l5.1-2.9 5.1 2.9-5.1 2.9-5.1-2.9zm-.9-.5l-5.1-2.9 5.1-2.9 5.1 2.9-5.1 2.9zm.9-6.4l5.1-2.9 5.1 2.9-5.1 2.9-5.1-2.9zm-.9-.6l-5.1-2.9 5.1-2.9 5.1 2.9-5.1 2.9zm.9-6.4l5.1-2.9 5.1 2.9-5.1 2.9-5.1-2.9zm-.9-.5l-5.1-2.9 5.1-2.9 5.1 2.9-5.1 2.9zm.9-6.4l5.1-2.9 5.1 2.9-5.1 2.9-5.1-2.9zm-7-2.9l5.1 2.9-5.1 2.9-5.1-2.9 5.1-2.9zm-6 3.4l5.1 2.9-5.1 2.9-5.1-2.9 5.1-2.9zm-6 3.5l5.1 2.9-5.1 2.9-5.1-2.9 5.1-2.9zm-6 3.5l5.1 2.9-5.1 2.9-5.1-2.9 5.1-2.9zm-6 3.5l5.1 2.9-5.1 2.9-5.1-2.9 5.1-2.9zm-6 3.4l5.1 2.9-5.1 2.9-5.1-2.9 5.1-2.9zm-6.1 3.5l5.1 2.9-5.1 2.9-5.1-2.9 5.1-2.9zm-6 3.5l5.1 2.9-5.1 2.9-5.1-2.9 5.1-2.9zm-11.1 6.4l5.1-2.9 5.1 2.9-5.1 2.9-5.1-2.9zm6.1 3.5l5.1-2.9 5.1 2.9-5.1 2.9-5.1-2.9zm6 3.4l5.1-2.9 5.1 2.9-5.1 2.9-5.1-2.9zm6 3.5l5.1-2.9 5.1 2.9-5.1 2.9-5.1-2.9zm6 3.5l5.1-2.9 5.1 2.9-5.1 2.9-5.1-2.9zm6 3.5l5.1-2.9 5.1 2.9-5.1 2.9-5.1-2.9zm6.1 3.4l5.1-2.9 5.1 2.9-5.1 2.9-5.1-2.9zm6 3.5l5.1-2.9 5.1 2.9-5.1 2.9-5.1-2.9zm6 3.5l5.1-2.9 5.1 2.9-5.1 2.9-5.1-2.9zm6 3.5l5.1-2.9 5.1 2.9-5.1 2.9-5.1-2.9zm6 3.4l5.1-2.9 5.1 2.9-5.1 2.9-5.1-2.9zm16.2 3.5l-5.1 2.9-5.1-2.9 5.1-2.9 5.1 2.9zm0-6.9l-5.1 2.9-5.1-2.9 5.1-2.9 5.1 2.9zm0-7l-5.1 2.9-5.1-2.9 5.1-2.9 5.1 2.9zm0-6.9l-5.1 2.9-5.1-2.9 5.1-2.9 5.1 2.9zm0-7l-5.1 2.9-5.1-2.9 5.1-2.9 5.1 2.9zm0-6.9l-5.1 2.9-5.1-2.9 5.1-2.9 5.1 2.9zm0-7l-5.1 2.9-5.1-2.9 5.1-2.9 5.1 2.9zm0-6.9l-5.1 2.9-5.1-2.9 5.1-2.9 5.1 2.9zm0-7l-5.1 2.9-5.1-2.9 5.1-2.9 5.1 2.9zm0-6.9l-5.1 2.9-5.1-2.9 5.1-2.9 5.1 2.9zm0-7l-5.1 2.9-5.1-2.9 5.1-2.9 5.1 2.9zm0-6.9l-5.1 2.9-5.1-2.9 5.1-2.9 5.1 2.9zM524 657.7v-1.5l-3.2-1.8 3.2-1.8v-3.3H523.7l-3.2-1.8 3.1-1.8h.4v-3.3l-3.4-1.7 2.9-1.7h.5v-3.5h-.2l-3.3-1.8 3.3-1.8h.2V629h-.5l-3.2-2 3.2-1.9.2-.1.2-.1V621.6h-.2l-3-1.8 3.3-1.8v-3.3H523.7l-3.2-1.8 3.4-1.8h.2v-3.3h-.2l-3-1.8 3.3-1.8v-3.3H523.9l-3-1.8 3.3-1.8V594l-3.4-1.8 3-1.8h-.6v-3.3l-2.9-1.8 3.3-1.8h-.4v-3.3l-3.2-1.8 3.2-1.8v-3.3l-3.2-1.8 3.2-1.8v-3.3L367.7 476l-.8.6-39.6-22.9 3.7-2.1 83.7-48.3c.4-.2.9-.3 1.4-.3.5 0 1 .1 1.4.3l38.5 22.2 38.5 22.2 1.4-.8 1.4-.8-40-23.1-40-23.1c-.4-.2-.9-.3-1.4-.3-.5 0-1 .1-1.4.3l-83.9 48.3-83.6 48.3v3.4h.2l39.8 22.9.7-.4-.6.4 155.6 89.8L249 724.1V591.6c0-1.1-.4-2-1.2-2.4-.8-.4-1.7-.4-2.7.2l-2.1 1.3v-2.5c0-1.1-.5-2-1.2-2.4-.8-.4-1.7-.4-2.6.2l-2.1 1.3v-2.5c0-1.1-.5-2-1.2-2.4-.8-.4-1.7-.4-2.7.2l-2.1 1.3h.1v-2.5c0-1.1-.5-2-1.2-2.4l-.2.3.1-.3c-.8-.4-1.6-.4-2.6.2l-2.1 1.3V578c0-1.1-.5-2-1.2-2.4-.8-.4-1.7-.4-2.7.2l-2.1 1.3h.1v-2.5c0-1.1-.5-2-1.2-2.4-.8-.4-1.7-.4-2.7.2l-2.1 1.3h.1v-2.5c0-1.1-.5-2-1.3-2.4-.8-.4-1.7-.4-2.7.2l-2.1 1.3h.1v-2.5c0-1.1-.5-2-1.3-2.4-.8-.4-1.7-.4-2.7.2l-2.1 1.3h.1v-2.5c0-1.1-.5-2-1.3-2.4h-.1c-.8-.4-1.7-.4-2.7.2l-2.1 1.2h.1v-2.5c0-1.1-.5-2-1.3-2.4h-.1c-.8-.4-1.7-.4-2.7.2l-2.1 1.3h.1v-2.5c0-1.1-.5-2-1.3-2.4h-.1c-.8-.4-1.7-.4-2.7.2l-2.1 1.3h.1v-2.5c0-1.1-.5-2-1.3-2.4h-.1c-.8-.4-1.7-.4-2.7.2l-2.1 1.3h.1V550c0-1.1-.6-2-1.3-2.4h-.1c-.8-.4-1.7-.4-2.7.2l-2.1 1.3h.1v-2.5c0-1.1-.6-2-1.3-2.4h-.1c-.8-.4-1.7-.4-2.7.2L0 640.6v1.7l167.6-96.7c.5-.3.8-.4 1.1-.2.3.2.3.6.3 1.2v3.3L0 647.5v1.7l169-97.7v5.3L0 654.5v1.7l169-97.7v5.3L0 661.4v1.7l169-97.7v5.3L0 668.4v1.7l169-97.7v5.3L0 675.3v1.7l169-97.7v5.3L0 682.3v1.7l169-97.7v5.3L0 689.2v1.7l169-97.7v5.3L-.1 696.2l-.1 1.7L169 600.1v5.3L0 703.1v1.7l169-97.7v5.3L0 710.1v1.7L169 614v5.3L0 717v1.7L169 621v5.3L0 724v1.7L169 628v5.3L0 730.9v1.7l169-97.7v136.9l2 .8V634l4-2.6v143.9l2 .8V630.6l4-2.6v150.8l2 .8V627.1l4-2.6v157.7l2 .8V623.6l4-2.7v164.7l2 .8V620.1l4-2.6v171.6l2 .8V616.7l4-2.6v178.6l2 .8V613.2l4-2.6v185.5l2 .8V609.7l4-2.6v192.5l2 .8V606.2l4-2.6V803l2 .8v-201l4-2.6v206.4l2 .8v-208l4-2.6V810l2 .8v-215l4-2.6v220.3l2 .8V592.4l2.9-1.7c.5-.3.9-.4 1.2-.2h.2c.3.2.7.6.7 1.2V817l1.2.8h-.2.2L524 659.2v-1.5zm-290.2-74c.5-.3.7-.4 1-.2.3.2.2.6.2 1.2v3.3l-4 2.6v-5.3l2.8-1.6zM181 565.4v5.3l-4 2.6V568l4-2.6zm-4 1v-5.3l4-2.6v5.3l-4 2.6zm40 25.1l-4 2.6v-5.3l4-2.6v5.3zm2-6.1l4-2.6v5.3l-4 2.6v-5.3zm-32-2.6v5.3l-4 2.6v-5.3l4-2.6zm-4 .9v-5.3l4-2.6v5.3l-4 2.6zm16 11.3l-4 2.6v-5.3l4-2.6v5.3zm2-6.1l4-2.6v5.3l-4 2.6v-5.3zm-8 9.6l-4 2.7v-5.3l4-2.7v5.3zm2-7.8v-5.3l4-2.6v5.3l-4 2.6zm-2 .8l-4 2.7v-5.3l4-2.7v5.3zm-4-4.3v-5.3l4-2.7v5.3l-4 2.7zm-2 2.5v5.3l-4 2.6v-5.3l4-2.6zm0 7v5.3l-4 2.6v-5.3l4-2.6zm0 6.9v5.3l-4 2.6v-5.3l4-2.6zm2-.8l4-2.7v5.3l-4 2.7v-5.3zm6-3.5l4-2.6v5.3l-4 2.6v-5.3zm6-3.5l4-2.6v5.3l-4 2.6v-5.3zm6-3.4l4-2.6v5.3l-4 2.6v-5.3zm6-5.2v-5.3l4-2.6v5.3l-4 2.6zm-2 .8l-4 2.6v-5.3l4-2.6v5.3zm-4-4.3v-5.3l4-2.6v5.3l-4 2.6zm-2 .9l-4 2.6v-5.3l4-2.6v5.3zm-4-4.3V575l4-2.6v5.3l-4 2.6zm-2 .8l-4 2.6v-5.3l4-2.6v5.3zm-4-4.3v-5.3l4-2.6v5.3l-4 2.6zm-2 .8l-4 2.7V575l4-2.7v5.3zm-4-4.3V568l4-2.7v5.3l-4 2.7zm-2 .9l-4 2.6v-5.3l4-2.6v5.3zm-4-4.3v-5.3l4-2.6v5.3l-4 2.6zm-2 2.4v5.3l-4 2.6V575l4-2.7zm0 7v5.3l-4 2.6v-5.3l4-2.6zm0 6.9v5.3l-4 2.6v-5.3l4-2.6zm0 7v5.3l-4 2.6v-5.3l4-2.6zm0 6.9v5.3l-4 2.6v-5.3l4-2.6zm0 7v5.3l-4 2.6v-5.3l4-2.6zm0 6.9v5.3l-4 2.6v-5.3l4-2.6zm2-.8l4-2.6v5.3l-4 2.6v-5.3zm6-3.5l4-2.7v5.3l-4 2.7v-5.3zm6-3.5l4-2.6v5.3l-4 2.6v-5.3zm6-3.4l4-2.6v5.3l-4 2.6v-5.3zm6-3.5l4-2.6v5.3l-4 2.6v-5.3zm6-3.5l4-2.6v5.3l-4 2.6v-5.3zm6-3.5l4-2.6v5.3l-4 2.6v-5.3zm6-3.4l4-2.6v5.3l-4 2.6v-5.3zm2.8-8.6c.5-.3.9-.4 1.2-.2h-.2c.3.2.2.6.2 1.2v3.3l-4 2.6v-5.3l2.8-1.6zm-6-3.5c.5-.3.9-.4 1.2-.2h-.2c.3.2.2.6.2 1.2v3.3l-4 2.6v-5.3l2.8-1.6zm-6-3.5c.5-.3.9-.4 1.2-.2h-.2c.3.2.2.6.2 1.2v3.3h.3l-4.3 2.6V575l2.8-1.7zm-6-3.5c.5-.3.7-.4 1-.2.3.2.2.6.2 1.2v3.4l-4 2.6v-5.3l2.8-1.7zm-6-3.4c.5-.3.9-.4 1.2-.2h-.2c.3.2.2.6.2 1.2v3.3l-4 2.6V568l2.8-1.6zm-6-3.5c.5-.3.7-.4 1-.2.3.2.2.6.2 1.2v3.4l-4 2.6v-5.3l2.8-1.7zm-6-3.5c.5-.3.7-.4 1-.2.3.2.2.6.2 1.2v3.3l-4 2.7v-5.3l2.8-1.7zm-6-3.5c.5-.3.9-.4 1.2-.2l.1-.2-.3.2c.3.2.3.6.3 1.2v3.4l-4 2.6v-5.3l2.7-1.7zm-6.1-3.4c.5-.3.9-.4 1.2-.2h-.2c.3.2.3.6.3 1.2v3.4l-4 2.6v-5.3l2.7-1.7zm-8.7-1.8l2.7-1.7c.5-.3.9-.4 1.2-.2h-.2c.3.2.3.6.3 1.2v3.4l-4 2.6v-5.3zm0 6.9l4-2.6v5.3l-4 2.6v-5.3zm0 7l4-2.6v5.3l-4 2.6v-5.3zm0 6.9l4-2.6v5.3l-4 2.6v-5.3zm0 7l4-2.6v5.3l-4 2.6v-5.3zm0 6.9l4-2.6v5.3l-4 2.6v-5.3zm0 6.9l4-2.6v5.3l-4 2.6v-5.3zm0 7l4-2.6v5.3l-4 2.6v-5.3zm0 7l4-2.6v5.3l-4 2.6v-5.3zm0 6.9l4-2.6v5.3l-4 2.6v-5.3zm0 6.9l4-2.6v5.3l-4 2.6v-5.3zm0 12.3v-5.3l4-2.6v5.3l-4 2.6zm6-3.5v-5.3l4-2.6v5.3l-4 2.6zm6-3.5v-5.3l4-2.6v5.3l-4 2.6zm6-3.4v-5.3l4-2.7v5.3l-4 2.7zm6-3.5v-5.3l4-2.6v5.3l-4 2.6zm6-3.5v-5.3l4-2.6v5.3l-4 2.6zm6-3.5v-5.3l4-2.6v5.3l-4 2.6zm6-3.4v-5.3l4-2.6v5.3l-4 2.6zm6-3.5v-5.3l4-2.6v5.3l-4 2.6zm6-3.5v-5.3l4-2.6v5.3l-4 2.6zm6-3.5v-5.3l4-2.6v5.3l-4 2.6zm6-3.4v-5.3l2.8-1.7c.5-.3.9-.4 1.2-.2h-.3c.3.2.2.6.2 1.2v3.4l-3.9 2.6zm283.6 56.7l-3.2 1.8-3.2-1.8 3.2-1.8 3.2 1.8zM294.8 518.2l-39.7-22.9 4.1-2.4 39.7 22.9 1-.6-1 .6 155.5 89.8-3.2 1.8-155.5-89.8-.9.6zm-27.7-29.8l4.1-2.4 39.7 22.9 1.8-1.1-1.8 1.1 155.5 89.8-3.2 1.8-155.5-89.8-2.9 1.7 155.5 89.8-3.2 1.8-155.5-89.8-1 .6-39.7-22.9 4.1-2.4 39.7 22.9 1.9-1.1-39.5-22.9zm12.1-7l4.1-2.4 39.7 22.9 1.9-1.1-39.7-22.8 4.1-2.4 39.7 22.9 1.9-1.1-39.7-22.9 4.1-2.4L335 495l1.4-.8-1.4.8 155.5 89.8-3.2 1.8-155.5-89.8-2.9 1.7 155.5 89.8-3.2 1.8-155.5-89.8-2.9 1.7 155.5 89.8-3.2 1.8-155.5-89.8-2.9 1.7 155.5 89.8-3.2 1.8-155.5-89.8-1 .6-39.7-22.9 4.1-2.4 39.7 22.9 1.9-1.1-39.3-23zm24-13.9l4.1-2.4L347 488l1.1-.6-1.1.6 155.5 89.8-3.2 1.8-155.5-89.8-2.9 1.7 155.5 89.8-3.2 1.8-155.5-89.8-1 .6-39.5-22.9 4.1-2.4 39.7 22.9 1.9-1.1-39.7-22.9zm211.4 103.4l-3.2 1.8-155.6-89.8-1 .6-39.7-22.9 4.1-2.4 39.7 22.9 1.7-1-1.7 1 155.7 89.8zM353 484.6l1.4-.8-1.4.8 155.5 89.8-3.2 1.8-155.5-89.8-1 .6-39.7-22.9 4.1-2.4 39.8 22.9zm143.5 103.7l-3.2 1.8-3.2-1.8 3.2-1.8 3.2 1.8zm-.3-3.5l3.2-1.8 3.2 1.8-3.2 1.8-3.2-1.8zm-11.7 17.4l-3.2 1.8-3.2-1.8 3.2-1.8 3.2 1.8zm-.3-3.5l3.2-1.8 3.2 1.8-3.2 1.8-3.2-1.8zm3.2 5.2l3.2 1.8-3.2 1.8-3.2-1.8 3.2-1.8zm-8.9 1.8l-3.2 1.8-3.2-1.8 3.2-1.8 3.2 1.8zm2.8 1.6l3.2 1.8-3.2 1.8-3.2-1.8 3.2-1.8zm6.1 3.5l3.2 1.8-3.2 1.8-3.2-1.8 3.2-1.8zm-8.9 1.8l-3.2 1.8-3.2-1.8 3.2-1.8 3.2 1.8zm2.8 1.7l3.2 1.8-3.2 1.8-3.2-1.8 3.2-1.8zm6.1 3.5l3.2 1.8-3.2 1.8-3.2-1.8 3.2-1.8zm-8.9 1.8l-3.2 1.8-3.2-1.8 3.2-1.8 3.2 1.8zm2.8 1.6l3.2 1.8-3.2 1.8-3.2-1.8 3.2-1.8zm0 10.6l-3.2-1.8 3.2-1.8 3.2 1.8-3.2 1.8zm6.1-.1l3.2 1.8-3.2 1.8-3.2-1.8 3.2-1.8zM249 762.2l226.6-130.7 3.2 1.8L249 765.8v-3.6zm235.2-135.7l3.2-1.8 3.2 1.8-3.2 1.8-3.2-1.8zm-5.7 0l-3.2 1.8-3.2-1.8 3.2-1.8 3.2 1.8zm-5.8 3.4L249 758.9v-3.6l220.5-127.2 3.2 1.8zM249 769.2L481.6 635l3.2 1.8-235.8 136v-3.6zm0 20.8l250.6-144.5 3.2 1.8L249 793.6V790zm0-3.3v-10.6l238.6-137.6 3.2 1.8L249 779.7v3.3l244.6-141 3.2 1.8L249 786.7zm247.3-146.3l3.2-1.8 3.2 1.8-3.2 1.8-3.2-1.8zm-2.9-1.6l-3.2-1.8 3.2-1.8 3.2 1.8-3.2 1.8zm2.9-5.3l3.2-1.8 3.2 1.8-3.2 1.8-3.2-1.8zm-2.9-1.7l-3.2-1.8 3.2-1.8 3.2 1.8-3.2 1.8zm2.9-5.3l3.2-1.8 3.2 1.8-3.2 1.8-3.2-1.8zm-2.9-1.6l-3.2-1.8 3.2-1.8 3.2 1.8-3.2 1.8zm2.8-5.3l3.2-1.8 3.2 1.8-3.2 1.8-3.2-1.8zm-2.8-1.7l-3.2-1.8 3.2-1.8 3.2 1.8-3.2 1.8zm2.9-5.3l3.2-1.8 3.2 1.8-3.2 1.8-3.2-1.8zm-2.9-1.6l-3.2-1.8 3.2-1.8 3.2 1.8-3.2 1.8zm2.8-5.3l3.2-1.8 3.2 1.8-3.2 1.8-3.2-1.8zm-2.8-1.7l-3.2-1.8 3.2-1.8 3.2 1.8-3.2 1.8zm2.8-5.3l3.2-1.8 3.2 1.8-3.2 1.8-3.2-1.8zm-2.8-1.6l-3.2-1.8 3.2-1.8 3.2 1.8-3.2 1.8zm2.8-5.3l3.2-1.8 3.2 1.8-3.2 1.8-3.2-1.8zm-5.7 0l-3.2 1.8-3.2-1.8 3.2-1.8 3.2 1.8zm-6 3.5l-3.2 1.8-3.2-1.8 3.2-1.8 3.2 1.8zm-6 3.4l-3.2 1.8-3.2-1.8 3.2-1.8 3.2 1.8zm-6.1 3.5l-3.2 1.8-3.2-1.8 3.2-1.8 3.2 1.8zm-6 3.5l-3.2 1.8-3.2-1.8 3.2-1.8 3.2 1.8zm2.9 1.6l3.2 1.8-3.2 1.8-3.2-1.8 3.2-1.8zm-2.9 5.3l-3.2 1.8-3.2-1.8 3.2-1.8 3.2 1.8zm2.9 1.7l3.2 1.8-3.2 1.8-3.2-1.8 3.2-1.8zm-2.9 5.3l-3.2 1.8-3.2-1.8 3.2-1.8 3.2 1.8zm2.9 1.6l3.2 1.8-3.2 1.8-3.2-1.8 3.2-1.8zm-2.7 5.2L249 751.9v-3.6l214.5-123.7 3.1 1.8zM249 796.9l256.7-148 3.2 1.8L249 800.6v-3.7zm259.3-149.5l3.2-1.8 3.2 1.8-3.2 1.8-3.2-1.8zm-2.9-1.7l-3.2-1.8 3.2-1.8 3.2 1.8-3.2 1.8zm2.9-5.3l3.2-1.8 3.2 1.8-3.2 1.8-3.2-1.8zm-2.9-1.6l-3.2-1.8 3.2-1.8 3.2 1.8-3.2 1.8zm2.9-5.3l3.2-1.8 3.2 1.8-3.2 1.8-3.2-1.8zm-2.9-1.7l-3.2-1.8 3.2-1.8 3.2 1.8-3.2 1.8zm2.9-5.3l3.2-1.8 3.2 1.8-3.2 1.8-3.2-1.8zm-2.9-1.6l-3.2-1.8 3.2-1.8 3.2 1.8-3.2 1.8zm2.9-5.3l3.2-1.8 3.2 1.8-3.2 1.8-3.2-1.8zm-2.9-1.7l-3.2-1.8 3.2-1.8 3.2 1.8-3.2 1.8zm2.9-5.3l3.2-1.8 3.2 1.8-3.2 1.8-3.2-1.8zm-2.9-1.6l-3.2-1.8 3.2-1.8 3.2 1.8-3.2 1.8zm2.9-5.3l3.2-1.8 3.2 1.8-3.2 1.8-3.2-1.8zm-2.9-1.7l-3.2-1.8 3.2-1.8 3.2 1.8-3.2 1.8zm2.9-5.3l3.2-1.8 3.2 1.8-3.2 1.8-3.2-1.8zm-2.9-1.6l-3.2-1.8 3.2-1.8 3.2 1.8-3.2 1.8zm2.9-5.3l3.2-1.8 3.2 1.8-3.2 1.8-3.2-1.8zm-2.9-1.7l-3.2-1.8 3.2-1.8 3.2 1.8-3.2 1.8zm2.9-5.3l3.2-1.8 3.2 1.8-3.2 1.8-3.2-1.8zm-2.9-1.6l-3.2-1.8 3.2-1.8 3.2 1.8-3.2 1.8zm2.9-5.3l3.2-1.8 3.2 1.8-3.2 1.8-3.2-1.8zm-51.1 29.4l3.2 1.8-3.2 1.8-3.2-1.8 3.2-1.8zm-2.8 5.3l-3.2 1.8-3.2-1.8 3.2-1.8 3.2 1.8zm2.8 1.7l3.2 1.8-3.2 1.8-3.2-1.8 3.2-1.8zm-2.6 5.2L249 738v3.3l208.5-120.2 3.2 1.8L249 745v-10.6l202.5-116.8 3.1 1.9zM249 803.9l262.7-151.5 3.2 1.8L249 807.5v-3.6zm271.6-160l-3.2 1.8-3.2-1.8 3.2-1.8 3.2 1.8zm0-6.9l-3.2 1.8-3.2-1.8 3.2-1.8 3.2 1.8zm0-7l-3.2 1.8-3.2-1.8 3.2-1.8 3.2 1.8zm0-6.9l-3.2 1.8-3.2-1.8 3.2-1.8 3.2 1.8zm0-7l-3.2 1.8-3.2-1.8 3.2-1.8 3.2 1.8zm0-6.9l-3.2 1.8-3.2-1.8 3.2-1.8 3.2 1.8zm0-7l-3.2 1.8-3.2-1.8 3.2-1.8 3.2 1.8zm0-6.9l-3.2 1.8-3.2-1.8 3.2-1.8 3.2 1.8zm0-7l-3.2 1.8-3.2-1.8 3.2-1.8 3.2 1.8zm0-6.9l-3.2 1.8-3.2-1.8 3.2-1.8 3.2 1.8zm0-7l-3.2 1.8-3.2-1.8 3.2-1.8 3.2 1.8zm-155.5-96.7l1-.6-1 .6 155.6 89.8-3.2 1.8-155.6-89.8-1 .6-39.7-22.9 4.1-2.4 39.8 22.9zm-75.4 43.5l-.8.4-39.7-22.9-1.8 1.1 5.8-3.3 39.7 22.9 1.1-.6-1.1.7 155.5 89.8-3.2 1.8-155.5-89.9zm155.7 93l3.2 1.8L249 731.1v-3.6l196.4-113.3zM249 814.5v-3.6L517.7 656l3.2 1.8L249 814.5z"/><path d="M1034.9 363.7l1.9-1.1-118.4-68.4 5.1-3-1 .6 118.4 68.4 2-1.1-118.5-68.4 4.7-2.7-.6.3 118.5 68.4 1.9-1.1-118.5-68.4 5.2-3-1.1.6 118.5 68.4 1.9-1.1-118.5-68.4 5.3-3-1.2.7 118.5 68.4 1.9-1.1-118.4-68.4 4.1-2.4 118.4 68.4 1.9-1.1-118.4-68.4 5.7-3.4-1.6 1 118.4 68.4 1.9-1.1-118.4-68.4 5.6-3.2-1.5.8 118.4 68.4 2-1.1-118.5-68.4 5.9-3.4-1.8 1.1 118.5 68.4 1.9-1.1-118.5-68.4 18.1-10.4-1.9 1 118.4 68.4 1.9-1.1-118.5-68.4 49.5-28.6v-.6l-118 68v.6l.6-.3-.3.3"/><path d="M970.6 264l118.5 68.4 1.9-1.1-118.5-68.4M1097 327.8l-118.4-68.4-2 1.1 118.5 68.4M988.7 253.6l118.4 68.4 1.9-1.1-118.4-68.4M1115.1 317.4L996.6 249l-1.9 1.1 118.4 68.4M1034 136.4l-118 67.9v.6l118-68M1034 143.3l-118 68v.5l118-67.9M1034 150.3l-118 67.9v.6l118-68M1034 157.2l-118 68v.6l118-68M1034 164.2l-118 67.9v.6l118-68M1034 171.1l-118 68v.6l118-68M1034 178.1l-118 68v.5l118-68M1034 185l-118 68v.6l118-68M1034 192l-118 68v.5l118-68M1034 198.9l-118 68v.6l118-68M1034 205.9l-118 68v.5l118-68M1034 212.8l-118 68v.6l118-68M1034 219.8l-118 68v.5l118-68M1152 67.5l-118 67.8v1.6l118-67.7"/><path d="M1152 74.5l-118 67.7v1.7l118-67.8M1152 81.4l-118 67.8v1.6l118-67.7M1152 88.4l-118 67.7v1.7L1152 90M1152 95.3l-118 67.8v1.6L1152 97M1152 102.3L1034 170v1.7l118-67.8M1152 109.2L1034 177v1.6l118-67.7M1152 116.2l-118 67.7v1.7l118-67.8M1152 123.1l-118 67.8v1.6l118-67.7M1152 130.1l-118 67.7v1.7l118-67.8M1152 137l-118 67.8v1.6l118-67.7M1152 144l-118 67.7v1.7l118-67.8M1152 150.9l-118 67.8v1.6l118-67.7M1152 157.9l-118 67.7v1.7l118-67.8M1667.3 583l123.7-71.5v-3.3l-126.6 73.1M1655.2 576.1l135.8-78.5v-3.3l-138.7 80.1M1636.5 565.1l-1.1-.6-157.7 91.1c-.8.4-1.8.7-2.8.7-1 0-2-.2-2.8-.7-10.5-6-154.1-89-154.1-89l-1.9 1.1 156 90.1c.8.4 1.8.7 2.8.7 1 0 2-.1 2.8-.6 10.7-6.2 159.6-92.1 159.6-92.1l153.7-89v-3.3L1634.3 564l2.2 1.1z"/><path d="M1631.2 562.2l159.8-92.4v-3.3l-162.8 94M1623.4 557.6l-145.7 84.1c-.8.4-1.8.7-2.8.7-1 0-2-.2-2.8-.7-10-5.8-142.1-82-142.1-82l-1.9 1.1 144 83.1c.8.4 1.8.7 2.8.7 1 0 2-.2 2.8-.7 10.2-5.9 147.6-85.2 147.6-85.2l-.2-.1.1.1 165.8-95.8v-3.3L1622.3 557l1.1.6z"/><path d="M1617.3 554.1l-139.7 80.6c-.8.4-1.8.7-2.8.7-1 0-2-.2-2.8-.7-9.8-5.6-136-78.5-136-78.5l-1.9 1.1 137.9 79.6c.8.4 1.8.7 2.8.7 1 0 2-.2 2.8-.7 10-5.8 141.6-81.7 141.6-81.7l-1.6-.9 1.5.9 171.9-99.3v-3.3l-174.7 101 1 .5z"/><path d="M1613.1 551.7L1791 449v-3.4l-180.8 104.5"/><path d="M1605.3 547.2l-127.6 73.7c-.8.4-1.8.7-2.8.7-1 0-2-.2-2.8-.7-9.3-5.3-124-71.6-124-71.6l-.1.1 126.9-73.3h.1l3-1.7V209.7l3-1.8v264.7l3-1.7V206.2l3-1.8v264.7l3-1.7V202.7l3-1.8v264.7l3-1.7V199.3l3-1.8v264.7l3-1.7V195.8l3-1.8v264.7l3-1.7V192.3l3-1.8v264.7l3-1.7V188.8l3-1.8v264.7l3-1.7V185.4l3-1.8v264.7l3-1.7V181.9l3-1.8v264.7l3-1.7V178.4l3-1.8v264.7l3-1.7V175l3-1.8v264.7l3-1.7V171.5l3-1.8v264.7l3-1.7V168l3-1.8v264.7l3-1.7V164.5l-2.9-1.7-3.1 1.8V161l-2.8-1.7-3.1 1.8v-3.6l-2.8-1.7-3.1 1.8V154l-2.8-1.7-3.1 1.8v-3.6l-2.9-1.7-3.1 1.8V147l-2.9-1.7-3.1 1.8v-3.6l-2.9-1.7-3.1 1.8V140l-2.9-1.7-3.1 1.8v-3.6l-2.9-1.7-3.1 1.8V133l-2.9-1.7-3.1 1.8v-3.6l-2.9-1.7-3.1 1.8V126h-.1l-2.8-1.7-3.1 1.8v-3.6l-2.9-1.7-3.1 1.8V119l-3-1.7-124.4 71.8-.1-71.8-1.5.8V46l-1-.8v74.2h-.1l-.1 71.8-3.2 1.8v-71.8l-1.7 1 .1-.1V42.5l-1-.8v81.2h-.2l-.1 71.8-3.2 1.8v-71.8l-1.5.8V39l-1-.8v88.1h-.2l-.1 71.8-3.2 1.8v-71.8l-1.5.8V35.6l-1-.8v95.1l-.2 71.8-3.2 1.8-.1-71.8-1.5.8V32.1l-1-.8v102l1.2-.8-1.5.8-.1 71.8-3.2 1.8v-71.8l-1.5.8V28.6l-1-.8v109h-.2l-.1 71.8-3.2 1.8v-71.8l-1.5.8V25.1l-1-.8v115.9l1.2-.8-1.5.8-.1 71.8-3.2 1.8V142l-1.5.8V21.7l-1-.8v122.9l-.2 71.8-3.3 1.8v-71.8l-2.9 1.7v71.8l-3.2 1.8v-71.8l-2.9 1.7v71.8l-3.1 1.8v-71.8l-2.4 1.4 1-.6V11.3l-1-.8v143.7h-.2l-.1 71.8-3.2 1.8V156l-1.4.8V7.8l-1-.8v150.7h-.2l-.1 71.8-3.2 1.8v-71.8l-2.9 1.7-.2 71.8-3.3 1.8V163l-2.7 1.9.2 72v-.2l1.5.8 1.3.7h-.2l2.9-1.8v3.6l.6.2 2.6 1.4h.1-.2l2.9-1.8v3.6H1281.6l1.7 1 1.2.7h.3l3.4-1.8v3.6l2.6 1.7h-.1.2l3.3-1.8v3.6H1293.9l2.3 1.3.5.3h.2l3.4-1.8v3.7h-.5l2.7 1.6.1.1 3.1-2v3.4l2.9 1.9v.1l3.1-1.8v3.7l2.9 1.7 3.1-1.8v3.6l2.5 1.4.4.2 3.1-1.8v3.6l2.1 1.3.4.3 3.4-1.8.1 3.6h.1l2.9 1.7 3.2-1.8v3.6l2.9 1.7 3.1-1.8v3.6l2.6 1.5.3.2 3.1-1.8v3.6l.8.5 2.1 1.2 124.5-71.8v173.9l-195 112.5v.6l195-112.5v6.4l-195 112.5v.6l195-112.5v6.4l-195 112.5v.6l195-112.5v6.4l-195 112.5v.6l195-112.5v6.4l-195 112.5v.6l195-112.5v6.4l-195 112.5v.6l195-112.5v6.4l-195 112.5v.6l195-112.5v6.4l-195 112.5v.6l195-112.5v6.4l-195 112.5v.6l195-112.5v6.4l-195 112.5v.6l195-112.5v6.4l-195 112.5v.6l195-112.5v6.4l-195 112.5v.6l195-112.5v6.4l-195 112.5v.6l195-112.5v6.4L1280 588v.6l1.6-.9-1.5.9 192.1 110.9c.8.4 1.8.7 2.8.7 1 0 2-.2 2.8-.7l195.7-113h-.1l117.7-68v-3.3l-120.6 69.7 1.2.6-.1-.1-193.8 111.9c-.8.4-1.8.7-2.8.7-1 0-2-.2-2.8-.7L1282 587.5l11.1-6.4-1 .6 180.1 104c.8.4 1.8.7 2.8.7 1 0 2-.2 2.8-.7l183.7-106.1-1.5-.9 1.4.9 129.7-75v-3.3l-132.6 76.6 1 .6-181.8 105c-.8.4-1.7.7-2.7.7-1 0-2-.2-2.8-.7-11.4-6.6-178.1-102.8-178.2-102.9l10.1-5.8 168 97c.8.4 1.8.7 2.8.7 1 0 2-.2 2.8-.7 11.1-6.4 171.6-99.1 171.7-99.1h-.1l141.8-81.9v-3.3l-144.6 83.6 1 .6-169.7 98c-.8.4-1.7.7-2.7.7-1 0-2-.2-2.8-.7-10.9-6.3-166.1-95.9-166.1-95.9l-1.8 1 5.9-3.4 162 93.5c.8.4 1.8.7 2.8.7 1 0 2-.2 2.8-.7 10.9-6.3 165.6-95.6 165.6-95.6h-.1l147.8-85.4v-3.3l-150.6 87.1 1 .6-163.7 94.5c-.8.4-1.7.7-2.7.7-1 0-2-.2-2.8-.7-10.7-6.2-160.1-92.4-160.1-92.4l-1.6.9 13.1-7.6-1.4.8 150 86.6c.8.4 1.8.7 2.8.7 1 0 2-.2 2.8-.7 10.5-6 153.6-88.7 153.6-88.7l-1.9-1.1-151.7 87.6c-.8.4-1.8.7-2.8.7-1 0-2-.2-2.8-.7-10.2-5.9-148.1-85.5-148.1-85.5l22.2-12.8 125.9 72.7c.8.4 1.8.7 2.8.7 1 0 2-.4 2.8-.9 9.5-5.5 129.5-75 129.5-75L1791 442v-3.3l-186.8 107.9 1.1.6zM1478 206.4v-3.6l3-1.8v3.6l-3 1.8zm-182 24.7l3.3-1.8-.1 3.6-3.2 1.8v-3.6zm-2 5.3l-4 1.8v-3.6l4-1.8v3.6zm235-66.6l-3 1.8V168l3-1.8v3.6zm3-5.3l3-1.8v3.6l-3 1.8v-3.6zm-217.6 63.1l3.1-1.8v3.6l-3.1 1.8v-3.6zm-2.8 5.3l-3.1 1.8v-3.6l3.1-1.8v3.6zm199.4-59.6l-3 1.8v-3.6l3-1.8v3.6zm3-5.3l3-1.8v3.6l-3 1.8V168zm-181.5 56.1l3.1-1.8v3.6l-3.1 1.8v-3.6zm-2.9 5.3l-3.1 1.8v-3.6l3.1-1.8v3.6zm8.9-8.7l3.1-1.8v3.6l-3.1 1.8v-3.6zm-2.9 8.6v3.6l-3.1 1.8v-3.6l3.1-1.8zm2.9-1.7l3.1-1.8v3.6l-3.1 1.8v-3.6zm6-3.5l3.1-1.8v3.6l-3.1 1.8v-3.6zm-2.9 8.6v3.6l-3.1 1.8v-3.6l3.1-1.8zm2.9-1.6l3.1-1.8v3.6l-3.1 1.8v-3.6zm6-3.5l124.4-71.8v3.6l-124.4 71.8v-3.6zm-2.9 8.6v3.6l-3.1 1.8V238l3.1-1.8zm2.9-1.6l124.4-71.8v3.6l-124.4 71.8v-3.6zm127.5-73.5l3-1.8v3.6l-3 1.8v-3.6zm-3 8.6v3.6l-124.5 71.8v-3.6l124.5-71.8zm3-1.7l3-1.8v3.6l-3 1.8V168zm6-3.5l3-1.8v3.6l-3 1.8v-3.6zm-3 8.6v3.6l-3 1.8V175l3-1.9zm3-1.6l3-1.8v3.6l-3 1.8v-3.6zm6-3.5l3-1.8v3.6l-3 1.8V168zm-3 8.6v3.6l-3 1.8v-3.6l3-1.8zm3-1.6l3-1.8v3.6l-3 1.8V175zm6-3.5l3-1.8v3.6l-3 1.8v-3.6zm-3 8.6v3.6l-3 1.8v-3.6l3-1.8zm3-1.7l3-1.8v3.6l-3 1.8v-3.6zm6-3.4l3-1.8v3.6l-3 1.8V175zm6-6.8v-3.6l3-1.8v3.6l-3 1.8zm-3 1.6l-3 1.8V168l3-1.8v3.6zm-3-5.1v-3.6l3-1.8v3.6l-3 1.8zm-3 1.7l-3 1.8v-3.6l3-1.8v3.6zm-3-5.2v-3.6l3-1.8v3.6l-3 1.8zm-3 1.7l-3 1.8v-3.6l3-1.8v3.6zm-3-5.1v-3.6l3-1.8v3.6l-3 1.8zm-3 1.6l-3 1.8v-3.6l3-1.8v3.6zm-3-5.1v-3.6l3-1.8v3.6l-3 1.8zm-3 1.6l-3 1.8v-3.6l3-1.8v3.6zm-3-5.1v-3.6l3-1.8v3.6l-3 1.8zm-3 1.7l-124.4 71.8v-3.6l124.4-71.8v3.6zm-124.5 64.9v-3.6l124.4-71.8v3.6l-124.4 71.8zm-2.9 1.6l-3.1 1.8v-3.6l3.1-1.8v3.6zm-3.1-5.1v-3.6l3.1-1.8v3.6l-3.1 1.8zm-2.9 1.6l-3.1 1.8v-3.6l3.1-1.8v3.6zm-6 3.5l-3.1 1.8v-3.6l3.1-1.8v3.6zm-6 3.5l-3.1 1.8v-3.6l3.1-1.8v3.6zm-6 3.5l-3.1 1.8v-3.6l3.1-1.8v3.6zm-6 6.7v3.6l-3.1 1.8v-3.6l3.1-1.8zm2.8-1.6l3.1-1.8v3.6l-3.1 1.8v-3.6zm3.2 5.1v3.6l-3.1 1.8V238l3.1-1.8zm2.8-1.6l3.1-1.8v3.6l-3.1 1.8v-3.6zm3.2 5.1v3.6l-3.1 1.8v-3.6l3.1-1.8zm2.9-1.7l3.1-1.8v3.6l-3.1 1.8V238zm3.1 5.2v3.6l-3.1 1.8V245l3.1-1.8zm2.9-1.7l3.1-1.8v3.6l-3.1 1.8v-3.6zm3.1 5.1v3.6l-3.1 1.8v-3.6l3.1-1.8zm2.9-1.6l3.1-1.8v3.6l-3.1 1.8V245zm3.1 5.1v3.6l-3.1 1.8v-3.6l3.1-1.8zm2.9-1.7l124.5-71.8v3.6L1350.6 252l-.1-3.6zm124.5-64.9v3.6L1350.5 259v-3.6l124.5-71.9zm3-1.6l3-1.8v3.6l-3 1.8v-3.6zm3 5.1v3.6l-3 1.8v-3.6l3-1.8zm3-1.6l3-1.8v3.6l-3 1.8v-3.6zm3 5.1v3.6l-3 1.8v-3.6l3-1.8zm3-1.7l3-1.8v3.6l-3 1.8v-3.6zm6-3.4l3-1.8v3.6l-3 1.8v-3.6zm6-3.5l3-1.8v3.6l-3 1.8v-3.6zm6-3.5l3-1.8v3.6l-3 1.8v-3.6zm6-3.4l3-1.8v3.6l-3 1.8V175zm6-3.5l3-1.8v3.6l-3 1.8v-3.6zm6-6.8v-3.6l3-1.8v3.6l-3 1.8zm-3 1.7l-3 1.8v-3.6l3-1.8v3.6zm-3-5.2v-3.6l3-1.8v3.6l-3 1.8zm-3 1.7l-3 1.8v-3.6l3-1.8v3.6zm-3-5.1v-3.6l3-1.8v3.6l-3 1.8zm-3 1.6l-3 1.8v-3.6l3-1.8v3.6zm-3-5.1v-3.6l3-1.8v3.6l-3 1.8zm-3 1.6l-3 1.8v-3.6l3-1.8v3.6zm-3-5.1v-3.6l3-1.8v3.6l-3 1.8zm-3 1.7l-3 1.8v-3.6l3-1.8v3.6zm-3-5.2v-3.6l3-1.8v3.6l-3 1.8zm-3 1.7l-3 1.8v-3.6l3-1.8v3.6zm-3-5.1v-3.6l3-1.8v3.6l-3 1.8zm-3 1.6l-3 1.8v-3.6l3-1.8v3.6zm-3-5.1v-3.6l3-1.8v3.6l-3 1.8zm-3 1.7l-3 1.8v-3.6l3-1.8v3.6zm-3-5.2v-3.6l3-1.8v3.6l-3 1.8zm-3 1.7l-124.4 71.8v-3.6L1475 135v3.6zm-124.4 64.9v-3.6L1475 128v3.6l-124.4 71.9zm-2.9 1.6l-3.1 1.8v-3.6l3.1-1.8v3.6zm-6.1 3.5l-3.1 1.8v-3.6l3.1-1.8v3.6zm-6 3.5l-3.1 1.8v-3.6l3.1-1.8v3.6zm-6 3.4l-3.1 1.8v-3.6l3.1-1.8v3.6zm-6 3.5l-3.1 1.8v-3.6l3.1-1.8v3.6zm-6 3.5l-3.1 1.8v-3.6l3.1-1.8v3.6zm-6 3.5l-3.1 1.8v-3.6l3.1-1.8v3.6zm-6.3 3.4l-3.3 1.8v-3.6l3.2-1.8.1 3.6zm-6 6.8l-.1 3.6-3.2 1.8V238l3.3-1.8zm3.1-1.6l3.1-1.8v3.6l-3.1 1.8v-3.6zm2.9 5.1l-.1 3.6-3.2 1.8v-3.6l3.3-1.8zm3.1-1.7l3.1-1.8v3.6l-3.1 1.8V238zm3.1 5.2v3.6l-3.1 1.8V245l3.1-1.8zm2.9-1.7l3.1-1.8v3.6l-3.1 1.8v-3.6zm3.2 5.1v3.6l-3.1 1.8v-3.6l3.1-1.8zm2.8-1.6l3.1-1.8v3.6l-3.1 1.8V245zm3.2 5.1v3.6l-3.1 1.8v-3.6l3.1-1.8zm2.8-1.6l3.1-1.8v3.6l-3.1 1.8v-3.6zm3.2 5.1v3.6l-3.1 1.8v-3.6l3.1-1.8zm2.9-1.7l3.1-1.8v3.6l-3.1 1.8v-3.6zm3.1 5.1v3.6l-3.1 1.8v-3.6l3.1-1.8zm2.9-1.6l3.1-1.8v3.6l-3.1 1.8v-3.6zm3.1 5.1v3.6l-3.1 1.8v-3.6l3.1-1.8zm2.9-1.6l3.1-1.8v3.6l-3.1 1.8v-3.6zm3.1 5.1v3.6l-3.1 1.8v-3.6l3.1-1.8zm2.9-1.7l124.5-71.8v3.6L1350.5 266v-3.7zm124.5-64.9v3.6l-124.5 71.8v-3.6l124.5-71.8zm3-1.6l3-1.8v3.6l-3 1.8v-3.6zm6 7.1v-3.6l3-1.8v3.6l-3 1.8zm6-3.5v-3.6l3-1.8v3.6l-3 1.8zm6-3.5v-3.6l3-1.8v3.6l-3 1.8zm6-3.4v-3.6l3-1.8v3.6l-3 1.8zm6-3.5v-3.6l3-1.8v3.6l-3 1.8zm6-3.5v-3.6l3-1.8v3.6l-3 1.8zm6-3.4v-3.6l3-1.8v3.6l-3 1.8zm6-3.5V175l3-1.8v3.6l-3 1.8zm6-3.5v-3.6l3-1.8v3.6l-3 1.8zm6-3.5V168l3-1.8v3.6l-3 1.8zm9-8.9v3.6l-3 1.8v-3.6l3-1.8zm-6-3.4v3.6l-3 1.8v-3.6l3-1.8zm-6-3.5v3.6l-3 1.8v-3.6l3-1.8zm-6-3.5v3.6l-3 1.8v-3.6l3-1.8zm-6-3.5v3.6l-3 1.8v-3.6l3-1.8zm-6-3.4v3.6l-3 1.8v-3.6l3-1.8zm-6-3.5v3.6l-3 1.8v-3.6l3-1.8zm-6-3.5v3.6l-3 1.8v-3.6l3-1.8zm-6-3.4v3.6l-3 1.8v-3.6l3-1.8zm-6-3.5v3.6l-3 1.8v-3.6l3-1.8zm-6-3.5v3.6l-3 1.8v-3.6l3-1.8zm-6-3.5v3.6l-3 1.8v-3.6l3-1.8zm-6-3.4v3.6l-124.4 71.8v-3.6l124.4-71.8zm-127.3 73.4v3.6l-3.1 1.8v-3.6l3.1-1.8zm-6.1 3.5v3.6l-3.1 1.8v-3.6l3.1-1.8zm-6 3.5v3.6l-3.1 1.8v-3.6l3.1-1.8zm-6 3.5v3.6l-3.1 1.8v-3.6l3.1-1.8zm-6 3.4v3.6l-3.1 1.8v-3.6l3.1-1.8zm-6 3.5v3.6l-3.1 1.8v-3.6l3.1-1.8zm-6 3.5v3.6l-3.1 1.8v-3.6l3.1-1.8zm-6.3 3.5l-.1 3.6-3.2 1.8v-3.6l3.3-1.8zm-6 3.4l-.1 3.6-3.2 1.8v-3.6l3.3-1.8zm-5.3 3.5v3.6l-4 1.8v-3.6l4-1.8zm-6 3.5v3.6l-4 1.8v-3.6l4-1.8zm-10 8.9v-3.6l3-1.8v3.6l-3 1.8zm6 3.5V238l4-1.8v3.6l-4 1.9zm6 3.4v-3.6l4-1.8v3.6l-4 1.8zm6 3.5V245l3.3-1.8-.1 3.6-3.2 1.8zm6.4 3.5v-3.6l3.1-1.8v3.6l-3.1 1.8zm6 3.5V252l3.1-1.8v3.6l-3.1 1.8zm6 3.4v-3.6l3.1-1.8v3.6l-3.1 1.8zm6 3.5v-3.6l3.1-1.8v3.6l-3.1 1.8zm6 3.5v-3.6l3.1-1.8v3.6l-3.1 1.8zm6 3.4v-3.6l3.1-1.8v3.6l-3.1 1.8zm6.1 3.5v-3.6l3.1-1.8v3.6l-3.1 1.8zm6 3.5v-3.6l3.1-1.8v3.6l-3.1 1.8zm6 3.5v-3.6l124.5-71.8v3.6l-124.5 71.8z"/><path d="M1599.3 543.7l-121.6 70.2c-.8.4-1.7.7-2.7.7v2.2c1 0 2-.2 2.7-.7 9.2-5.3 123.5-71.3 123.5-71.3l-1.4-.8 1.3.8L1791 435.1v-3.3l-192.8 111.4 1.1.5zM1592.2 539.7l2.8 1.6 196-113.2v-3.3M414.6 396.2c.4-.2 1.3-.3 1.3-.3v-3.3s-1 .1-1.3.3l-83.8 48.3-83.8 48.3v3.4l83.8-48.3 83.8-48.4zM414.6 326.7c.4-.2 1.3-.3 1.3-.3v-3.3s-1 .1-1.3.3l-83.8 48.3-83.8 48.4v3.4l83.8-48.3 83.8-48.5z"/><path d="M414.7 312.8c.4-.2.9-.3 1.4-.3.5 0 1 .1 1.4.3 7.7 4.5 46.5 26.9 83.4 48.2 36.9 21.3 71.8 41.5 71.8 41.5l58.4 33.7 58.4 33.7c.4.2.5.3 1.5.3v-1.7c-1 0-1.1-.1-1.5-.3-6.6-3.8-35.4-20.4-62.6-36.1-27.2-15.7-52.7-30.4-52.7-30.4l1.4-.8-79.1-45.7-79.1-45.7c-.4-.2-.9-.3-1.4-.3-.5 0-1 .1-1.4.3-8 4.6-50.1 28.8-89.9 51.8-39.8 23-77.8 44.8-77.8 44.8v3.4l83.9-48.3 83.9-48.4zm158.7 89.3l-.3.2.6-.3-.3.1zM1301 18.2l-1-.8v129.8l1-.8M1295 14.7l-1-.8v136.8l1-.8M1277 4.3l-2-.8v157.6l2-.8M1269 164.6l2-.8V.8l-1.5-.8h.2L1152 68.1v1.1l117-68.1V7l-117 68v1.1l117-68v5.8L1152 82v1.1L1269 15v5.9l-117 68V90l117-68v5.8l-117 68.1V97l117-68.1v5.9l-117 68v1.1l117-68v5.8l-117 68.1v1.1l117-68.1v5.9l-117 68v1.1l117-68v5.8l-117 68.1v1.1l117-68.1v5.9l-117 68v1.1l117-68v5.8l-117 68.1v1.1l117-68.1v5.9l-117 68v1.1l117-68v5.8l-117 68.1v1.1l117-68.1v5.9l-117 68v1.1l117-68"/><path d="M927 463c0-4.4-1.7-9.3-4.4-14-2-3.5-4.6-6.4-7.3-8.6h-.1c-.9-.7-1.9-1.4-2.8-1.9-1-.6-2.1-1.1-3.1-1.4-.1-.1-.1-.1-.2-.1l-.8-.1.8.1c-.9-.7-1.8-1.4-2.8-1.9-1-.6-2-1-3-1.4l-.2-.2-.9-.1.9.1c-.9-.7-1.8-1.4-2.8-1.9-1-.6-2-1-3-1.4-.1-.1-.2-.1-.2-.2l-1-.1 1 .1c-.9-.7-1.8-1.4-2.8-1.9-1-.6-2-1-3-1.4-.1-.1-.1.1-.2.1l-.8.1.8-.1c-.9-.7-1.8-1.5-2.8-2-1-.6-2-1.2-3-1.5-.1-.1-.1-.3-.2-.3-.9-1-1.8-1.3-2.8-1.8-1-.6-2-.8-3-1.2-.1-.1-.1 0-.2 0-.9-1-1.8-1.5-2.8-2.1-1-.6-2.1-1.1-3.1-1.5-.1 0-.1-.1-.2-.2-.9-.7-1.8-1.4-2.8-1.9-1-.6-2-1-3-1.4-.1-.1-.2-.1-.3-.2-.9-.7-1.8-1.4-2.8-1.9-1-.6-2-1-3-1.4l-.2-.2c-.9-.7-1.8-1.4-2.8-1.9-1-.6-2.1-1.1-3.1-1.4-.1-.1-.1 0-.2 0h-.8.8c-.9-.7-1.8-1.4-2.8-2-1-.6-2-1.1-3-1.4l-.2-.2-.8-.1.8.1c-.9-.7-1.8-1.4-2.8-1.9-1-.6-2-1-3-1.4-.1-.1-.2-.1-.2-.2-.9-.7-1.8-1.4-2.8-1.9-1-.6-2.1-1.3-3.1-1.6l-.1-.3c-.9 0-1.8-1.2-2.8-1.7-3.9-2.3-7.6-2.5-10.5-.9l-131.4 75.9c-.4.2-1.3.4-1.3.4v1.7s.9-.1 1.3-.3l132.2-76.3c2.4-1.4 5.6-1 9 1 .1.1.2.2.3.2-1.5 0-2.9.3-4.1 1L692 475.4c-.4.2-.9.3-1.4.3-.5 0-1-.1-1.4-.3l-60.6-35-60.6-35 1.4-.8s-34.2-19.8-70.3-40.6c-36.1-20.9-74.2-42.8-81.8-47.2-.4-.2-.9-.3-1.4-.3-.5 0-1 .1-1.4.3l-83.9 48.3-83.6 48v3.4l83.9-48.3 83.8-48.3c.4-.2.9-.3 1.4-.3.5 0 1 .1 1.4.3 7.6 4.4 44.9 25.9 80.3 46.4s68.9 39.8 69 39.8l61.4 35.4 61.4 35.4c.4.2.9.3 1.4.3.5 0 1-.1 1.4-.3l138-79.9c1.7-1 3.7-1.1 6-.4.6.5 1.2 1.1 1.9 1.7-.9.2-1.8.4-2.5.9L692.3 482c-.4.2-.9.3-1.4.3s-1-.1-1.4-.3l-63.7-36.7-63.7-36.7 1.4-.9s-32.8-19-67.5-39-71.2-41.1-78.7-45.4c-.4-.2-.4-.3-1.4-.3v3.3c1 0 1 .1 1.4.3 7.4 4.3 43.2 25.1 77.2 44.7s66.1 38.3 66.1 38.3l64.4 37 64.4 37.1c.4.2.9.3 1.4.3s1-.1 1.4-.4l144.3-83.3c.9-.5 1.9-.8 3-.8.8.9 1.6 1.9 2.3 3l-149.6 86.3c-.4.2-.9.3-1.4.3-.5 0-1-.1-1.4-.3l-66.7-38.5-66.7-38.5 1.4-.8s-31.4-18.1-64.6-37.3c-33.2-19.2-68.2-39.4-75.5-43.6-.4-.2-.9-.3-1.4-.3-.5 0-1 .1-1.4.3l-83.9 48.3L247 427v3.4l83.9-48.3 83.8-48.3c.4-.2.9-.3 1.4-.3.5 0 1 .1 1.4.3 7.2 4.2 41.5 24 74 42.7 32.5 18.8 63.2 36.5 63.2 36.5l67.4 38.9 67.4 38.9c.4.2.9.3 1.4.3.5 0 1-.1 1.4-.3L842.5 404h.1c.1.2.3.4.4.6.7 1.1 1.2 2.3 1.7 3.4l-152.5 88c-.4.2-.9.3-1.4.3-.5 0-1-.1-1.4-.3l-69.7-40.2-69.7-40.2 1.4-.8s-30-17.3-61.7-35.6c-31.7-18.3-65.3-37.7-72.4-41.8-.4-.2-.9-.3-1.4-.3-.5 0-1 .1-1.4.3l-83.9 48.3L247 434v3.4l83.9-48.3 83.8-48.3c.4-.2.9-.3 1.4-.3.5 0 1 .1 1.4.3 7 4.1 39.8 23 70.9 40.9 31 17.9 60.3 34.8 60.3 34.8L619 457l70.4 40.6c.4.2.9.3 1.4.3.5 0 1-.1 1.4-.3l153-88.3c.6 1.5 1 3 1.3 4.5L692.2 503c-.4.2-.9.3-1.4.3-.5 0-1-.1-1.4-.3l-72.7-42-72.7-42 1.4-.8s-28.5-16.5-58.8-34c-30.3-17.5-62.3-36-69.2-40-.4-.2-.9-.3-1.4-.3-.5 0-1 .1-1.4.3l-83.9 48.3-83.7 48.4v3.4l83.9-48.3 83.8-48.3c.4-.2.9-.3 1.4-.3.5 0 1 .1 1.4.3 6.9 4 38.2 22 67.7 39.1 29.6 17.1 57.4 33.2 57.4 33.2l73.4 42.4 73.4 42.4c.4.2.9.3 1.4.3.5 0 1-.1 1.4-.3l154.6-89.2c.1.8.2 1.6.2 2.4v2.8l-154.8 89.3c-.4.2-.9.3-1.4.3-.5 0-1-.1-1.4-.3l-75.7-43.7-75.7-43.9 1.4-.8s-27.1-15.7-55.9-32.3c-28.8-16.6-59.3-34.3-66.1-38.2-.4-.2-.9-.3-1.4-.3-.5 0-1 .1-1.4.3l-83.9 48.3-83.7 48.4v3.4l83.9-48.3 83.8-48.3c.4-.2.9-.3 1.4-.3.5 0 1 .1 1.4.3 6.7 3.9 36.5 21.1 64.6 37.3 28.1 16.2 54.6 31.5 54.6 31.5l76.4 44.1 76.4 44.1c.4.2.9.3 1.4.3.5 0 1-.1 1.4-.3L847 422.3v5.3l-154.8 89.3c-.4.2-.9.3-1.4.3-.5 0-1-.1-1.4-.3l-78.7-45.4L532 426l1.4-.8s-25.7-14.8-53.1-30.6C453 378.7 424 362 417.4 358.2c-.4-.2-.9-.3-1.4-.3-.5 0-1 .1-1.4.3l-83.9 48.3-83.7 48.3v3.4l83.9-48.3 83.8-48.3c.4-.2.9-.3 1.4-.3.5 0 1 .1 1.4.3 6.5 3.7 34.8 20.1 61.4 35.5 26.7 15.4 51.7 29.8 51.7 29.9l79.4 45.8 79.4 45.8c.4.2.9.3 1.4.3.5 0 1-.1 1.4-.3L847 429.2v5.3l-154.8 89.3c-.4.2-.9.3-1.4.3-.5 0-1-.1-1.4-.3l-81.7-47.2-81.7-47.1 1.4-.8s-24.3-14-50.2-29c-25.9-15-53.4-30.8-59.8-34.5-.4-.2-.9-.3-1.4-.3-.5 0-1 .1-1.4.3l-83.9 48.3-83.7 48.3v3.4l83.9-48.3 83.8-48.3c.4-.2.9-.3 1.4-.3.5 0 1 .1 1.4.3 6.3 3.6 33.1 19.1 58.3 33.7 25.2 14.5 48.8 28.2 48.8 28.2l82.4 47.6 82.4 47.6c.4.2.9.3 1.4.3.5 0 1-.1 1.4-.3L847 436.2v5.3l-154.8 89.3c-.4.2-.9.3-1.4.3-.5 0-1-.1-1.4-.3l-84.7-48.9L520 433l1.4-.8s-22.9-13.2-47.3-27.3c-24.4-14.1-50.4-29.1-56.6-32.7-.4-.2-.9-.3-1.4-.3-.5 0-1 .1-1.4.3l-83.9 48.3-83.8 48.2v3.4l83.9-48.3 83.8-48.3c.4-.2.9-.3 1.4-.3.5 0 1 .1 1.4.3 6.1 3.5 31.4 18.1 55.1 31.8 23.8 13.7 46 26.6 46 26.6l1.1-.6-.4.2-.7.4 85.4 49.3 85.4 49.3c.4.2.9.3 1.4.3.5 0 1-.1 1.4-.3L847 443.1v5.3l-154.8 89.3c-.4.2-.9.3-1.4.3s-1-.1-1.4-.3l-87.7-50.6-87.7-50.7 1.4-.8s-21.5-12.4-44.5-25.7c-23-13.3-47.5-27.4-53.5-30.9-.4-.2-.9-.3-1.4-.3s-1 .1-1.4.3l-83.9 48.3-83.7 48.4v3.4l83.9-48.3 83.8-48.3c.4-.2.9-.3 1.4-.3.5 0 1 .1 1.4.3 5.9 3.4 29.7 17.1 52 30 22.3 12.9 43.1 24.9 43.1 24.9l1.3-.8-.6.3-.7.4 88.4 51.1 88.4 51.1c.4.2.9.3 1.4.3s1-.1 1.4-.3L847 450v5.3l-154.8 89.3c-.4.2-.9.3-1.4.3-.5 0-1-.1-1.4-.3l-90.7-52.4-90.7-52.3 1.4-.8s-20.1-11.6-41.6-24-44.5-25.7-50.3-29.1c-.4-.2-.9-.3-1.4-.3-.5 0-1 .1-1.4.3l-83.9 48.3-83.8 48.3v3.4l83.9-48.3 83.8-48.3c.4-.2.9-.3 1.4-.3.5 0 1 .1 1.4.3 5.7 3.3 28 16.1 48.8 28.2 20.9 12 40.3 23.3 40.3 23.3l91.4 52.8 91.4 52.8c.4.2.9.3 1.4.3.5 0 1-.1 1.4-.3L847 457v5.3l-154.8 89.3c-.4.2-.9.3-1.4.3-.5 0-1-.1-1.4-.3l-93.7-54.1-93.7-54.1 1.4-.8s-18.7-10.8-38.8-22.4c-20.1-11.6-41.6-24-47.2-27.2-.4-.2-.4-.3-1.4-.3v3.3c1 0 1 .1 1.4.3 5.5 3.2 26.3 15.1 45.7 26.3 19.4 11.2 37.4 21.6 37.4 21.6l.3-.2-.3.2 94.5 54.5 94.5 54.5c.4.2.9.3 1.4.3.5 0 1-.1 1.4-.3L847 464v5.3l-154.8 89.3c-.4.2-.9.3-1.4.3s-1-.1-1.4-.3l-96.8-55.9-96.8-55.9-.7.4-.7.4L592 504l97.5 56.3c.4.2.9.3 1.4.3s1-.1 1.4-.3L847 470.9V574l3 1.7v-68.3l-2 .8v-38.1l5-2.6v110.1l3 1.7V504l-2 .8v-38.1l5-2.6V581l3 1.7v-82.2l-2 .8v-38.1l5-2.6v124l3 1.7V497l-2 .8v-38.1l5-2.7v131l3 1.7v-96.1l-2 .8v-38.1l5-2.6v137.9l3 1.7V490l-2 .8v-38.1l5-2.6V595l3 1.7v-110l-2 .8v-38.1l5-2.6v151.5l3 1.7V483l-2 .8v-38.1l4.6-2.6c.1.8.4 1.6.4 2.4v156.2l3 1.7V479.6l-2 .8v-34.8c0-1 .2-2.1 0-3.2l3.2-1.8c1.1 2.9 1.8 5.8 1.8 8.5v156.2l3 1.7V476.1l-1 .8V449c0-2.9-.9-6-2.1-9.2l1.9-1.2.3.6c2.5 4.4 3.9 9.1 3.9 13.2v156.2l3 1.7V472.6l-1 .8v-20.9c0-4.4-1.7-9.3-4.4-14l-.4-.4c.5-.1 1-.2 1.5-.2 1.3 1.5 2.4 3.1 3.4 4.9 2.5 4.4 3.9 9.1 3.9 13.2v156.3l3 1.7V469.2l-1 .8v-14c0-4.4-1.7-9.3-4.4-14-.8-1.4-1.8-2.7-2.8-4l.9.3c2.4 2 4.6 4.8 6.4 7.9 2.5 4.4 3.9 9.1 3.9 13.2v156.2l3 1.7V465.7l-1 .8v-7c0-4.4-1.7-9.3-4.4-14-1.1-1.9-2.5-3.7-3.8-5.2 3.2 2.1 6.1 5.4 8.4 9.4 2.5 4.4 3.8 9.1 3.8 13.2v156.2l3 1.7V462.2l-1 .8zm-359.8-57.3l.4-.3-.2.1-.2.2zM507 440.4l.2-.1-.2.1zm399.4-3.9zm-5.9-3.5h-.2.2zm-52-29.4c.6.5 1.2 1.1 1.8 1.7l-1.2.3c-.5-.8-1-1.5-1.6-2.2.4 0 .7.1 1 .2zm44 26l-1.2.3c-.5-.8-1.1-1.5-1.6-2.3.3.1.6.2 1 .3.6.6 1.2 1.1 1.8 1.7zm-35-19.5c.8.9 1.6 2 2.3 3.1l-1.8 1.1c-.5-1.2-1.1-2.3-1.7-3.4-.1-.2-.2-.3-.3-.5.5-.2 1-.3 1.5-.3zm3 4.3h.1c.1.2.3.4.4.6.6 1.1 1.2 2.3 1.7 3.4l-2.9 1.7c-.3-1.5-.8-3-1.3-4.5l2-1.2zm3.1-.8c.8.9 1.6 1.9 2.3 3l-1.9 1.1c-.5-1.1-1.1-2.3-1.7-3.4-.1-.1-.2-.3-.3-.4.5-.2 1-.3 1.6-.3zm6 3.4c.8.9 1.6 2 2.3 3l-1.8 1.1c-.5-1.1-1.1-2.3-1.7-3.4-.1-.2-.2-.3-.3-.5.4-.1.9-.1 1.5-.2zm6 3.5c.8.9 1.6 2 2.3 3l-1.8 1.1c-.5-1.2-1.1-2.3-1.7-3.4-.1-.2-.2-.3-.3-.4.4-.2.9-.3 1.5-.3zm6 3.5c.8.9 1.6 1.9 2.3 3l-1.9 1.1c-.5-1.1-1.1-2.3-1.7-3.4-.1-.2-.2-.3-.3-.5.5-.1 1.1-.2 1.6-.2zm-2.5 1.4c.6 1.1 1.2 2.3 1.7 3.4l-2.9 1.7c-.3-1.5-.8-3-1.3-4.5l2-1.2h.1c.1.2.2.4.4.6zm-8.5 3.9c.1.8.4 1.6.4 2.4v2.8l-5 2.7v-5.3l4.6-2.6zm-4.6.9v-2c0-1 .1-2.1-.1-3.2l3.3-1.8c.6 1.5.9 3.1 1.1 4.5l-4.3 2.5zm6-1.7l3.2-1.8c.6 1.5.8 3.1 1.1 4.5l-4.3 2.4v-2c0-.9.1-2 0-3.1zm1-6.6c.7 1.1 1.2 2.3 1.7 3.4l-2.9 1.7c-.3-1.5-.8-3-1.3-4.5l2-1.2h.1c.2.2.3.4.4.6zm-6-3.4c.6 1.1 1.2 2.3 1.7 3.4l-2.9 1.7c-.3-1.5-.8-3-1.3-4.5l2-1.2h.1c.2.1.3.3.4.6zm-3.7 1.3c.6 1.5.8 3.1 1.1 4.6l-4.4 2.4v-2c0-1 .1-2.1-.1-3.2l3.4-1.8zm1.3 6c.1.8.4 1.6.4 2.4v2.8l-5 2.6v-5.3l4.6-2.5zm.4 6.9v5.3l-5 2.6v-5.3l5-2.6zm0 6.9v5.3l-5 2.6v-5.3l5-2.6zm1-.8l5-2.7v5.3l-5 2.7v-5.3zm6-3.5l4.6-2.5c.1.8.4 1.6.4 2.4v2.8l-5 2.6v-5.3zm6-3.3l3.2-1.8c.6 1.5.8 3.1 1.1 4.6l-4.3 2.4v-2c0-1.1.1-2.1 0-3.2zm4.6-2.5l2-1.2h.1c.1.2.3.4.4.6.7 1.1 1.2 2.3 1.7 3.4l-2.9 1.7c-.3-1.5-.8-3-1.3-4.5zm3.7-1.4c-.1-.2-.2-.3-.3-.4.5-.1 1-.2 1.6-.2.8.9 1.6 2 2.3 3l-1.8 1.1c-.6-1.2-1.1-2.3-1.8-3.5zm.1-2l-1.2.3c-.5-.8-1-1.5-1.6-2.2.3.1.6.2 1 .3.6.5 1.2 1.1 1.8 1.6zm-6-3.4l-1.2.3c-.5-.8-1.1-1.5-1.6-2.3.3.1.7.2 1 .3.6.5 1.2 1.1 1.8 1.7zm-6-3.5l-1.2.3c-.5-.8-1.1-1.5-1.6-2.3.3.1.6.2.9.2.7.6 1.3 1.2 1.9 1.8zm-6-3.5l-1.2.3c-.5-.8-1-1.5-1.6-2.2.3.1.7.2 1 .3.6.5 1.2 1 1.8 1.6zm-6-3.4l-1.2.3c-.5-.8-1.1-1.5-1.6-2.3.3.1.7.2 1 .3.6.5 1.2 1.1 1.8 1.7zm-6.1-3.5l-1.2.3c-.5-.8-1.1-1.5-1.6-2.3.3.1.6.2 1 .3.6.5 1.2 1.1 1.8 1.7zm-4.8-2.2c.8.9 1.6 2 2.3 3l-1.8 1.1c-.5-1.2-1.1-2.3-1.7-3.4-.1-.1-.2-.3-.3-.4.4-.2 1-.3 1.5-.3zm3 4.3s.1 0 0 0c.2.2.4.4.5.6.7 1.1 1.2 2.3 1.7 3.4l-2.9 1.7c-.3-1.5-.8-3-1.3-4.5l2-1.2zm2.7 5.4c.6 1.5.8 3 1.1 4.5l-4.4 2.4v-2c0-1 .1-2.1-.1-3.1l3.4-1.8zm1.4 6c.1.8.4 1.6.4 2.4v2.8l-5 2.6v-5.3l4.6-2.5zm.4 6.9v5.3l-5 2.6v-5.3l5-2.6zm0 7v5.3l-5 2.6v-5.3l5-2.6zm0 6.9v5.3l-5 2.6v-5.3l5-2.6zm0 7v5.3l-5 2.6v-5.3l5-2.6zm1-.9l5-2.6v5.3l-5 2.6v-5.3zm6-3.4l5-2.7v5.3l-5 2.7v-5.3zm6-3.5l5-2.6v5.3l-5 2.6v-5.3zm6-3.5l4.6-2.6c.1.8.4 1.6.4 2.4v2.8l-5 2.6v-5.2zm6-3.3l3.3-1.8c.6 1.5.8 3.1 1.1 4.6l-4.4 2.4v-2c0-1.1.1-2.1 0-3.2zm4.6-2.6l2-1.2h.1c.1.2.3.4.4.6.7 1.1 1.2 2.3 1.7 3.4l-2.9 1.7c-.3-1.4-.7-3-1.3-4.5zm3.7-1.3c-.1-.1-.2-.3-.3-.4.5-.1 1-.2 1.6-.2.8.9 1.6 2 2.3 3h-.1l-1.8 1.1c-.4-1.2-1-2.3-1.7-3.5zm3.4-.4c.3.1.7.2 1 .3.6.5 1.2 1.1 1.8 1.7l-1.2.3c-.5-.9-1.1-1.6-1.6-2.3zm-1.1-1.7h-.3.3zm-6.2-3.4c-.1-.1-.1-.1 0 0zm-6-3.5h-.1.1zm-5.9-3.5s-.1 0 0 0h-.2.2zm-24.2-13.9h-.1.1zm-6-3.4c-.1-.1-.1-.1 0 0zm-4.8-1.9c.3.1.7.2 1 .3.6.5 1.2 1.1 1.8 1.7l-1.2.3c-.5-.8-1-1.6-1.6-2.3zm2.7 4c-.1-.2-.2-.3-.3-.5.5-.1 1-.2 1.6-.2.8.9 1.6 2 2.3 3l-1.9 1.1c-.5-1.2-1.1-2.3-1.7-3.4zm2.3 4.7l2-1.2h.1c.1.2.3.4.4.6.7 1.1 1.2 2.3 1.7 3.4l-2.9 1.7c-.3-1.5-.8-3-1.3-4.5zm1.4 6l3.2-1.8c.6 1.5.9 3.1 1.2 4.6l-4.3 2.4v-2c0-1 .1-2.1-.1-3.2zm.1 6.9l4.6-2.6c.1.8.4 1.6.4 2.4v2.8l-5 2.6v-5.2zm0 6.9l5-2.6v5.3l-5 2.6v-5.3zm0 6.9l5-2.6v5.3l-5 2.6v-5.3zm0 7l5-2.6v5.3l-5 2.6v-5.3zm0 6.9l5-2.6v5.3l-5 2.6v-5.3zm0 7l5-2.6v5.3l-5 2.6v-5.3zm0 12.2v-5.3l5-2.6v5.3l-5 2.6zm6-3.5v-5.3l5-2.6v5.3l-5 2.6zm6-3.4v-5.3l5-2.6v5.3l-5 2.6zm6-3.5v-5.3l5-2.7v5.3l-5 2.7zm6-3.5v-5.3l5-2.6v5.3l-5 2.6zm6-3.5v-5.3l5-2.6v5.3l-5 2.6zm6-3.4v-5.3l4.6-2.6c.1.8.4 1.6.4 2.4v2.8l-5 2.7zm6-3.5v-2c0-1 .1-2.1 0-3.2l3.3-1.8c.6 1.5.8 3.1 1.1 4.5l-4.4 2.5zm6-3.2c-.3-1.5-.8-3-1.3-4.5l2-1.2h.1c.1.2.3.4.4.6.7 1.1 1.2 2.3 1.7 3.4l-2.9 1.7zm5.9-3.4l-1.8 1.1c-.5-1.2-1.1-2.3-1.7-3.4-.1-.1-.2-.3-.3-.4.5-.1 1-.2 1.6-.2.8.8 1.6 1.8 2.2 2.9.1 0 0 0 0 0zm1.4-.6c-.5-.8-1-1.5-1.6-2.2.3.1.6.2 1 .3.6.5 1.2 1.1 1.8 1.7-.4-.1-.8 0-1.2.2zM1474.9 609.8c1 0 2-.2 2.8-.7 9-5.2 117.5-67.8 117.5-67.8l-1.9-1.1-115.6 66.7c-.8.4-1.8.7-2.8.7-1 0-2-.2-2.8-.7-8.7-5-112-64.6-112-64.6l-1.9 1.1 113.9 65.7c.8.5 1.8.7 2.8.7zM1354.2 545.8l-1.9 1.1 119.9 69.2c.8.4 1.8.7 2.8.7v-2.2c-1 0-2-.2-2.8-.7-9-5.2-118-68.1-118-68.1zM1475 628.4c-1 0-2-.2-2.8-.7-9.5-5.5-130-75.1-130-75.1l-1.9 1.1 132 76.2c.8.4 1.8.7 2.8.7v-2.2z"/><path d="M1474.9 691c-1 0-2-.2-2.8-.7C1460.6 683.6 1288 584 1288 584l-1.9 1.1 186.1 107.4c.8.4 1.8.7 2.8.7s2-.2 2.8-.7L1667.4 583l-1.9-1.1-187.8 108.4c-.8.5-1.8.7-2.8.7z"/><path d="M1613.2 551.7l-1.9-1.1-133.6 77.2c-.8.4-1.7.7-2.7.7v2.2c1 0 2-.2 2.7-.7 9.8-5.6 135.5-78.3 135.5-78.3z"/><path d="M1477.7 678.6C1489 672 1655.4 576 1655.4 576l-1.9-1.1-175.8 101.5c-.8.4-1.8.7-2.8.7-1 0-2-.2-2.8-.7C1461 670 1300 577 1300 577l-1.9 1.1 174.1 100.5c.8.4 1.8.7 2.8.7.9 0 1.9-.2 2.7-.7z"/></svg>