<svg xmlns="http://www.w3.org/2000/svg" width="50" height="50" viewBox="0 0 50 50">
    <g fill="none">
        <path fill="#FF346B" d="M39.117-1.5c2.465 0 4.446 2.013 4.554 4.505l.005.214v6.687c0 .828-.672 1.5-1.5 1.5-.78 0-1.42-.595-1.493-1.356l-.007-.144V3.219c0-.915-.642-1.64-1.427-1.713l-.132-.006H5.876c-.799 0-1.483.676-1.553 1.569l-.006.15v1.378c0 .828-.672 1.5-1.5 1.5-.78 0-1.42-.595-1.493-1.356l-.007-.144V3.219c0-2.517 1.913-4.6 4.349-4.714l.21-.005h33.241z" transform="translate(2 7)"/>
        <path fill="#3C43BF" d="M17.884 3.703H3.88c-2.667 0-4.854 2.099-4.854 4.72V33.07c0 2.62 2.187 4.719 4.854 4.719h38.952c2.667 0 4.854-2.099 4.854-4.72V13.259c0-2.62-2.187-4.719-4.854-4.719H24.827c-.634 0-1.214-.303-1.549-.787l-.152-.241-.997-1.427.048.08c-.866-1.522-2.513-2.461-4.293-2.461zm-14.004 3h14.004c.656 0 1.258.314 1.604.815l.156.247.994 1.423-.045-.075c.856 1.501 2.479 2.426 4.234 2.426h18.005c1.037 0 1.854.784 1.854 1.72V33.07c0 .935-.817 1.719-1.854 1.719H3.88c-1.037 0-1.854-.784-1.854-1.72V8.423c0-.935.817-1.719 1.854-1.719z" transform="translate(2 7)"/>
    </g>
</svg>
