<?xml version="1.0" encoding="utf-8"?>
<!-- Generator: Adobe Illustrator 28.2.0, SVG Export Plug-In . SVG Version: 6.00 Build 0)  -->
<svg version="1.1" id="Layer_1" xmlns="http://www.w3.org/2000/svg" xmlns:xlink="http://www.w3.org/1999/xlink" x="0px" y="0px"
	 width="59.9px" height="44px" viewBox="0 0 59.9 44" style="enable-background:new 0 0 59.9 44;" xml:space="preserve">
<style type="text/css">
	.st0{fill:#DCECF5;}
	.st1{fill:#FFFFFF;}
</style>
<g>
	<g>
		<path class="st0" d="M0.5,8.5V3.3c0-1.6,1.2-2.8,2.7-2.8h23.1c1.1,0,2.2,0.5,2.8,1.4l4.6,6.5H0.5z"/>
		<path class="st1" d="M26.3,1c0.9,0,1.8,0.5,2.4,1.2L32.7,8H1V3.3C1,2,2,1,3.2,1H26.3 M26.3,0H3.2C1.4,0,0,1.5,0,3.3V8v1h1h31.7
			h1.9l-1.1-1.6l-4.1-5.8C28.7,0.6,27.5,0,26.3,0L26.3,0z"/>
	</g>
	<g>
		<rect x="0.5" y="8.4" class="st0" width="58.9" height="35.1"/>
		<path class="st1" d="M58.9,8.9V43H1V8.9H58.9 M59.9,7.9h-1H1H0v1V43v1h1h57.9h1v-1V8.9V7.9L59.9,7.9z"/>
	</g>
</g>
<g>
</g>
<g>
</g>
<g>
</g>
<g>
</g>
<g>
</g>
<g>
</g>
</svg>
