<?xml version="1.0" encoding="UTF-8"?>
<svg xmlns="http://www.w3.org/2000/svg" width="82.07" height="58.06" version="1.1" viewBox="0 0 82.07 58.06">
  <defs>
    <style>
      .cls-1 {
        fill: #e6f0fa;
      }

      .cls-2 {
        fill: #cce0f5;
      }
    </style>
  </defs>
  <!-- Generator: Adobe Illustrator 28.7.3, SVG Export Plug-In . SVG Version: 1.2.0 Build 164)  -->
  <g>
    <g id="Layer_1">
      <g>
        <path class="cls-1" d="M.5,11.19v-6.95C.5,2.18,2.06.5,3.98.5h31.95c1.48,0,2.87.71,3.71,1.9l6.19,8.79H.5Z"/>
        <path class="cls-2" d="M35.93,1c1.31,0,2.55.63,3.3,1.69l5.63,8H1v-6.45c0-1.79,1.33-3.24,2.98-3.24h31.95M35.93,0H3.98C1.78,0,0,1.9,0,4.24v7.45h46.78l-1.11-1.58-5.63-8c-.93-1.32-2.47-2.11-4.11-2.11h0Z"/>
      </g>
      <g>
        <path class="cls-1" d="M3,57.56c-1.38,0-2.5-1.15-2.5-2.57V12.13c0-1.42,1.12-2.57,2.5-2.57h76.07c1.38,0,2.5,1.15,2.5,2.57v42.87c0,1.42-1.12,2.57-2.5,2.57H3Z"/>
        <path class="cls-2" d="M79.07,10.06c1.1,0,2,.93,2,2.07v42.87c0,1.14-.9,2.07-2,2.07H3c-1.1,0-2-.93-2-2.07V12.13c0-1.14.9-2.07,2-2.07h76.07M79.07,9.06H3c-1.65,0-3,1.38-3,3.07v42.87c0,1.69,1.35,3.07,3,3.07h76.07c1.65,0,3-1.38,3-3.07V12.13c0-1.69-1.35-3.07-3-3.07h0Z"/>
      </g>
    </g>
  </g>
</svg>