<?xml version="1.0" encoding="utf-8"?><!DOCTYPE svg PUBLIC "-//W3C//DTD SVG 1.1//EN" "http://www.w3.org/Graphics/SVG/1.1/DTD/svg11.dtd"><svg viewBox="0 0 241.5 74" xmlns="http://www.w3.org/2000/svg" xmlns:xlink="http://www.w3.org/1999/xlink"><style>:root>svg{display:none}:root>svg:target{display:block}</style><svg viewBox="0 0 101 74" id="accordion-nav__template" xmlns="http://www.w3.org/2000/svg"><path fill="#CAEED8" stroke="#CAEED8" stroke-miterlimit="10" d="M.5.5h100v21H.5z"/><g fill="#38AB63"><path d="M15.107 9.933c0 .712-.264 1.256-.791 1.635-.528.378-1.278.568-2.253.568h-.802v2.547H10V7.875h2.221c.964 0 1.686.174 2.166.521.48.349.72.86.72 1.537zM11.261 11.2h.67c.647 0 1.122-.1 1.424-.298.302-.199.454-.509.454-.932 0-.391-.135-.683-.406-.875-.271-.192-.692-.289-1.266-.289h-.876V11.2zM21.433 14.684l-.771-1.891h-2.949l-.754 1.891h-1.33l2.886-6.837h1.372l2.886 6.837h-1.34zm-1.102-2.851l-.723-1.854c-.053-.124-.125-.32-.219-.586a12.548 12.548 0 01-.193-.587c-.095.382-.233.8-.417 1.253l-.696 1.774h2.248zM26.946 10.991h2.838v3.418c-.464.134-.91.228-1.337.284-.427.055-.889.083-1.385.083-1.167 0-2.068-.305-2.701-.915-.633-.61-.95-1.471-.95-2.583 0-1.095.357-1.954 1.071-2.574.714-.619 1.697-.929 2.949-.929.806 0 1.569.137 2.29.41l-.443.927A4.944 4.944 0 0027.4 8.73c-.823 0-1.474.229-1.952.685-.479.457-.718 1.081-.718 1.873 0 .832.215 1.464.646 1.897.431.434 1.051.65 1.86.65.408 0 .844-.045 1.308-.135v-1.756h-1.599v-.953zM36 14.684h-4.363V7.875H36v.941h-3.102v1.854h2.907v.931h-2.907v2.138H36v.945z"/></g><path fill="#FFF" d="M90.888 9.213l-5.197 5.198c-.067.067-.168.111-.257.111s-.189-.044-.257-.111L79.98 9.213c-.067-.067-.112-.167-.112-.256s.045-.189.112-.256l.558-.558a.36.36 0 01.257-.111c.089 0 .189.044.256.111l4.384 4.384 4.384-4.384a.38.38 0 01.256-.111c.09 0 .19.044.257.111l.556.557c.067.067.112.167.112.257s-.045.189-.112.256z"/><path fill="#CAEED8" stroke="#CAEED8" stroke-miterlimit="10" d="M.5 52.5h100v21H.5z"/><g fill="#38AB63"><path d="M15.107 62.007c0 .712-.264 1.257-.791 1.636-.528.379-1.278.567-2.253.567h-.802v2.548H10v-6.81h2.221c.964 0 1.686.174 2.166.522s.72.861.72 1.537zm-3.846 1.266h.67c.647 0 1.122-.099 1.424-.297.302-.2.454-.51.454-.932 0-.392-.136-.685-.406-.876-.27-.192-.692-.288-1.266-.288h-.876v2.393zM21.433 66.758l-.771-1.892h-2.949l-.754 1.892h-1.33l2.886-6.837h1.372l2.886 6.837h-1.34zm-1.102-2.851l-.723-1.854c-.053-.125-.125-.32-.219-.587s-.157-.462-.193-.586a9.393 9.393 0 01-.417 1.252l-.696 1.774h2.248zM26.946 63.064h2.838v3.419c-.464.133-.91.229-1.337.283-.428.057-.889.084-1.385.084-1.167 0-2.068-.306-2.701-.914-.633-.611-.95-1.472-.95-2.583 0-1.097.357-1.953 1.071-2.574.714-.618 1.697-.929 2.95-.929.805 0 1.568.138 2.29.41l-.443.927a4.944 4.944 0 00-1.878-.382c-.823 0-1.474.229-1.953.685-.478.457-.717 1.08-.717 1.872 0 .832.215 1.466.646 1.897.431.434 1.051.65 1.86.65.407 0 .844-.045 1.308-.135v-1.757h-1.599v-.953zM36 66.758h-4.363v-6.81H36v.941h-3.102v1.854h2.907v.932h-2.907v2.138H36v.945z"/></g><path fill="#FFF" d="M90.888 61.287l-5.197 5.198c-.067.066-.168.111-.257.111s-.189-.045-.257-.111l-5.197-5.198a.384.384 0 01-.112-.257c0-.089.045-.189.112-.256l.558-.559a.365.365 0 01.257-.111c.089 0 .189.045.256.111l4.384 4.385 4.384-4.385a.385.385 0 01.256-.111c.09 0 .19.045.257.111l.558.559c.065.067.11.167.11.256 0 .09-.045.19-.112.257z"/><path fill="#CAEED8" stroke="#CAEED8" stroke-miterlimit="10" d="M.5 26.5h100v21H.5z"/><g fill="#38AB63"><path d="M15.107 35.896c0 .711-.264 1.256-.791 1.635-.528.379-1.278.568-2.253.568h-.802v2.547H10v-6.809h2.221c.964 0 1.686.173 2.166.521.48.349.72.861.72 1.538zm-3.846 1.267h.67c.647 0 1.122-.099 1.424-.298.302-.199.454-.509.454-.932 0-.391-.136-.683-.406-.875-.27-.193-.692-.289-1.266-.289h-.876v2.394zM21.433 40.646l-.771-1.891h-2.949l-.754 1.891h-1.33l2.886-6.837h1.372l2.886 6.837h-1.34zm-1.102-2.851l-.723-1.853c-.053-.125-.125-.32-.219-.587a13.021 13.021 0 01-.193-.586c-.095.382-.233.8-.417 1.253l-.696 1.774h2.248zM26.946 36.953h2.838v3.418c-.464.133-.91.229-1.337.284-.428.056-.889.084-1.385.084-1.167 0-2.068-.305-2.701-.915-.633-.611-.95-1.472-.95-2.583 0-1.096.357-1.954 1.071-2.573s1.697-.929 2.95-.929c.805 0 1.568.136 2.29.41l-.443.927a4.944 4.944 0 00-1.878-.382c-.823 0-1.474.229-1.953.685-.478.457-.717 1.08-.717 1.872 0 .832.215 1.465.646 1.897.431.434 1.051.65 1.86.65.407 0 .844-.044 1.308-.135v-1.756h-1.599v-.954zM36 40.646h-4.363v-6.809H36v.94h-3.102v1.854h2.907v.931h-2.907V39.7H36v.946z"/></g><path fill="#FFF" d="M90.888 35.175l-5.197 5.199c-.067.066-.168.111-.257.111s-.189-.045-.257-.111l-5.197-5.199c-.067-.067-.112-.167-.112-.256s.045-.189.112-.256l.558-.558a.36.36 0 01.257-.111c.089 0 .189.044.256.111l4.384 4.385 4.384-4.385a.38.38 0 01.256-.111c.09 0 .19.044.257.111l.558.558c.065.066.11.167.11.256s-.045.189-.112.256z"/></svg><svg viewBox="0 0 149.818 56.14" id="account-activation__template" xmlns="http://www.w3.org/2000/svg"><g fill="#38AB63"><path d="M3.637 51.373l2.476-4.641h1.168l-3.098 5.682v3.599H3.091v-3.548L0 46.732h1.181l2.456 4.641zM14.403 52.528c0 1.134-.286 2.021-.857 2.656-.571.637-1.36.955-2.368.955-.622 0-1.174-.146-1.657-.438-.482-.293-.855-.711-1.117-1.257s-.394-1.186-.394-1.917c0-1.134.284-2.018.851-2.649.567-.633 1.354-.949 2.361-.949.973 0 1.747.323 2.32.971.574.648.861 1.524.861 2.628zm-5.3 0c0 .889.178 1.565.533 2.032.355.464.878.696 1.568.696s1.213-.231 1.571-.694c.357-.463.536-1.141.536-2.034 0-.884-.179-1.556-.536-2.015-.358-.46-.886-.689-1.584-.689-.69 0-1.21.227-1.562.68-.351.452-.526 1.127-.526 2.024zM17.24 49.057v4.513c0 .567.129.991.387 1.27s.662.418 1.212.418c.728 0 1.26-.198 1.597-.596.336-.397.504-1.048.504-1.948v-3.656h1.054v6.956h-.87l-.152-.934h-.057a2.093 2.093 0 01-.898.787c-.383.183-.82.273-1.311.273-.846 0-1.48-.201-1.901-.604-.421-.401-.632-1.044-.632-1.929v-4.551h1.067zM27.403 48.93c.309 0 .586.025.832.076l-.146.977a3.624 3.624 0 00-.762-.095c-.563 0-1.044.229-1.444.686-.399.457-.6 1.026-.6 1.708v3.731h-1.054v-6.956h.87l.121 1.288h.051c.258-.452.569-.802.933-1.048a2.098 2.098 0 011.199-.367zM37.191 56.013l-.209-.99h-.051c-.347.436-.693.73-1.038.886-.345.154-.776.231-1.292.231-.69 0-1.23-.178-1.622-.533-.391-.355-.587-.861-.587-1.517 0-1.404 1.124-2.141 3.371-2.209l1.181-.038v-.432c0-.546-.118-.948-.352-1.21-.235-.26-.611-.39-1.127-.39-.58 0-1.236.178-1.968.533l-.324-.806a4.929 4.929 0 011.126-.438 4.877 4.877 0 011.229-.159c.83 0 1.444.185 1.844.553.4.368.6.959.6 1.771v4.747h-.781zm-2.38-.742c.656 0 1.171-.18 1.545-.54.375-.359.562-.863.562-1.51v-.629l-1.054.045c-.838.029-1.442.159-1.812.391-.371.23-.556.588-.556 1.075 0 .382.115.67.346.869.231.199.554.299.969.299zM42.923 56.14c-1.007 0-1.787-.311-2.339-.93-.553-.62-.829-1.497-.829-2.631 0-1.163.28-2.063.841-2.698.561-.635 1.359-.951 2.396-.951.334 0 .668.035 1.003.107s.597.156.787.254l-.324.895a4.834 4.834 0 00-.762-.23 3.31 3.31 0 00-.73-.093c-1.414 0-2.12.901-2.12 2.704 0 .855.172 1.511.517 1.969.345.456.856.685 1.533.685.58 0 1.174-.125 1.784-.375v.934c-.464.239-1.051.36-1.757.36zM49.112 56.14c-1.007 0-1.787-.311-2.339-.93-.553-.62-.829-1.497-.829-2.631 0-1.163.28-2.063.841-2.698.561-.635 1.359-.951 2.396-.951.334 0 .668.035 1.003.107s.597.156.787.254l-.324.895a4.834 4.834 0 00-.762-.23 3.31 3.31 0 00-.73-.093c-1.414 0-2.12.901-2.12 2.704 0 .855.172 1.511.517 1.969.345.456.856.685 1.533.685.58 0 1.174-.125 1.784-.375v.934c-.464.239-1.051.36-1.757.36zM58.525 52.528c0 1.134-.286 2.021-.856 2.656-.572.637-1.361.955-2.368.955-.621 0-1.173-.146-1.656-.438a2.904 2.904 0 01-1.118-1.257c-.262-.546-.393-1.186-.393-1.917 0-1.134.283-2.018.851-2.649.566-.633 1.354-.949 2.361-.949.973 0 1.746.323 2.319.971s.86 1.524.86 2.628zm-5.3 0c0 .889.178 1.565.533 2.032.355.464.878.696 1.568.696s1.214-.231 1.571-.694.536-1.141.536-2.034c0-.884-.179-1.556-.536-2.015-.357-.46-.886-.689-1.583-.689-.689 0-1.21.227-1.562.68-.352.452-.527 1.127-.527 2.024zM61.363 49.057v4.513c0 .567.129.991.387 1.27.259.279.663.418 1.213.418.728 0 1.26-.198 1.597-.596.336-.397.505-1.048.505-1.948v-3.656h1.053v6.956h-.869l-.152-.934h-.057a2.104 2.104 0 01-.898.787c-.383.183-.82.273-1.311.273-.847 0-1.48-.201-1.901-.604-.421-.401-.632-1.044-.632-1.929v-4.551h1.065zM73.112 56.013v-4.5c0-.567-.129-.99-.388-1.27-.258-.279-.662-.419-1.212-.419-.728 0-1.261.197-1.6.59-.339.395-.508 1.043-.508 1.949v3.649H68.35v-6.956h.857l.171.951h.051c.216-.342.519-.607.907-.797.39-.188.823-.281 1.302-.281.838 0 1.469.201 1.892.605s.635 1.051.635 1.939v4.538h-1.053zM78.577 55.271c.187 0 .366-.014.54-.042.173-.027.311-.056.412-.085v.806a1.878 1.878 0 01-.505.137 3.784 3.784 0 01-.6.054c-1.346 0-2.019-.709-2.019-2.126v-4.139h-.995v-.508l.996-.438.444-1.486h.609v1.613h2.019v.818h-2.019v4.094c0 .42.1.741.298.965.2.223.473.337.82.337zM84.208 47.171c0-.241.06-.418.178-.53a.625.625 0 01.444-.168.62.62 0 01.438.172c.123.113.185.289.185.526s-.062.413-.185.53a.615.615 0 01-.438.174.608.608 0 01-.444-.174c-.119-.117-.178-.293-.178-.53zm1.142 8.842h-1.054v-6.956h1.054v6.956zM92.073 54.115c0 .647-.242 1.146-.725 1.497-.482.352-1.159.527-2.031.527-.922 0-1.642-.146-2.158-.438v-.979c.335.17.693.303 1.076.4s.752.146 1.107.146c.551 0 .974-.088 1.27-.264.297-.176.445-.442.445-.803 0-.271-.118-.503-.353-.694-.235-.193-.693-.421-1.374-.684-.648-.24-1.108-.451-1.381-.631a1.879 1.879 0 01-.609-.613 1.59 1.59 0 01-.2-.818c0-.566.23-1.015.692-1.342.461-.328 1.094-.492 1.897-.492.749 0 1.481.152 2.196.457l-.375.856c-.697-.288-1.33-.432-1.897-.432-.499 0-.876.078-1.13.235-.254.156-.381.372-.381.646a.79.79 0 00.143.477c.096.131.249.256.461.375.211.118.617.289 1.219.514.824.301 1.382.604 1.672.908s.436.691.436 1.152zM101.442 56.013l-.21-.99h-.051c-.347.436-.692.73-1.037.886-.345.154-.775.231-1.292.231-.689 0-1.23-.178-1.622-.533s-.587-.861-.587-1.517c0-1.404 1.124-2.141 3.37-2.209l1.182-.038v-.432c0-.546-.118-.948-.353-1.21-.235-.26-.61-.39-1.127-.39-.58 0-1.235.178-1.968.533l-.324-.806c.344-.187.719-.332 1.127-.438s.818-.159 1.229-.159c.829 0 1.444.185 1.844.553.4.368.6.959.6 1.771v4.747h-.781zm-2.38-.742c.655 0 1.171-.18 1.545-.54.375-.359.563-.863.563-1.51v-.629l-1.055.045c-.838.029-1.441.159-1.812.391-.37.23-.556.588-.556 1.075 0 .382.115.67.346.869s.554.299.969.299zM107.173 56.14c-1.007 0-1.787-.311-2.339-.93-.553-.62-.828-1.497-.828-2.631 0-1.163.28-2.063.841-2.698s1.359-.951 2.396-.951c.335 0 .669.035 1.004.107.334.072.596.156.787.254l-.324.895a4.77 4.77 0 00-.762-.23 3.31 3.31 0 00-.73-.093c-1.413 0-2.119.901-2.119 2.704 0 .855.172 1.511.517 1.969.345.456.856.685 1.533.685a4.68 4.68 0 001.784-.375v.934c-.467.239-1.053.36-1.76.36zM112.829 55.271c.187 0 .366-.014.54-.042.173-.027.311-.056.412-.085v.806a1.878 1.878 0 01-.505.137 3.784 3.784 0 01-.6.054c-1.346 0-2.019-.709-2.019-2.126v-4.139h-.996v-.508l.996-.438.444-1.486h.609v1.613h2.019v.818h-2.019v4.094c0 .42.1.741.298.965.2.223.474.337.821.337zM115.083 47.171c0-.241.06-.418.178-.53a.625.625 0 01.444-.168.62.62 0 01.438.172c.123.113.185.289.185.526s-.062.413-.185.53a.615.615 0 01-.438.174.608.608 0 01-.444-.174c-.119-.117-.178-.293-.178-.53zm1.142 8.842h-1.054v-6.956h1.054v6.956zM119.983 56.013l-2.641-6.956h1.13l1.498 4.125c.339.965.537 1.591.597 1.879h.051c.047-.224.193-.688.441-1.393.247-.705.803-2.242 1.666-4.611h1.13l-2.641 6.956h-1.231zM129.25 56.013l-.21-.99h-.051c-.347.436-.692.73-1.037.886-.345.154-.775.231-1.292.231-.689 0-1.23-.178-1.622-.533s-.587-.861-.587-1.517c0-1.404 1.124-2.141 3.37-2.209l1.182-.038v-.432c0-.546-.118-.948-.353-1.21-.235-.26-.61-.39-1.127-.39-.58 0-1.235.178-1.968.533l-.324-.806c.344-.187.719-.332 1.127-.438s.818-.159 1.229-.159c.829 0 1.444.185 1.844.553.4.368.6.959.6 1.771v4.747h-.781zm-2.379-.742c.655 0 1.171-.18 1.545-.54.375-.359.563-.863.563-1.51v-.629l-1.055.045c-.838.029-1.441.159-1.812.391-.37.23-.556.588-.556 1.075 0 .382.115.67.346.869s.554.299.969.299zM134.45 55.271c.187 0 .366-.014.54-.042.173-.027.311-.056.412-.085v.806a1.878 1.878 0 01-.505.137 3.784 3.784 0 01-.6.054c-1.346 0-2.019-.709-2.019-2.126v-4.139h-.996v-.508l.996-.438.444-1.486h.609v1.613h2.019v.818h-2.019v4.094c0 .42.1.741.298.965.201.223.474.337.821.337zM139.731 56.14c-1.029 0-1.84-.313-2.435-.939-.595-.626-.892-1.495-.892-2.608 0-1.121.275-2.012.828-2.672.552-.66 1.294-.99 2.225-.99.872 0 1.562.286 2.069.859.508.574.762 1.33.762 2.27v.666h-4.792c.021.817.227 1.438.618 1.861.392.422.942.634 1.653.634.75 0 1.49-.157 2.223-.471v.939a5.683 5.683 0 01-1.058.347 6.056 6.056 0 01-1.201.104zm-.286-6.328c-.559 0-1.004.183-1.336.546s-.528.867-.587 1.511h3.637c0-.665-.148-1.173-.444-1.526s-.72-.531-1.27-.531zM148.821 55.079h-.058c-.486.707-1.214 1.061-2.184 1.061-.909 0-1.617-.311-2.123-.934-.506-.62-.758-1.505-.758-2.652s.254-2.038.762-2.673 1.214-.951 2.119-.951c.944 0 1.668.342 2.172 1.027h.082l-.045-.501-.025-.489v-2.83h1.055v9.876h-.857l-.14-.934zm-2.108.178c.72 0 1.241-.195 1.564-.587.324-.391.485-1.022.485-1.895v-.222c0-.985-.163-1.689-.491-2.11-.328-.422-.852-.632-1.571-.632-.618 0-1.091.24-1.419.72-.328.48-.491 1.159-.491 2.035 0 .889.162 1.56.488 2.012s.805.679 1.435.679z"/></g><circle fill="#CAEED8" cx="74.721" cy="14.517" r="14.008"/><path fill="#38AB63" d="M81.858 11.698l-6.948 6.945-1.304 1.306a.926.926 0 01-1.303 0l-1.307-1.306-3.475-3.473a.93.93 0 010-1.306l1.307-1.305a.938.938 0 01.649-.269.93.93 0 01.654.269l2.821 2.833 6.295-6.307a.934.934 0 01.653-.269c.239 0 .478.096.652.269l1.305 1.306a.927.927 0 01.001 1.307z"/></svg><svg viewBox="0 0 14 13" id="button" xmlns="http://www.w3.org/2000/svg"><path fill="currentColor" d="M0 0h14v13H0z"/><path fill="#FFF" d="M4.011 2.075h2.852c1.299 0 2.243.167 2.831.502.586.333.881.865.881 1.594 0 .495-.129.901-.387 1.217a1.567 1.567 0 01-1.024.573v.057c.58.116.998.336 1.256.656.258.321.385.747.385 1.279 0 .756-.301 1.345-.904 1.768-.605.423-1.425.635-2.461.635H4.011V2.075zm1.943 3.279h1.128c.526 0 .908-.073 1.144-.221.237-.146.354-.39.354-.73 0-.316-.129-.544-.385-.683-.257-.138-.664-.207-1.22-.207H5.954v1.841zm0 1.394v2.156H7.22c.535 0 .93-.092 1.184-.276.256-.184.383-.469.383-.85 0-.687-.543-1.03-1.629-1.03H5.954z"/></svg><svg viewBox="0 0 14 13" id="captcha" xmlns="http://www.w3.org/2000/svg"><path fill="currentColor" d="M0 0h14v13H0z"/><path fill="#FFF" d="M11.401 7.018c0 2.82-3.945 4.602-4.112 4.676a.403.403 0 01-.349 0c-.167-.074-4.113-1.855-4.113-4.676V1.873c0-.234.194-.429.429-.429h7.717c.234 0 .428.194.428.429v5.145zM10.116 2.73H7.114v7.616c.342-.18.892-.495 1.428-.917.717-.563 1.574-1.44 1.574-2.411V2.73z"/></svg><svg viewBox="0 0 161 74" id="change-pass__template" xmlns="http://www.w3.org/2000/svg"><path fill="none" stroke="#CAEED8" stroke-miterlimit="10" d="M.5.5h160v20H.5zM.5 26.5h160v20H.5z"/><path fill="#CAEED8" stroke="#CAEED8" stroke-miterlimit="10" d="M.5 53.5h160v20H.5z"/><g fill="#9BCEAD"><path d="M15.745 10.029c0 1.046-.261 1.859-.785 2.439-.522.58-1.263.87-2.221.87-.97 0-1.715-.288-2.235-.863-.52-.576-.78-1.394-.78-2.455s.261-1.875.785-2.443c.522-.568 1.269-.853 2.239-.853.955 0 1.693.289 2.215.866s.782 1.39.782 2.439zm-4.905 0c0 .791.16 1.391.479 1.799.319.409.792.613 1.419.613.624 0 1.095-.202 1.413-.606s.477-1.006.477-1.806c0-.788-.158-1.386-.472-1.793-.315-.407-.785-.611-1.409-.611-.63 0-1.105.204-1.426.611-.32.407-.481 1.005-.481 1.793zM18.047 13.25h-1.033V6.412h1.033v6.838zM21.163 13.338c-.606 0-1.08-.22-1.419-.659s-.51-1.056-.51-1.85c0-.797.172-1.417.517-1.861.344-.444.821-.666 1.43-.666.639 0 1.125.236 1.459.708h.053a6.172 6.172 0 01-.075-.826V6.412h1.037v6.838h-.809l-.18-.637h-.048c-.331.483-.816.725-1.455.725zm.277-.835c.425 0 .734-.119.927-.358.193-.238.293-.626.299-1.162v-.145c0-.612-.1-1.047-.299-1.305s-.511-.387-.936-.387a.95.95 0 00-.839.441c-.196.295-.294.714-.294 1.259 0 .539.095.95.286 1.233s.475.424.856.424zM29.935 13.338c-.615 0-1.093-.221-1.433-.664h-.062c.041.41.062.659.062.747v1.991h-1.033V8.39h.835c.023.091.072.308.145.65h.053c.322-.492.806-.738 1.45-.738.606 0 1.079.22 1.417.659.338.439.507 1.056.507 1.85s-.172 1.414-.516 1.859c-.344.445-.819.668-1.425.668zm-.251-4.192c-.41 0-.71.12-.898.36-.189.24-.284.624-.284 1.151v.154c0 .592.094 1.021.281 1.286s.494.397.918.397c.357 0 .633-.146.826-.439s.29-.71.29-1.252c0-.545-.096-.957-.288-1.237s-.473-.42-.845-.42zM36.118 13.25l-.207-.677h-.035c-.234.296-.47.498-.708.604-.237.106-.542.16-.914.16-.478 0-.851-.129-1.118-.387-.269-.258-.402-.623-.402-1.094 0-.501.186-.879.558-1.134s.939-.394 1.701-.417l.839-.026v-.259c0-.311-.073-.542-.217-.697-.146-.153-.37-.23-.675-.23-.249 0-.488.037-.716.11s-.448.16-.659.259l-.335-.738a4.022 4.022 0 011.754-.421c.618 0 1.084.135 1.399.404s.473.693.473 1.27v3.274h-.738zm-1.538-.703c.375 0 .676-.104.903-.314.227-.209.34-.503.34-.881v-.422l-.624.026c-.486.018-.84.099-1.061.244-.222.145-.332.367-.332.666 0 .217.064.384.193.503.129.118.323.178.581.178zM41.563 11.866c0 .475-.173.839-.519 1.092s-.841.38-1.485.38c-.647 0-1.167-.098-1.56-.294v-.892c.571.264 1.103.396 1.595.396.636 0 .954-.192.954-.576 0-.123-.035-.226-.105-.308s-.186-.167-.347-.255-.385-.188-.672-.299c-.56-.217-.938-.434-1.136-.65-.198-.217-.297-.498-.297-.844 0-.416.167-.739.503-.969.335-.229.792-.345 1.369-.345.571 0 1.112.116 1.622.347l-.334.778c-.524-.217-.965-.325-1.323-.325-.545 0-.817.155-.817.466 0 .152.071.281.213.387s.452.25.93.435c.401.155.693.297.875.426s.316.278.404.446.13.369.13.604zM45.944 11.866c0 .475-.174.839-.52 1.092s-.841.38-1.484.38c-.648 0-1.168-.098-1.561-.294v-.892c.571.264 1.104.396 1.596.396.635 0 .953-.192.953-.576 0-.123-.035-.226-.105-.308s-.187-.167-.348-.255-.385-.188-.672-.299c-.56-.217-.938-.434-1.136-.65-.198-.217-.297-.498-.297-.844 0-.416.168-.739.503-.969.336-.229.792-.345 1.369-.345.571 0 1.111.116 1.621.347l-.333.778c-.524-.217-.965-.325-1.322-.325-.545 0-.817.155-.817.466 0 .152.071.281.213.387.143.105.452.25.93.435.401.155.692.297.874.426s.316.278.404.446.132.369.132.604zM51.046 13.25l-.629-2.268c-.076-.24-.214-.798-.413-1.674h-.04c-.17.791-.305 1.352-.404 1.683l-.646 2.259h-1.143l-1.362-4.86h1.055l.619 2.395c.141.592.24 1.099.299 1.521h.027a8.77 8.77 0 01.134-.736c.06-.277.112-.484.155-.622l.738-2.558h1.135l.716 2.558c.044.144.099.363.165.659.065.296.104.526.116.69h.035c.044-.36.146-.864.308-1.512l.629-2.395h1.037l-1.371 4.86h-1.16zM58.723 10.811c0 .794-.203 1.414-.61 1.859s-.975.668-1.7.668c-.455 0-.856-.103-1.205-.308s-.616-.5-.804-.883-.281-.829-.281-1.336c0-.788.202-1.403.606-1.846s.974-.664 1.709-.664c.703 0 1.26.227 1.67.679.41.454.615 1.063.615 1.831zm-3.537 0c0 1.122.414 1.683 1.244 1.683.819 0 1.23-.561 1.23-1.683 0-1.11-.414-1.666-1.24-1.666-.434 0-.747.144-.942.431-.195.287-.292.699-.292 1.235zM62.374 8.302c.208 0 .38.015.515.044l-.101.962a1.964 1.964 0 00-.457-.053c-.414 0-.748.135-1.005.404-.256.27-.384.62-.384 1.05v2.54h-1.033V8.39h.809l.137.857h.053c.16-.29.371-.52.63-.69.259-.17.537-.255.836-.255zM65.429 13.338c-.605 0-1.079-.22-1.419-.659s-.51-1.056-.51-1.85c0-.797.172-1.417.517-1.861.344-.444.82-.666 1.43-.666.639 0 1.125.236 1.459.708h.053a6.14 6.14 0 01-.074-.826V6.412h1.037v6.838h-.809l-.18-.637h-.049c-.331.483-.817.725-1.455.725zm.277-.835c.425 0 .734-.119.928-.358.193-.238.292-.626.299-1.162v-.145c0-.612-.101-1.047-.299-1.305-.2-.258-.512-.387-.937-.387a.948.948 0 00-.839.441c-.197.295-.295.714-.295 1.259 0 .539.095.95.285 1.233s.477.424.858.424z"/></g><g fill="#9BCEAD"><path d="M15.393 39.25h-1.288l-3.16-5.12h-.035l.022.286c.041.545.062 1.043.062 1.494v3.34h-.954v-6.425h1.274l3.151 5.093h.026c-.006-.067-.018-.313-.035-.736s-.026-.754-.026-.991v-3.366h.962v6.425zM19.102 39.338c-.756 0-1.347-.221-1.773-.661-.427-.44-.64-1.048-.64-1.822 0-.794.198-1.418.593-1.872s.939-.681 1.63-.681c.642 0 1.148.195 1.521.584s.558.926.558 1.608v.558h-3.239c.015.472.142.834.382 1.088.24.254.579.38 1.015.38.287 0 .554-.026.802-.081s.514-.145.798-.271v.839a3.189 3.189 0 01-.765.256c-.256.05-.551.075-.882.075zm-.189-4.254c-.328 0-.591.104-.789.312-.197.208-.315.511-.354.91h2.206c-.006-.401-.103-.705-.29-.912-.187-.206-.445-.31-.773-.31zM26.151 39.25l-.628-2.268c-.076-.24-.214-.798-.413-1.674h-.04c-.17.791-.305 1.352-.404 1.683l-.646 2.259h-1.143l-1.362-4.86h1.055l.62 2.395c.141.592.24 1.099.299 1.52h.026a9.65 9.65 0 01.134-.735c.06-.277.112-.484.156-.622l.738-2.558h1.134l.716 2.558c.044.144.099.363.165.659.065.296.104.526.116.69h.035c.044-.361.146-.865.308-1.512l.628-2.395h1.037l-1.371 4.86h-1.16zM34.32 39.338c-.615 0-1.093-.221-1.433-.664h-.062c.041.41.062.66.062.748v1.99h-1.033V34.39h.835c.023.091.072.308.145.65h.053c.322-.492.806-.738 1.45-.738.606 0 1.079.22 1.417.659.338.439.507 1.056.507 1.85s-.172 1.414-.516 1.859c-.343.445-.818.668-1.425.668zm-.25-4.192c-.41 0-.71.12-.898.36-.189.24-.284.624-.284 1.151v.154c0 .592.094 1.021.281 1.286.188.265.494.397.918.397.357 0 .633-.146.826-.439s.29-.71.29-1.252c0-.545-.096-.957-.288-1.237s-.473-.42-.845-.42zM40.503 39.25l-.207-.677h-.035c-.234.296-.47.497-.708.604-.237.106-.542.16-.914.16-.478 0-.851-.129-1.118-.387-.269-.258-.402-.623-.402-1.094 0-.501.186-.879.558-1.134s.939-.394 1.701-.417l.839-.026v-.259c0-.311-.073-.542-.217-.697-.146-.153-.37-.23-.675-.23-.249 0-.488.037-.716.11s-.448.16-.659.259l-.334-.738a4.022 4.022 0 011.754-.421c.618 0 1.084.135 1.399.404s.473.693.473 1.27v3.274h-.739zm-1.538-.703c.375 0 .676-.104.903-.314.227-.209.34-.503.34-.881v-.422l-.624.026c-.486.018-.84.099-1.061.244-.222.145-.332.367-.332.666 0 .216.064.384.193.503.13.118.324.178.581.178zM45.948 37.866c0 .474-.174.839-.52 1.092s-.841.38-1.484.38c-.648 0-1.168-.098-1.561-.295v-.892c.571.264 1.104.396 1.596.396.635 0 .953-.191.953-.576 0-.123-.035-.226-.105-.308s-.187-.167-.348-.255-.385-.188-.672-.299c-.56-.217-.938-.434-1.136-.65-.198-.217-.297-.498-.297-.844 0-.416.168-.739.503-.969.336-.229.792-.345 1.369-.345.571 0 1.111.116 1.621.347l-.334.778c-.524-.217-.965-.325-1.322-.325-.545 0-.817.155-.817.466 0 .152.071.281.213.387.143.105.452.25.93.435.401.155.692.297.874.426s.316.278.404.446.133.37.133.605zM50.33 37.866c0 .474-.174.839-.52 1.092s-.841.38-1.484.38c-.648 0-1.168-.098-1.561-.295v-.892c.571.264 1.104.396 1.596.396.635 0 .953-.191.953-.576 0-.123-.035-.226-.105-.308s-.187-.167-.348-.255-.385-.188-.672-.299c-.56-.217-.938-.434-1.136-.65-.198-.217-.297-.498-.297-.844 0-.416.168-.739.503-.969.336-.229.792-.345 1.369-.345.571 0 1.111.116 1.621.347l-.334.778c-.524-.217-.965-.325-1.322-.325-.545 0-.817.155-.817.466 0 .152.071.281.213.387.143.105.452.25.93.435.401.155.692.297.874.426s.316.278.404.446.133.37.133.605zM55.433 39.25l-.629-2.268c-.076-.24-.214-.798-.413-1.674h-.04c-.17.791-.305 1.352-.404 1.683l-.646 2.259h-1.143l-1.362-4.86h1.055l.619 2.395c.141.592.24 1.099.299 1.52h.027c.028-.213.073-.459.134-.735.06-.277.112-.484.155-.622l.738-2.558h1.135l.716 2.558c.044.144.099.363.165.659.065.296.104.526.116.69h.035c.044-.361.146-.865.308-1.512l.629-2.395h1.037l-1.371 4.86h-1.16zM63.108 36.811c0 .794-.203 1.414-.61 1.859s-.975.668-1.7.668c-.455 0-.856-.103-1.205-.308s-.616-.499-.804-.884c-.188-.383-.281-.829-.281-1.335 0-.788.202-1.403.606-1.846s.974-.664 1.709-.664c.703 0 1.26.227 1.67.679.41.454.615 1.063.615 1.831zm-3.537 0c0 1.122.414 1.683 1.244 1.683.819 0 1.23-.561 1.23-1.683 0-1.11-.414-1.666-1.24-1.666-.434 0-.747.144-.942.431-.194.287-.292.699-.292 1.235zM66.761 34.302c.208 0 .38.015.515.044l-.101.962a1.964 1.964 0 00-.457-.053c-.414 0-.748.135-1.005.404-.256.27-.384.62-.384 1.05v2.54h-1.033v-4.86h.809l.137.857h.053c.16-.29.371-.52.63-.69a1.5 1.5 0 01.836-.254zM69.814 39.338c-.605 0-1.079-.22-1.419-.659s-.51-1.056-.51-1.85c0-.797.172-1.417.517-1.861.344-.444.82-.666 1.43-.666.639 0 1.125.236 1.459.708h.053a6.14 6.14 0 01-.074-.826v-1.771h1.037v6.838h-.809l-.18-.637h-.048c-.332.482-.817.724-1.456.724zm.278-.835c.425 0 .734-.119.928-.358.193-.238.292-.626.299-1.162v-.145c0-.612-.101-1.047-.299-1.305-.2-.258-.512-.387-.937-.387a.948.948 0 00-.839.441c-.197.295-.295.714-.295 1.259 0 .539.095.95.285 1.233.191.282.477.424.858.424z"/></g><g fill="#38AB63"><path d="M61.935 60.011c-.738 0-1.318.262-1.74.784s-.634 1.244-.634 2.164c0 .964.203 1.692.61 2.187.406.494.994.741 1.764.741.333 0 .655-.033.967-.1s.636-.151.972-.255v1.101c-.616.233-1.314.35-2.095.35-1.149 0-2.032-.349-2.648-1.045s-.924-1.692-.924-2.988c0-.816.149-1.531.449-2.144.299-.612.731-1.081 1.297-1.407s1.23-.488 1.993-.488c.802 0 1.543.168 2.224.504l-.462 1.069a6.987 6.987 0 00-.84-.33 3.044 3.044 0 00-.933-.143zM71.758 66.875h-1.289v-3.539h-3.62v3.539h-1.284v-7.853h1.284v3.212h3.62v-3.212h1.289v7.853zM78.698 66.875l-.784-2.181h-3.002l-.768 2.181H72.79l2.938-7.885h1.396l2.938 7.885h-1.364zm-1.123-3.287l-.736-2.138a13.265 13.265 0 01-.223-.677 13.298 13.298 0 01-.196-.677 12.1 12.1 0 01-.424 1.444l-.709 2.047h2.288zM87.641 66.875h-1.574l-3.861-6.258h-.043l.027.35c.05.666.074 1.274.074 1.826v4.082h-1.165v-7.853h1.558l3.852 6.226h.031c-.007-.083-.021-.383-.043-.9s-.031-.921-.031-1.211v-4.114h1.176v7.852zM92.926 62.615h2.89v3.943a8.427 8.427 0 01-1.362.327 9.676 9.676 0 01-1.409.097c-1.188 0-2.105-.352-2.75-1.056-.645-.703-.967-1.696-.967-2.978 0-1.265.363-2.254 1.091-2.968.727-.715 1.727-1.071 3.002-1.071.82 0 1.598.157 2.331.473l-.452 1.069a4.53 4.53 0 00-1.912-.44c-.838 0-1.501.263-1.987.79-.486.525-.73 1.246-.73 2.158 0 .96.219 1.689.658 2.189.438.499 1.069.749 1.893.749a6.27 6.27 0 001.332-.155v-2.025h-1.627v-1.102zM102.143 66.875h-4.441v-7.853h4.441v1.085h-3.158v2.138h2.959v1.074h-2.959v2.466h3.158v1.09z"/></g></svg><svg viewBox="0 0 14 13" id="checkboxes" xmlns="http://www.w3.org/2000/svg"><path fill="currentColor" d="M0 0h14v13H0z"/><path fill="#FFF" d="M11.042 9.195a1.93 1.93 0 01-1.929 1.93H3.54a1.93 1.93 0 01-1.929-1.93V3.623A1.93 1.93 0 013.54 1.694h5.573c.268 0 .536.054.784.167a.22.22 0 01.12.154.207.207 0 01-.061.194l-.327.329a.232.232 0 01-.154.067.187.187 0 01-.06-.014 1.16 1.16 0 00-.302-.04H3.54c-.589 0-1.072.482-1.072 1.072v5.573c0 .59.482 1.072 1.072 1.072h5.573c.59 0 1.071-.482 1.071-1.072V7.494c0-.053.021-.107.061-.146l.429-.43a.213.213 0 01.154-.066.17.17 0 01.08.02.209.209 0 01.134.194v2.129zm-3.905.047a.532.532 0 01-.763 0l-2.881-2.88a.535.535 0 010-.764l.737-.736a.534.534 0 01.763 0l1.762 1.761L11.09 2.29a.534.534 0 01.763 0l.737.737a.533.533 0 010 .764L7.137 9.242z"/></svg><svg viewBox="0 0 14 13" id="code" xmlns="http://www.w3.org/2000/svg"><path fill="currentColor" d="M0 0h14v13H0z"/><text transform="translate(1.289 10.226)" fill="#FFF" font-family="'FontAwesome'" font-size="11"></text></svg><svg viewBox="0 0 16 15" id="content-icon" xmlns="http://www.w3.org/2000/svg"><path fill="currentColor" d="M0 0h16v15H0z"/><path fill="#FFF" d="M9.404 12.194H6.596V4.783H3V3.194h10v1.588H9.404v7.412z"/></svg><svg viewBox="0 0 16 16" id="content-list" xmlns="http://www.w3.org/2000/svg"><path fill="currentColor" d="M4 5H1V2h3v3zm0 5H1V7h3v3zm0 5H1v-3h3v3zm11 0H6v-3h9v3zm0-5H6V7h9v3zm0-5H6V2h9v3z"/></svg><svg viewBox="0 0 16 16" id="cta" xmlns="http://www.w3.org/2000/svg"><path fill="currentColor" d="M1 2h14v13H1z"/><g fill="#FFF"><path d="M5.04 6.413c-.308 0-.547.186-.716.556-.169.37-.254.886-.254 1.55 0 1.379.323 2.066.97 2.066.271 0 .6-.108.985-.323v1.1a1.88 1.88 0 01-1.062.316c-.562 0-.992-.273-1.29-.819-.297-.546-.445-1.329-.445-2.349 0-.642.073-1.205.22-1.689.146-.483.356-.854.63-1.111.273-.259.594-.388.962-.388.375 0 .752.145 1.131.436l-.264 1.065a3.61 3.61 0 00-.437-.288.88.88 0 00-.43-.122zM8.337 11.593h-.819V6.502H6.469V5.411h2.917v1.091h-1.05v5.091zM12.345 11.593l-.279-1.471h-1.408l-.28 1.471h-.884l1.363-6.207h1.001l1.369 6.207h-.882zm-.476-2.572c-.257-1.333-.405-2.087-.437-2.262a6.77 6.77 0 01-.07-.415c-.058.361-.225 1.253-.5 2.676h1.007z"/></g></svg><svg viewBox="0 0 16 15" id="custom-widget-icon" xmlns="http://www.w3.org/2000/svg"><path fill="currentColor" d="M8 11H0V4h8v7zm8-4H9V6h7v1zm0 2H9V8h7v1zm0 2H9v-1h7v1zm-8 4H0v-1h8v1zm8-2H0v-1h16v1zm0-10H0V2h16v1zm0 2H9V4h7v1zm0-4H0V0h16v1z"/></svg><svg viewBox="0 0 14 13" id="dropdown" xmlns="http://www.w3.org/2000/svg"><path fill="currentColor" d="M0 0h14v13H0z"/><path fill="#FFF" d="M6 3h7v7H6z"/><path fill="currentColor" d="M12.168 5L9.486 8.636 6.813 5z"/><path fill="#FFF" d="M1 3h5v1H1zM1 9h5v1H1z"/></svg><svg viewBox="0 0 14 13" id="file-upload" xmlns="http://www.w3.org/2000/svg"><path fill="currentColor" d="M0 0h14v13H0z"/><path fill="#FFF" d="M7.194 1.359l2.904 3.299a.415.415 0 01.101.272c0 .213-.154.389-.341.389H8.32v2.714c0 .213-.154.389-.341.389H5.93c-.187 0-.342-.176-.342-.389V5.319H4.052c-.188 0-.342-.176-.342-.389 0-.103.037-.2.102-.272l2.902-3.299a.325.325 0 01.24-.114c.09 0 .176.043.24.114zm-2.551 9.874a1.93 1.93 0 01-1.93-1.93V7.161c0-.114.101-.216.215-.216.188 0 .643-.086.643.216v2.143c0 .59.482 1.072 1.072 1.072h4.715c.59 0 1.072-.482 1.072-1.072V7.376c0-.168-.033-.431.215-.431.188 0 .643-.086.643.216v2.143a1.93 1.93 0 01-1.93 1.93H4.643z"/></svg><svg viewBox="0 0 161 74" id="forgot-pass__template" xmlns="http://www.w3.org/2000/svg"><path fill="none" stroke="#CAEED8" stroke-miterlimit="10" d="M.5 26.5h160v20H.5z"/><path fill="#CAEED8" stroke="#CAEED8" stroke-miterlimit="10" d="M.5 53.5h160v20H.5z"/><g fill="#9BCEAD"><path d="M13.675 39.25h-3.634v-6.425h3.634v.888h-2.584v1.749h2.421v.879h-2.421v2.017h2.584v.892zM19.049 39.25h-1.037v-2.997c0-.372-.07-.649-.211-.833-.141-.183-.36-.274-.659-.274-.398 0-.691.13-.877.389-.186.26-.279.691-.279 1.294v2.421h-1.033v-4.86h.809l.145.637h.053c.135-.231.33-.41.586-.536s.539-.189.846-.189c.747 0 1.242.255 1.485.765h.07c.144-.24.346-.428.606-.563s.56-.202.896-.202c.58 0 1.002.146 1.268.439.265.293.397.74.397 1.34v3.168h-1.033v-2.997c0-.372-.071-.649-.213-.833-.142-.183-.362-.274-.661-.274-.401 0-.695.125-.881.376-.187.25-.279.635-.279 1.153v2.576zM26.599 39.25l-.207-.677h-.035c-.234.296-.47.497-.708.604-.237.106-.542.16-.914.16-.478 0-.851-.129-1.118-.387-.269-.258-.402-.623-.402-1.094 0-.501.186-.879.558-1.134s.939-.394 1.701-.417l.839-.026v-.259c0-.311-.073-.542-.217-.697-.146-.153-.37-.23-.675-.23-.249 0-.488.037-.716.11s-.448.16-.659.259l-.334-.738a4.022 4.022 0 011.754-.421c.618 0 1.084.135 1.399.404s.473.693.473 1.27v3.274h-.739zm-1.538-.703c.375 0 .676-.104.903-.314.227-.209.34-.503.34-.881v-.422l-.624.026c-.486.018-.84.099-1.061.244-.222.145-.332.367-.332.666 0 .216.064.384.193.503.13.118.323.178.581.178zM28.717 33.102c0-.185.051-.327.151-.426.102-.1.246-.149.433-.149.182 0 .323.05.425.149.1.1.15.242.15.426a.572.572 0 01-.15.416c-.102.101-.243.151-.425.151-.188 0-.332-.051-.433-.151a.568.568 0 01-.151-.416zm1.095 6.148h-1.033v-4.86h1.033v4.86zM32.32 39.25h-1.032v-6.838h1.032v6.838z"/></g><g fill="#38AB63"><path d="M28.819 11.625H27.74v-9.28h5.173v.958h-4.094v3.396h3.847v.958h-3.847v3.968zM40.295 8.14c0 1.134-.286 2.02-.857 2.657s-1.36.955-2.368.955c-.622 0-1.174-.146-1.657-.438s-.855-.711-1.117-1.257-.394-1.185-.394-1.917c0-1.134.284-2.018.851-2.65.567-.633 1.354-.949 2.361-.949.973 0 1.747.324 2.32.971.575.648.861 1.524.861 2.628zm-5.3 0c0 .889.178 1.566.533 2.031s.878.698 1.568.698 1.213-.232 1.571-.695c.357-.464.536-1.142.536-2.035 0-.884-.179-1.556-.536-2.015-.358-.459-.886-.689-1.584-.689-.69 0-1.21.227-1.562.679s-.526 1.129-.526 2.026zM45.316 4.541c.309 0 .586.025.832.076l-.146.978a3.559 3.559 0 00-.762-.095c-.563 0-1.044.229-1.444.686-.399.457-.6 1.026-.6 1.708v3.732h-1.054V4.668h.87l.121 1.289h.051c.258-.453.569-.802.933-1.047s.763-.369 1.199-.369zM53.143 4.668v.667l-1.289.152c.119.148.224.342.317.581.093.239.14.509.14.81 0 .681-.233 1.225-.698 1.631s-1.104.609-1.917.609c-.208 0-.402-.017-.584-.051-.449.237-.673.535-.673.895 0 .19.078.331.235.422.157.091.425.137.806.137h1.231c.753 0 1.332.159 1.736.476.404.317.606.779.606 1.384 0 .77-.309 1.357-.927 1.761-.618.404-1.519.606-2.704.606-.91 0-1.611-.169-2.104-.508-.493-.338-.74-.817-.74-1.435 0-.423.135-.789.406-1.098s.652-.519 1.143-.628a1.105 1.105 0 01-.448-.375.994.994 0 01-.181-.59c0-.254.068-.476.203-.667s.349-.375.641-.552c-.36-.148-.653-.4-.879-.755a2.222 2.222 0 01-.339-1.219c0-.762.229-1.349.686-1.761.457-.413 1.104-.619 1.942-.619.364 0 .692.042.984.127h2.407zm-5.548 8.125c0 .376.159.662.476.857s.772.292 1.365.292c.884 0 1.54-.132 1.964-.397.426-.264.638-.623.638-1.076 0-.376-.116-.638-.349-.784-.233-.146-.671-.219-1.314-.219h-1.263c-.478 0-.851.114-1.117.343s-.4.557-.4.984zm.572-5.897c0 .487.138.855.413 1.104s.658.375 1.149.375c1.028 0 1.542-.5 1.542-1.498 0-1.045-.521-1.568-1.562-1.568-.495 0-.876.133-1.143.4s-.399.662-.399 1.187zM60.576 8.14c0 1.134-.286 2.02-.857 2.657s-1.36.955-2.368.955c-.622 0-1.174-.146-1.657-.438s-.855-.711-1.117-1.257-.394-1.185-.394-1.917c0-1.134.284-2.018.851-2.65.567-.633 1.354-.949 2.361-.949.973 0 1.747.324 2.32.971.575.648.861 1.524.861 2.628zm-5.3 0c0 .889.178 1.566.533 2.031s.878.698 1.568.698 1.213-.232 1.571-.695c.357-.464.536-1.142.536-2.035 0-.884-.179-1.556-.536-2.015-.358-.459-.886-.689-1.584-.689-.69 0-1.21.227-1.562.679s-.526 1.129-.526 2.026zM64.67 10.882c.186 0 .366-.014.54-.042a3.59 3.59 0 00.413-.085v.806a1.916 1.916 0 01-.505.137 3.784 3.784 0 01-.6.054c-1.346 0-2.019-.709-2.019-2.126V5.487h-.997v-.508l.998-.438.444-1.485h.609v1.612h2.019v.819h-2.019v4.094c0 .419.1.741.298.965s.472.336.819.336zM73.627 11.752c-.453 0-.866-.083-1.241-.251a2.334 2.334 0 01-.942-.771h-.076c.051.406.076.792.076 1.155v2.863H70.39V4.668h.857l.146.952h.051c.271-.381.586-.656.946-.825s.772-.254 1.238-.254c.922 0 1.635.315 2.136.946.502.63.752 1.515.752 2.653 0 1.143-.255 2.03-.765 2.663-.511.633-1.218.949-2.124.949zm-.152-6.316c-.711 0-1.225.197-1.542.59s-.48 1.02-.489 1.879v.235c0 .978.163 1.677.489 2.098.326.421.849.631 1.568.631.601 0 1.072-.243 1.412-.73.341-.487.511-1.157.511-2.012 0-.868-.17-1.533-.511-1.997-.341-.462-.821-.694-1.438-.694zM82.635 11.625l-.21-.99h-.051c-.347.436-.693.731-1.038.886-.345.154-.776.231-1.292.231-.69 0-1.23-.178-1.622-.533-.391-.355-.587-.861-.587-1.517 0-1.405 1.124-2.141 3.371-2.209l1.181-.038v-.432c0-.546-.117-.949-.352-1.209-.236-.26-.611-.39-1.127-.39-.58 0-1.236.178-1.968.533l-.324-.807a4.975 4.975 0 011.126-.438 4.877 4.877 0 011.229-.159c.83 0 1.445.184 1.843.552.4.368.601.958.601 1.771v4.748h-.78zm-2.381-.743c.656 0 1.171-.18 1.545-.54.375-.36.562-.863.562-1.511v-.627l-1.054.044c-.838.03-1.442.16-1.812.391-.371.23-.556.589-.556 1.076 0 .381.115.671.346.87.232.198.554.297.969.297zM90.074 9.727c0 .647-.242 1.147-.725 1.498s-1.159.527-2.031.527c-.922 0-1.642-.146-2.158-.438v-.978c.335.169.693.303 1.076.4s.752.146 1.107.146c.551 0 .974-.088 1.27-.263.297-.176.445-.443.445-.803 0-.271-.118-.502-.353-.695-.235-.193-.693-.42-1.374-.683-.648-.241-1.108-.452-1.381-.632a1.876 1.876 0 01-.609-.612 1.59 1.59 0 01-.2-.819c0-.567.23-1.015.692-1.342.461-.328 1.094-.492 1.897-.492.749 0 1.481.152 2.196.457l-.375.857c-.697-.288-1.33-.432-1.897-.432-.499 0-.876.078-1.13.235s-.381.373-.381.647a.79.79 0 00.143.476c.096.131.249.256.461.375.211.119.617.29 1.219.514.824.3 1.383.603 1.672.908.291.305.436.688.436 1.149zM96.275 9.727c0 .647-.241 1.147-.724 1.498s-1.159.527-2.031.527c-.923 0-1.642-.146-2.158-.438v-.978c.335.169.692.303 1.075.4a4.52 4.52 0 001.108.146c.55 0 .974-.088 1.27-.263.296-.176.444-.443.444-.803 0-.271-.117-.502-.352-.695-.236-.193-.693-.42-1.375-.683-.647-.241-1.107-.452-1.381-.632-.273-.18-.477-.384-.609-.612s-.199-.501-.199-.819c0-.567.23-1.015.691-1.342.461-.328 1.094-.492 1.898-.492.748 0 1.48.152 2.195.457l-.374.857c-.698-.288-1.331-.432-1.897-.432-.5 0-.877.078-1.131.235s-.381.373-.381.647c0 .186.049.345.143.476.096.131.25.256.461.375s.617.29 1.219.514c.825.3 1.383.603 1.672.908.292.305.436.688.436 1.149zM103.671 11.625l-1.276-4.082c-.08-.25-.23-.817-.45-1.701h-.051c-.17.741-.318 1.312-.445 1.714l-1.313 4.069h-1.219l-1.898-6.957h1.105l1.024 3.993c.235.914.37 1.53.403 1.847h.051c.047-.241.121-.553.226-.937.104-.383.193-.687.27-.911l1.275-3.993h1.143l1.244 3.993c.237.728.398 1.339.482 1.834h.051c.018-.152.063-.387.137-.705s.516-2.025 1.324-5.123h1.092l-1.924 6.957h-1.251zM114.105 8.14c0 1.134-.286 2.02-.856 2.657-.572.637-1.361.955-2.368.955-.622 0-1.175-.146-1.657-.438s-.854-.711-1.117-1.257c-.262-.546-.393-1.185-.393-1.917 0-1.134.283-2.018.85-2.65.567-.633 1.354-.949 2.361-.949.974 0 1.747.324 2.32.971s.86 1.524.86 2.628zm-5.299 0c0 .889.178 1.566.533 2.031s.878.698 1.567.698 1.214-.232 1.571-.695c.357-.464.536-1.142.536-2.035 0-.884-.179-1.556-.536-2.015-.357-.459-.886-.689-1.584-.689-.689 0-1.21.227-1.562.679s-.525 1.129-.525 2.026zM119.127 4.541c.309 0 .586.025.832.076l-.146.978a3.624 3.624 0 00-.762-.095c-.563 0-1.044.229-1.444.686-.399.457-.6 1.026-.6 1.708v3.732h-1.054V4.668h.869l.121 1.289h.051c.258-.453.569-.802.934-1.047a2.093 2.093 0 011.199-.369zM125.995 10.692h-.058c-.486.707-1.214 1.06-2.184 1.06-.909 0-1.617-.311-2.123-.933s-.758-1.506-.758-2.653.254-2.038.762-2.672 1.214-.952 2.119-.952c.944 0 1.668.343 2.172 1.028h.082l-.045-.501-.025-.489V1.748h1.055v9.877h-.857l-.14-.933zm-2.107.178c.72 0 1.241-.196 1.564-.587.324-.391.485-1.023.485-1.895v-.222c0-.986-.163-1.689-.491-2.111-.328-.421-.852-.631-1.571-.631-.618 0-1.091.24-1.419.72-.328.48-.491 1.159-.491 2.035 0 .889.162 1.56.488 2.012s.804.679 1.435.679zM129.942 9.067v-.343c0-.495.076-.902.229-1.222.152-.319.437-.657.852-1.012.575-.487.938-.853 1.088-1.098s.226-.542.226-.889c0-.432-.139-.765-.416-1-.277-.234-.676-.352-1.196-.352-.334 0-.66.039-.978.118a5.3 5.3 0 00-1.092.428l-.375-.857a5.328 5.328 0 012.507-.628c.809 0 1.437.199 1.886.597.448.398.672.958.672 1.682 0 .309-.041.581-.123.815a2.41 2.41 0 01-.365.667c-.161.209-.508.547-1.041 1.012-.428.364-.71.667-.848.908s-.206.563-.206.965v.209h-.82zm-.31 1.885c0-.576.254-.863.762-.863.245 0 .435.074.568.222.133.148.199.362.199.641 0 .271-.067.481-.203.632-.135.15-.323.225-.564.225a.774.774 0 01-.546-.2c-.144-.133-.216-.352-.216-.657z"/></g><g fill="#38AB63"><path d="M71.937 65.072c0 .699-.252 1.246-.757 1.645-.505.396-1.201.596-2.089.596s-1.615-.137-2.181-.414v-1.213a5.81 5.81 0 001.142.396c.402.098.778.146 1.125.146.508 0 .884-.098 1.125-.291a.945.945 0 00.363-.779.977.977 0 00-.333-.746c-.222-.203-.68-.445-1.375-.725-.716-.291-1.221-.621-1.515-.994-.293-.371-.44-.82-.44-1.342 0-.656.233-1.172.698-1.547.465-.377 1.09-.564 1.875-.564.752 0 1.5.164 2.245.494l-.408 1.047c-.698-.293-1.321-.439-1.869-.439-.416 0-.73.09-.945.271a.89.89 0 00-.322.717c0 .203.043.379.129.523s.228.281.424.41.551.299 1.063.51c.577.24.999.465 1.268.672a2 2 0 01.591.703c.123.262.186.571.186.924zM77.898 67.205h-4.442v-7.852h4.442v1.084H74.74v2.139h2.96v1.074h-2.96v2.465h3.158v1.09zM86.138 67.205h-1.574l-3.861-6.258h-.043l.027.35c.05.666.075 1.275.075 1.826v4.082h-1.166v-7.852h1.558l3.852 6.225h.031c-.007-.082-.021-.383-.043-.9s-.031-.92-.031-1.211v-4.113h1.176v7.851zM94.597 63.203c0 1.297-.359 2.289-1.079 2.975s-1.757 1.027-3.11 1.027h-2.196v-7.852h2.428c1.249 0 2.222.336 2.917 1.01.693.672 1.04 1.619 1.04 2.84zm-1.354.043c0-1.879-.879-2.818-2.637-2.818h-1.111v5.697h.912c1.891 0 2.836-.959 2.836-2.879z"/></g></svg><svg viewBox="0 0 16 16" id="form" xmlns="http://www.w3.org/2000/svg"><path fill="none" stroke="currentColor" stroke-miterlimit="10" d="M13.5 13.5h-12v-3h12v3zm0-7h-12v-3h12v3zm-6 4h-6v-1h6v1zm0-7h-6v-1h6v1z"/></svg><svg viewBox="0 0 16 16" id="heading" xmlns="http://www.w3.org/2000/svg"><path fill="currentColor" d="M1 2h14v13H1z"/><path fill="#FFF" d="M11.803 12.787h-1.9V9.175H6.344v3.612H4.438v-8.37h1.906v3.281h3.559V4.417h1.899v8.37z"/></svg><svg viewBox="0 0 239 22" id="horizontal-nav__template" xmlns="http://www.w3.org/2000/svg"><path fill="#CAEED8" stroke="#CAEED8" stroke-miterlimit="10" d="M.5.5h76v21H.5z"/><g fill="#38AB63"><path d="M30.947 9.623c0 .711-.264 1.256-.791 1.635-.528.379-1.278.567-2.253.567h-.802v2.548H25.84V7.564h2.221c.964 0 1.686.174 2.166.521.48.349.72.86.72 1.538zm-3.846 1.267h.67c.647 0 1.122-.099 1.424-.298s.454-.51.454-.932c0-.392-.135-.684-.406-.876-.271-.192-.692-.288-1.266-.288h-.876v2.394zM37.273 14.373l-.771-1.891h-2.949l-.754 1.891h-1.33l2.886-6.837h1.372l2.886 6.837h-1.34zm-1.103-2.85l-.723-1.853c-.053-.125-.125-.32-.219-.588a13.021 13.021 0 01-.193-.586 9.393 9.393 0 01-.417 1.252l-.696 1.775h2.248zM42.786 10.68h2.838v3.419c-.464.133-.91.228-1.337.284-.427.056-.889.083-1.385.083-1.167 0-2.068-.305-2.701-.914-.633-.611-.95-1.472-.95-2.583 0-1.096.357-1.954 1.071-2.573.714-.62 1.697-.929 2.949-.929a6.41 6.41 0 012.29.409l-.443.927a4.963 4.963 0 00-1.878-.382c-.823 0-1.474.229-1.952.685-.479.457-.718 1.08-.718 1.873 0 .831.215 1.465.646 1.896.431.435 1.051.65 1.86.65.408 0 .844-.045 1.308-.135v-1.756h-1.599v-.954zM51.84 14.373h-4.363V7.564h4.363v.94h-3.102v1.854h2.907v.932h-2.907v2.138h3.102v.945z"/></g><path fill="#CAEED8" stroke="#CAEED8" stroke-miterlimit="10" d="M81.5.5h76v21h-76z"/><g fill="#38AB63"><path d="M111.843 9.623c0 .711-.268 1.256-.802 1.635-.535.379-1.295.567-2.283.567h-.813v2.548h-1.277V7.564h2.251c.977 0 1.708.174 2.194.521s.73.86.73 1.538zm-3.898 1.267h.68c.655 0 1.137-.099 1.443-.298.306-.199.459-.51.459-.932 0-.392-.137-.684-.411-.876s-.702-.288-1.283-.288h-.888v2.394zM118.253 14.373l-.78-1.891h-2.988l-.765 1.891h-1.348l2.925-6.837h1.39l2.925 6.837h-1.359zm-1.117-2.85l-.732-1.854c-.054-.125-.127-.32-.222-.588a11.329 11.329 0 01-.195-.586 9.469 9.469 0 01-.422 1.252l-.706 1.775h2.277zM123.84 10.68h2.876v3.419c-.47.133-.922.228-1.354.284-.434.056-.901.083-1.403.083-1.184 0-2.097-.305-2.737-.914-.642-.611-.963-1.472-.963-2.583 0-1.096.362-1.954 1.085-2.573.724-.62 1.721-.929 2.989-.929.816 0 1.59.136 2.32.409l-.449.927a5.091 5.091 0 00-1.903-.382c-.834 0-1.493.229-1.978.685-.485.457-.728 1.08-.728 1.873 0 .831.218 1.465.655 1.896.437.435 1.064.65 1.885.65.413 0 .854-.045 1.325-.135v-1.756h-1.62v-.954zM133.015 14.373h-4.422V7.564h4.422v.94h-3.144v1.854h2.945v.932h-2.945v2.138h3.144v.945z"/></g><path fill="#CAEED8" stroke="#CAEED8" stroke-miterlimit="10" d="M162.5.5h76v21h-76z"/><g fill="#38AB63"><path d="M193.287 9.623c0 .711-.264 1.256-.791 1.635-.528.379-1.278.567-2.253.567h-.802v2.548h-1.261V7.564h2.221c.964 0 1.686.174 2.166.521.48.349.72.86.72 1.538zm-3.847 1.267h.67c.647 0 1.122-.099 1.424-.298s.454-.51.454-.932c0-.392-.135-.684-.406-.876-.271-.192-.692-.288-1.266-.288h-.876v2.394zM199.613 14.373l-.771-1.891h-2.949l-.754 1.891h-1.33l2.886-6.837h1.372l2.886 6.837h-1.34zm-1.103-2.85l-.723-1.854c-.053-.125-.125-.32-.219-.588a13.021 13.021 0 01-.193-.586 9.393 9.393 0 01-.417 1.252l-.696 1.775h2.248zM205.126 10.68h2.838v3.419c-.464.133-.91.228-1.337.284-.427.056-.889.083-1.385.083-1.167 0-2.068-.305-2.701-.914-.633-.611-.95-1.472-.95-2.583 0-1.096.357-1.954 1.071-2.573.714-.62 1.697-.929 2.949-.929a6.41 6.41 0 012.29.409l-.443.927a4.963 4.963 0 00-1.878-.382c-.823 0-1.474.229-1.952.685-.479.457-.718 1.08-.718 1.873 0 .831.215 1.465.646 1.896.431.435 1.051.65 1.86.65.408 0 .844-.045 1.308-.135v-1.756h-1.599v-.954zM214.18 14.373h-4.363V7.564h4.363v.94h-3.102v1.854h2.907v.932h-2.907v2.138h3.102v.945z"/></g></svg><svg viewBox="0 0 18 18" id="image" xmlns="http://www.w3.org/2000/svg"><path fill="currentColor" d="M1 1h16v15H1z"/><path fill="#FFF" d="M5.024 6.293a1.616 1.616 0 01-1.619-1.611c0-.889.725-1.611 1.619-1.611s1.619.722 1.619 1.611-.725 1.611-1.619 1.611zm9.807 7.172h-12v-2l2.727-3.333 1.365 1.667 4.363-5.333L14.831 8.8v4.665z"/></svg><svg viewBox="0 0 16 15" id="layout-icon" xmlns="http://www.w3.org/2000/svg"><g fill="currentColor"><path d="M9 0h7v15H9zM0 0h7v8H0zM0 10h7v5H0z"/></g></svg><svg viewBox="0 0 14 13" id="login" xmlns="http://www.w3.org/2000/svg"><path fill="currentColor" d="M0 0h14v13H0z"/><path fill="#FFF" d="M8.918 6.674L5.619 9.577a.41.41 0 01-.272.101c-.213 0-.389-.154-.389-.341V7.8H2.244c-.212 0-.388-.154-.388-.341V5.41c0-.187.176-.342.388-.342h2.715V3.532c0-.187.176-.341.389-.341.103 0 .2.038.272.102l3.299 2.902a.325.325 0 01.114.24.33.33 0 01-.115.239zm3.227 2.073a1.93 1.93 0 01-1.93 1.93H8.072a.22.22 0 01-.215-.215c0-.188-.087-.643.215-.643h2.143c.59 0 1.072-.482 1.072-1.072V4.032c0-.589-.482-1.072-1.072-1.072H8.287c-.168 0-.43.034-.43-.214 0-.188-.087-.643.215-.643h2.143a1.93 1.93 0 011.93 1.929v4.715z"/></svg><svg viewBox="0 0 192.771 21" id="login-button__template" xmlns="http://www.w3.org/2000/svg"><path fill="#CAEED8" stroke="#CAEED8" stroke-miterlimit="10" d="M.5.5h100v20H.5z"/><g fill="#38AB63"><path d="M114.676 11.006v3.136h-1.283V6.291h2.218c1.013 0 1.764.19 2.251.569.486.379.73.953.73 1.719 0 .978-.509 1.674-1.525 2.089l2.218 3.475h-1.461l-1.88-3.136h-1.268zm0-1.063h.892c.599 0 1.031-.111 1.3-.333s.402-.551.402-.988c0-.444-.145-.763-.435-.956s-.728-.29-1.311-.29h-.849v2.567zM124.865 14.143h-4.442V6.291h4.442v1.085h-3.158v2.138h2.959v1.074h-2.959v2.465h3.158v1.09zM129.773 9.884h2.891v3.942a8.33 8.33 0 01-1.362.328 9.701 9.701 0 01-1.409.096c-1.189 0-2.105-.352-2.75-1.055s-.967-1.697-.967-2.979c0-1.264.363-2.253 1.09-2.967.727-.715 1.728-1.072 3.002-1.072.82 0 1.598.158 2.332.473l-.451 1.069a4.548 4.548 0 00-1.912-.44c-.838 0-1.501.263-1.988.79-.486.526-.73 1.246-.73 2.159 0 .959.22 1.689.658 2.188.439.5 1.07.75 1.894.75.415 0 .859-.053 1.332-.156v-2.025h-1.628V9.884zM134.549 14.143V6.291h1.283v7.852h-1.283zM142.434 12.011c0 .698-.252 1.246-.758 1.644-.504.397-1.201.596-2.089.596s-1.614-.137-2.181-.413v-1.214c.357.168.738.301 1.142.397.402.097.778.146 1.125.146.509 0 .884-.098 1.125-.291a.944.944 0 00.362-.778.978.978 0 00-.332-.747c-.223-.204-.681-.446-1.375-.725-.717-.29-1.222-.621-1.516-.994-.293-.373-.439-.82-.439-1.343 0-.655.232-1.171.697-1.547.466-.376 1.091-.564 1.875-.564.752 0 1.5.165 2.245.494l-.408 1.047c-.698-.293-1.321-.44-1.869-.44-.415 0-.73.09-.945.271a.89.89 0 00-.322.717c0 .204.043.379.129.523.086.146.228.282.425.411.196.129.551.299 1.063.51.577.24 1 .464 1.268.671.27.208.466.442.592.704.123.262.186.57.186.925zM146.666 14.143h-1.283V7.392h-2.311V6.291h5.903v1.101h-2.31v6.751zM154.621 14.143h-4.442V6.291h4.442v1.085h-3.158v2.138h2.959v1.074h-2.959v2.465h3.158v1.09zM157.602 11.006v3.136h-1.283V6.291h2.218c1.013 0 1.764.19 2.251.569.486.379.73.953.73 1.719 0 .978-.509 1.674-1.525 2.089l2.218 3.475h-1.461l-1.88-3.136h-1.268zm0-1.063h.892c.599 0 1.031-.111 1.3-.333s.402-.551.402-.988c0-.444-.145-.763-.435-.956s-.728-.29-1.311-.29h-.849v2.567zM172.748 14.143h-1.574l-3.861-6.257h-.043l.027.349c.05.666.074 1.275.074 1.826v4.082h-1.165V6.291h1.558l3.852 6.225h.031c-.007-.082-.021-.383-.043-.9s-.031-.921-.031-1.211V6.291h1.176v7.852zM181.793 10.206c0 1.278-.319 2.272-.958 2.981-.64.709-1.544 1.063-2.716 1.063-1.185 0-2.095-.352-2.73-1.055s-.953-1.704-.953-3 .319-2.292.958-2.986c.64-.695 1.552-1.042 2.737-1.042 1.167 0 2.069.353 2.707 1.058.637.706.955 1.699.955 2.981zm-5.994 0c0 .967.195 1.7.586 2.2.391.498.969.748 1.734.748.764 0 1.339-.246 1.728-.74.389-.495.583-1.23.583-2.208 0-.963-.193-1.694-.578-2.191s-.959-.747-1.721-.747c-.771 0-1.352.249-1.743.747-.393.497-.589 1.228-.589 2.191zM190.726 14.143h-1.396l-1.332-4.683a17.324 17.324 0 01-.215-.884 9.06 9.06 0 01-.155-.803c-.036.229-.095.526-.175.892-.081.365-.147.637-.202.816l-1.299 4.662h-1.396l-1.016-3.931-1.031-3.921h1.311l1.123 4.576c.175.734.301 1.382.375 1.944.04-.304.099-.645.178-1.02.079-.376.15-.68.215-.913l1.278-4.587h1.272l1.311 4.608c.126.426.258 1.063.398 1.912.053-.512.182-1.163.387-1.955l1.117-4.565h1.299l-2.047 7.852z"/></g><g fill="#38AB63"><path d="M32.677 13.955V6.103h1.284v6.751h3.325v1.102h-4.609zM45.611 10.018c0 1.279-.32 2.272-.958 2.981-.64.709-1.544 1.063-2.715 1.063-1.185 0-2.096-.352-2.731-1.056-.636-.703-.954-1.703-.954-2.999 0-1.297.32-2.292.958-2.986.64-.695 1.552-1.043 2.737-1.043 1.167 0 2.07.354 2.707 1.059s.956 1.699.956 2.981zm-5.994 0c0 .967.195 1.7.585 2.2.39.499.969.749 1.735.749.763 0 1.338-.247 1.727-.741.388-.494.583-1.229.583-2.208 0-.963-.192-1.693-.578-2.191-.385-.498-.959-.747-1.721-.747-.77 0-1.351.249-1.743.746-.392.498-.588 1.229-.588 2.192zM50.509 9.695h2.89v3.943a8.402 8.402 0 01-1.362.327 9.7 9.7 0 01-1.41.097c-1.189 0-2.105-.352-2.75-1.056-.645-.703-.967-1.696-.967-2.978 0-1.265.363-2.254 1.09-2.968.727-.715 1.728-1.071 3.002-1.071.82 0 1.597.157 2.331.473l-.451 1.068a4.53 4.53 0 00-1.912-.44c-.838 0-1.5.263-1.987.79-.487.525-.73 1.246-.73 2.158 0 .96.219 1.689.658 2.189.439.499 1.07.749 1.894.749a6.27 6.27 0 001.332-.155v-2.025H50.51V9.695zM58.143 13.955V6.103h1.283v7.853h-1.283zM68.04 13.955h-1.573l-3.862-6.258h-.043l.027.35c.05.666.075 1.274.075 1.826v4.082h-1.165V6.103h1.557l3.852 6.226h.032c-.007-.083-.021-.383-.043-.9s-.032-.921-.032-1.211V6.103h1.176v7.852z"/></g></svg><svg viewBox="0 0 161 74" id="login-form__template" xmlns="http://www.w3.org/2000/svg"><path fill="none" stroke="#CAEED8" stroke-miterlimit="10" d="M.5.5h160v20H.5zM.5 26.5h160v20H.5z"/><path fill="#CAEED8" stroke="#CAEED8" stroke-miterlimit="10" d="M.5 53.5h160v20H.5z"/><g fill="#9BCEAD"><path d="M13.675 13.25h-3.634V6.825h3.634v.888h-2.584v1.749h2.421v.879h-2.421v2.017h2.584v.892zM19.049 13.25h-1.037v-2.997c0-.372-.07-.649-.211-.833-.141-.183-.36-.274-.659-.274-.398 0-.691.13-.877.389-.186.26-.279.691-.279 1.294v2.421h-1.033V8.39h.809l.145.637h.053c.135-.231.33-.41.586-.536s.539-.189.846-.189c.747 0 1.242.255 1.485.765h.07c.144-.24.346-.428.606-.563s.56-.202.896-.202c.58 0 1.002.146 1.268.439.265.293.397.74.397 1.34v3.168h-1.033v-2.997c0-.372-.071-.649-.213-.833-.142-.183-.362-.274-.661-.274-.401 0-.695.125-.881.376-.187.25-.279.635-.279 1.153v2.576zM26.599 13.25l-.207-.677h-.035c-.234.296-.47.498-.708.604-.237.106-.542.16-.914.16-.478 0-.851-.129-1.118-.387-.269-.258-.402-.623-.402-1.094 0-.501.186-.879.558-1.134s.939-.394 1.701-.417l.839-.026v-.259c0-.311-.073-.542-.217-.697-.146-.153-.37-.23-.675-.23-.249 0-.488.037-.716.11s-.448.16-.659.259l-.334-.738a4.022 4.022 0 011.754-.421c.618 0 1.084.135 1.399.404s.473.693.473 1.27v3.274h-.739zm-1.538-.703c.375 0 .676-.104.903-.314.227-.209.34-.503.34-.881v-.422l-.624.026c-.486.018-.84.099-1.061.244-.222.145-.332.367-.332.666 0 .217.064.384.193.503.13.118.323.178.581.178zM28.717 7.102c0-.185.051-.327.151-.426.102-.1.246-.149.433-.149.182 0 .323.05.424.149.101.1.151.242.151.426a.568.568 0 01-.151.416c-.102.101-.243.151-.424.151-.188 0-.332-.051-.433-.151a.568.568 0 01-.151-.416zm1.095 6.148h-1.033V8.39h1.033v4.86zM32.321 13.25h-1.033V6.412h1.033v6.838z"/></g><g fill="#9BCEAD"><path d="M14.294 34.768c0 .671-.22 1.185-.659 1.542s-1.065.536-1.876.536h-.668v2.404h-1.05v-6.425h1.85c.803 0 1.404.164 1.804.492.4.329.599.812.599 1.451zm-3.203 1.195h.558c.539 0 .935-.094 1.187-.281s.378-.48.378-.879c0-.369-.113-.645-.338-.826s-.577-.272-1.055-.272h-.729v2.258zM18.509 39.25l-.207-.677h-.035c-.234.296-.47.497-.708.604-.237.106-.542.16-.914.16-.478 0-.851-.129-1.118-.387-.269-.258-.402-.623-.402-1.094 0-.501.186-.879.558-1.134s.939-.394 1.701-.417l.839-.026v-.259c0-.311-.073-.542-.217-.697-.146-.153-.37-.23-.675-.23-.249 0-.488.037-.716.11s-.448.16-.659.259l-.334-.738a4.022 4.022 0 011.754-.421c.618 0 1.084.135 1.399.404s.473.693.473 1.27v3.274h-.739zm-1.538-.703c.375 0 .676-.104.903-.314.227-.209.34-.503.34-.881v-.422l-.624.026c-.486.018-.84.099-1.061.244-.222.145-.332.367-.332.666 0 .216.064.384.193.503.13.118.323.178.581.178zM23.954 37.866c0 .474-.173.839-.519 1.092s-.841.38-1.485.38c-.647 0-1.167-.098-1.56-.295v-.892c.571.264 1.103.396 1.595.396.636 0 .954-.191.954-.576 0-.123-.035-.226-.105-.308s-.186-.167-.347-.255-.385-.188-.672-.299c-.56-.217-.938-.434-1.136-.65-.198-.217-.297-.498-.297-.844 0-.416.167-.739.503-.969.335-.229.792-.345 1.369-.345.571 0 1.112.116 1.622.347l-.334.778c-.524-.217-.965-.325-1.323-.325-.545 0-.817.155-.817.466 0 .152.071.281.213.387s.452.25.93.435c.401.155.693.297.875.426s.316.278.404.446.13.37.13.605zM28.335 37.866c0 .474-.173.839-.519 1.092s-.841.38-1.485.38c-.647 0-1.167-.098-1.56-.295v-.892c.571.264 1.103.396 1.595.396.636 0 .954-.191.954-.576 0-.123-.035-.226-.105-.308s-.186-.167-.347-.255-.385-.188-.672-.299c-.56-.217-.938-.434-1.136-.65-.198-.217-.297-.498-.297-.844 0-.416.167-.739.503-.969.335-.229.792-.345 1.369-.345.571 0 1.112.116 1.622.347l-.334.778c-.524-.217-.965-.325-1.323-.325-.545 0-.817.155-.817.466 0 .152.071.281.213.387s.452.25.93.435c.401.155.693.297.875.426s.316.278.404.446.13.37.13.605zM33.437 39.25l-.628-2.268c-.076-.24-.214-.798-.413-1.674h-.04c-.17.791-.305 1.352-.404 1.683l-.646 2.259h-1.143l-1.362-4.86h1.055l.62 2.395c.141.592.24 1.099.299 1.52h.025a9.65 9.65 0 01.134-.735c.06-.277.112-.484.156-.622l.738-2.558h1.134l.716 2.558c.044.144.099.363.165.659.065.296.104.526.116.69h.035c.044-.361.146-.865.308-1.512l.628-2.395h1.037l-1.371 4.86h-1.159zM41.114 36.811c0 .794-.204 1.414-.611 1.859s-.974.668-1.701.668c-.454 0-.855-.103-1.204-.308s-.617-.499-.804-.884c-.188-.383-.281-.829-.281-1.335 0-.788.202-1.403.606-1.846s.974-.664 1.709-.664c.703 0 1.26.227 1.67.679.411.454.616 1.063.616 1.831zm-3.537 0c0 1.122.415 1.683 1.244 1.683.82 0 1.23-.561 1.23-1.683 0-1.11-.413-1.666-1.239-1.666-.434 0-.748.144-.943.431s-.292.699-.292 1.235zM44.766 34.302c.208 0 .38.015.515.044l-.101.962a1.964 1.964 0 00-.457-.053c-.414 0-.748.135-1.005.404-.256.27-.384.62-.384 1.05v2.54h-1.033v-4.86h.809l.137.857h.053c.16-.29.371-.52.63-.69.258-.169.537-.254.836-.254zM47.819 39.338c-.605 0-1.079-.22-1.419-.659s-.51-1.056-.51-1.85c0-.797.172-1.417.517-1.861.344-.444.82-.666 1.43-.666.639 0 1.125.236 1.459.708h.053a6.14 6.14 0 01-.074-.826v-1.771h1.037v6.838h-.809l-.18-.637h-.049c-.331.482-.816.724-1.455.724zm.278-.835c.425 0 .734-.119.928-.358.193-.238.292-.626.299-1.162v-.145c0-.612-.101-1.047-.299-1.305-.2-.258-.512-.387-.937-.387a.948.948 0 00-.839.441c-.197.295-.295.714-.295 1.259 0 .539.095.95.285 1.233.191.282.477.424.858.424z"/></g><g fill="#38AB63"><path d="M62.49 67.154v-7.852h1.284v6.75h3.325v1.102H62.49zM75.423 63.217c0 1.279-.32 2.273-.958 2.982-.64.709-1.544 1.063-2.715 1.063-1.185 0-2.096-.352-2.731-1.055-.636-.703-.954-1.703-.954-3s.32-2.291.958-2.986c.64-.695 1.552-1.043 2.737-1.043 1.167 0 2.07.354 2.707 1.059s.956 1.699.956 2.98zm-5.994 0c0 .967.195 1.701.585 2.201.39.498.969.748 1.735.748.763 0 1.338-.246 1.727-.74.388-.494.583-1.23.583-2.209 0-.963-.192-1.693-.578-2.191-.385-.496-.958-.746-1.721-.746-.77 0-1.351.25-1.743.746-.392.497-.588 1.228-.588 2.191zM80.322 62.895h2.889v3.943a8.32 8.32 0 01-1.361.328 9.705 9.705 0 01-1.41.096c-1.189 0-2.105-.352-2.75-1.055s-.967-1.697-.967-2.979c0-1.264.363-2.254 1.09-2.967.727-.715 1.728-1.072 3.002-1.072.82 0 1.597.158 2.331.473l-.451 1.068a4.54 4.54 0 00-1.912-.439c-.838 0-1.5.262-1.987.789-.487.525-.73 1.246-.73 2.158 0 .961.219 1.689.658 2.189.439.5 1.07.75 1.894.75.416 0 .859-.053 1.332-.156v-2.025h-1.627v-1.101zM87.954 67.154v-7.852h1.284v7.852h-1.284zM97.854 67.154H96.28l-3.861-6.258h-.043l.026.35c.051.666.075 1.275.075 1.826v4.082h-1.165v-7.852h1.558l3.851 6.225h.032c-.008-.082-.021-.383-.043-.9s-.032-.92-.032-1.211v-4.113h1.177v7.851z"/></g></svg><svg viewBox="0 0 14 13" id="multiple-choice" xmlns="http://www.w3.org/2000/svg"><path fill="currentColor" d="M0 0h14v13H0z"/><circle fill="#FFF" cx="7.014" cy="6.339" r="5"/><path fill="currentColor" d="M10.947 6.207a4.002 4.002 0 01-3.999 3.999 4.003 4.003 0 01-4.001-3.999 4.002 4.002 0 014.001-4.001 4.001 4.001 0 013.999 4.001z"/><circle fill="#FFF" cx="6.947" cy="6.207" r="2.5"/></svg><svg viewBox="0 0 16 15" id="navigation" xmlns="http://www.w3.org/2000/svg"><path fill="currentColor" d="M0 0h16v15H0z"/><path fill="#FFF" d="M12.942 11.771H9.904L5 4.963h-.068c.097 1.204.146 2.061.146 2.574v4.235H2.942v-9h3.015l4.896 6.741h.054c-.078-1.171-.116-1.997-.116-2.48v-4.26h2.152v8.998z"/></svg><svg viewBox="0 0 14 13" id="paragraph" xmlns="http://www.w3.org/2000/svg"><path fill="currentColor" d="M0 0h14v13H0z"/><path fill="none" stroke="#FFF" stroke-miterlimit="10" d="M12.5 9.5h-11v-5h11v5zm-7-5h-4v-1h4v1z"/></svg><svg viewBox="0 0 14 13" id="password" xmlns="http://www.w3.org/2000/svg"><path fill="currentColor" d="M0 0h14v13H0z"/><path fill="#FFF" d="M12.501 9.15c0 .398-.408.725-.907.725H2.525c-.499 0-.907-.326-.907-.725V3.645c0-.398.408-.725.907-.725h9.069c.499 0 .907.326.907.725V9.15zM2.525 3.5c-.097 0-.182.067-.182.145V9.15c0 .076.085.145.182.145h9.069c.097 0 .182-.068.182-.145V3.645c0-.077-.085-.145-.182-.145H2.525z"/><path fill="#FFF" d="M5.443 6.984a.486.486 0 01-.485.486h-.969a.486.486 0 01-.485-.486v-.969c0-.268.217-.485.485-.485h.969c.268 0 .485.217.485.485v.969zm2.586 0a.487.487 0 01-.485.486h-.97a.486.486 0 01-.485-.486v-.969c0-.268.217-.485.485-.485h.97c.267 0 .485.217.485.485v.969zm2.585 0a.486.486 0 01-.485.486h-.968a.487.487 0 01-.486-.486v-.969c0-.268.218-.485.486-.485h.968c.269 0 .485.217.485.485v.969z"/></svg><svg viewBox="0 0 161 74" id="register__template" xmlns="http://www.w3.org/2000/svg"><path fill="none" stroke="#CAEED8" stroke-miterlimit="10" d="M.5.5h160v20H.5zM.5 26.5h160v20H.5z"/><path fill="#CAEED8" stroke="#CAEED8" stroke-miterlimit="10" d="M.5 53.5h160v20H.5z"/><g fill="#9BCEAD"><path d="M13.675 39.25h-3.634v-6.425h3.634v.888h-2.584v1.749h2.421v.879h-2.421v2.017h2.584v.892zM19.049 39.25h-1.037v-2.997c0-.372-.07-.649-.211-.833-.141-.183-.36-.274-.659-.274-.398 0-.691.13-.877.389-.186.26-.279.691-.279 1.294v2.421h-1.033v-4.86h.809l.145.637h.053c.135-.231.33-.41.586-.536s.539-.189.846-.189c.747 0 1.242.255 1.485.765h.07c.144-.24.346-.428.606-.563s.56-.202.896-.202c.58 0 1.002.146 1.268.439.265.293.397.74.397 1.34v3.168h-1.033v-2.997c0-.372-.071-.649-.213-.833-.142-.183-.362-.274-.661-.274-.401 0-.695.125-.881.376-.187.25-.279.635-.279 1.153v2.576zM26.599 39.25l-.207-.677h-.035c-.234.296-.47.497-.708.604-.237.106-.542.16-.914.16-.478 0-.851-.129-1.118-.387-.269-.258-.402-.623-.402-1.094 0-.502.186-.879.558-1.134s.939-.394 1.701-.417l.839-.026v-.259c0-.311-.073-.542-.217-.697-.146-.153-.37-.23-.675-.23-.249 0-.488.037-.716.11s-.448.16-.659.259l-.334-.738a4.022 4.022 0 011.754-.421c.618 0 1.084.135 1.399.404s.473.693.473 1.27v3.274h-.739zm-1.538-.703c.375 0 .676-.104.903-.314.227-.209.34-.503.34-.881v-.422l-.624.026c-.486.018-.84.099-1.061.244-.222.145-.332.366-.332.665 0 .217.064.385.193.504.13.118.323.178.581.178zM28.717 33.102c0-.185.051-.327.151-.426.102-.1.246-.149.433-.149.182 0 .323.05.424.149.101.1.151.242.151.426a.568.568 0 01-.151.416c-.102.101-.243.151-.424.151-.188 0-.332-.051-.433-.151a.568.568 0 01-.151-.416zm1.095 6.148h-1.033v-4.86h1.033v4.86zM32.321 39.25h-1.033v-6.838h1.033v6.838z"/></g><g fill="#38AB63"><path d="M57.581 63.506v3.137h-1.284V58.79h2.218c1.013 0 1.764.189 2.25.569s.73.952.73 1.719c0 .978-.508 1.674-1.525 2.09l2.218 3.475h-1.461l-1.88-3.137h-1.266zm0-1.064h.892c.598 0 1.031-.111 1.3-.333s.403-.552.403-.988c0-.444-.145-.763-.435-.956s-.727-.29-1.311-.29h-.849v2.567zM67.77 66.643h-4.442V58.79h4.442v1.085h-3.158v2.138h2.959v1.074h-2.959v2.466h3.158v1.09zM72.679 62.383h2.89v3.943a8.402 8.402 0 01-1.362.327 9.7 9.7 0 01-1.41.097c-1.189 0-2.105-.352-2.75-1.056-.645-.703-.967-1.696-.967-2.978 0-1.265.363-2.254 1.09-2.968.727-.715 1.728-1.071 3.002-1.071.82 0 1.597.157 2.331.473l-.451 1.068a4.53 4.53 0 00-1.912-.44c-.838 0-1.5.263-1.987.79-.487.525-.73 1.246-.73 2.158 0 .96.219 1.689.658 2.189.439.499 1.07.749 1.894.749a6.27 6.27 0 001.332-.155v-2.025H72.68v-1.101zM77.454 66.643V58.79h1.284v7.853h-1.284zM85.339 64.51c0 .699-.253 1.246-.757 1.645-.506.396-1.201.596-2.09.596-.888 0-1.615-.138-2.181-.414v-1.213a5.81 5.81 0 001.142.396c.402.098.777.146 1.125.146.508 0 .884-.097 1.125-.29a.945.945 0 00.363-.779.973.973 0 00-.334-.746c-.222-.204-.68-.445-1.375-.725-.716-.291-1.221-.622-1.514-.994s-.44-.82-.44-1.343c0-.655.233-1.171.698-1.547s1.09-.563 1.875-.563c.752 0 1.501.164 2.245.494l-.408 1.047c-.698-.294-1.321-.44-1.869-.44-.416 0-.73.091-.945.271s-.322.42-.322.717c0 .204.043.379.129.523.086.146.228.282.424.411.197.129.552.299 1.064.51.576.24.998.464 1.268.672.268.208.465.442.59.703.124.261.187.569.187.923zM89.571 66.643h-1.284v-6.752h-2.309V58.79h5.902v1.101h-2.31v6.752zM97.525 66.643h-4.441V58.79h4.441v1.085h-3.158v2.138h2.96v1.074h-2.96v2.466h3.158v1.09zM100.507 63.506v3.137h-1.284V58.79h2.219c1.014 0 1.764.189 2.25.569.487.38.73.952.73 1.719 0 .978-.508 1.674-1.525 2.09l2.219 3.475h-1.461l-1.88-3.137h-1.268zm0-1.064h.892c.598 0 1.031-.111 1.3-.333s.403-.552.403-.988c0-.444-.146-.763-.436-.956s-.727-.29-1.311-.29h-.849v2.567z"/></g><g fill="#9BCEAD"><path d="M15.241 13.459h-1.288l-3.16-5.119h-.035l.022.285c.041.545.062 1.043.062 1.494v3.34h-.953V7.034h1.274l3.151 5.094h.026a26.543 26.543 0 01-.035-.736 24.483 24.483 0 01-.026-.991V7.034h.962v6.425zM19.869 13.459l-.207-.677h-.035c-.234.296-.47.498-.708.604s-.542.16-.914.16c-.478 0-.851-.129-1.118-.387-.269-.258-.402-.622-.402-1.094 0-.501.186-.879.558-1.134s.939-.395 1.701-.418l.839-.026v-.259c0-.311-.073-.543-.217-.697-.146-.153-.37-.23-.675-.23-.249 0-.488.037-.716.11s-.448.159-.659.259l-.334-.738a4.022 4.022 0 011.754-.421c.618 0 1.084.135 1.399.404s.473.693.473 1.271v3.273h-.739zm-1.538-.703c.375 0 .676-.104.903-.314.227-.209.34-.503.34-.881v-.422l-.624.026c-.486.018-.84.099-1.061.244-.222.145-.332.367-.332.666 0 .217.064.384.193.503.129.118.323.178.581.178zM26.144 13.459h-1.037v-2.997c0-.372-.07-.649-.211-.833-.141-.183-.36-.274-.659-.274-.398 0-.691.13-.877.389-.186.26-.279.691-.279 1.295v2.421h-1.033V8.6h.809l.145.638h.053c.135-.231.33-.41.586-.536s.539-.189.846-.189c.747 0 1.242.255 1.485.765h.07c.144-.24.346-.428.606-.563s.56-.202.896-.202c.58 0 1.002.146 1.268.439.265.293.397.74.397 1.341v3.168h-1.033v-2.997c0-.372-.071-.649-.213-.833-.142-.183-.362-.274-.661-.274-.401 0-.695.125-.881.376-.187.25-.279.635-.279 1.153v2.573zM32.775 13.547c-.756 0-1.347-.22-1.773-.661-.427-.44-.64-1.048-.64-1.821 0-.794.198-1.418.593-1.872s.939-.682 1.63-.682c.642 0 1.148.195 1.521.585s.558.926.558 1.608v.558h-3.239c.015.472.142.835.382 1.088.24.254.579.38 1.015.38.287 0 .554-.026.802-.081.248-.054.514-.145.798-.271v.84c-.252.12-.507.205-.765.255s-.551.074-.882.074zm-.189-4.254c-.328 0-.591.104-.789.313-.197.208-.315.511-.354.909h2.206c-.006-.401-.103-.705-.29-.912-.187-.207-.444-.31-.773-.31z"/></g></svg><svg viewBox="0 0 14 13" id="registration" xmlns="http://www.w3.org/2000/svg"><path fill="currentColor" d="M0 0h14v13H0z"/><path fill="#FFF" d="M7.806 9.59h1.52v1.413c-.292.214-.659.297-1.016.297H3.123c-.95 0-1.585-.569-1.585-1.537 0-1.342.314-3.401 2.054-3.401.095 0 .16.042.231.101.582.445 1.146.724 1.894.724s1.311-.28 1.893-.725c.071-.06.137-.101.231-.101.506 0 .949.19 1.289.57H7.806a.765.765 0 00-.76.76V8.83a.764.764 0 00.76.76zM3.404 3.646a2.28 2.28 0 114.56.002 2.28 2.28 0 01-4.56-.002zm9.488 4.031c.079 0 .148.069.148.147v.894a.152.152 0 01-.148.148h-1.637v1.636c0 .08-.07.149-.148.149h-.894a.152.152 0 01-.147-.149V8.866H8.428a.153.153 0 01-.148-.148v-.894c0-.078.07-.147.148-.147h1.638V6.041c0-.079.069-.149.147-.149h.894c.078 0 .148.07.148.149v1.636h1.637z"/></svg><svg viewBox="0 0 161 74" id="reset-pass__template" xmlns="http://www.w3.org/2000/svg"><path fill="none" stroke="#CAEED8" stroke-miterlimit="10" d="M.5 26.5h160v20H.5z"/><path fill="#CAEED8" stroke="#CAEED8" stroke-miterlimit="10" d="M.5 53.5h160v20H.5z"/><g fill="#38AB63"><path d="M73.018 64.742c0 .699-.252 1.246-.757 1.645-.505.396-1.201.596-2.089.596s-1.615-.138-2.181-.414v-1.213a5.81 5.81 0 001.142.396c.402.098.778.146 1.125.146.508 0 .884-.097 1.125-.29a.945.945 0 00.363-.779c0-.293-.111-.542-.333-.746s-.68-.445-1.375-.725c-.716-.291-1.221-.622-1.515-.994s-.44-.82-.44-1.343c0-.655.233-1.171.698-1.547s1.09-.563 1.875-.563c.752 0 1.5.164 2.245.494l-.408 1.047c-.698-.294-1.321-.44-1.869-.44-.416 0-.73.091-.945.271s-.322.42-.322.717c0 .204.043.379.129.523.086.146.228.282.424.411s.551.299 1.063.51c.577.24.999.464 1.268.672s.465.442.591.703c.123.261.186.57.186.923zM79.409 66.875l-.784-2.181h-3.002l-.768 2.181h-1.354l2.938-7.885h1.396l2.938 7.885h-1.364zm-1.122-3.287l-.736-2.138a13.265 13.265 0 01-.223-.677 13.298 13.298 0 01-.196-.677 12.1 12.1 0 01-.424 1.444l-.709 2.047h2.288zM86.284 59.022h1.332l-2.75 7.853h-1.354l-2.739-7.853h1.321l1.638 4.882c.086.233.178.533.274.9s.159.64.188.818a9.92 9.92 0 01.215-.945c.096-.357.175-.623.236-.795l1.639-4.86zM93.095 66.875h-4.442v-7.853h4.442v1.085h-3.158v2.138h2.96v1.074h-2.96v2.466h3.158v1.09z"/></g><g fill="#9BCEAD"><path d="M15.393 39.25h-1.288l-3.16-5.12h-.035l.022.286c.041.545.062 1.043.062 1.494v3.34h-.954v-6.425h1.274l3.151 5.093h.026a26.358 26.358 0 01-.035-.735 24.483 24.483 0 01-.026-.991v-3.366h.962v6.424zM19.102 39.338c-.756 0-1.347-.221-1.773-.661-.427-.44-.64-1.048-.64-1.822 0-.794.198-1.418.593-1.872s.939-.681 1.63-.681c.642 0 1.148.195 1.521.584s.558.926.558 1.608v.558h-3.239c.015.472.142.834.382 1.088s.579.38 1.015.38c.287 0 .554-.026.802-.081s.514-.145.798-.271v.839a3.189 3.189 0 01-.765.256c-.256.05-.551.075-.882.075zm-.189-4.254c-.328 0-.591.104-.789.312-.197.208-.315.511-.354.91h2.206c-.006-.401-.103-.705-.29-.912-.187-.206-.445-.31-.773-.31zM26.151 39.25l-.628-2.268c-.076-.24-.214-.798-.413-1.674h-.04c-.17.791-.305 1.352-.404 1.683l-.646 2.259h-1.143l-1.362-4.86h1.055l.62 2.395c.141.592.24 1.098.299 1.52h.026a9.65 9.65 0 01.134-.735c.06-.277.112-.484.156-.622l.738-2.558h1.134l.716 2.558c.044.144.099.363.165.659.065.296.104.526.116.69h.035c.044-.361.146-.865.308-1.512l.628-2.395h1.037l-1.371 4.86h-1.16zM34.32 39.338c-.615 0-1.093-.221-1.433-.664h-.062c.041.41.062.66.062.748v1.99h-1.033V34.39h.835c.023.091.072.308.145.65h.053c.322-.492.806-.738 1.45-.738.606 0 1.079.22 1.417.659.338.439.507 1.056.507 1.85s-.172 1.414-.516 1.859c-.343.445-.818.668-1.425.668zm-.25-4.192c-.41 0-.71.12-.898.36-.189.24-.284.624-.284 1.151v.154c0 .591.094 1.021.281 1.286s.494.397.918.397c.357 0 .633-.146.826-.439s.29-.711.29-1.252c0-.545-.096-.957-.288-1.237s-.473-.42-.845-.42zM40.503 39.25l-.207-.677h-.035c-.234.296-.47.497-.708.604-.237.106-.542.16-.914.16-.478 0-.851-.129-1.118-.387-.269-.258-.402-.623-.402-1.094 0-.502.186-.879.558-1.134s.939-.394 1.701-.417l.839-.026v-.259c0-.311-.073-.542-.217-.697-.146-.153-.37-.23-.675-.23-.249 0-.488.037-.716.11s-.448.16-.659.259l-.334-.738a4.022 4.022 0 011.754-.421c.618 0 1.084.135 1.399.404s.473.693.473 1.27v3.274h-.739zm-1.538-.703c.375 0 .676-.104.903-.314.227-.209.34-.503.34-.881v-.422l-.624.026c-.486.018-.84.099-1.061.244-.222.145-.332.366-.332.665 0 .217.064.385.193.504.13.118.324.178.581.178zM45.948 37.865c0 .475-.174.84-.52 1.093s-.841.38-1.484.38c-.648 0-1.168-.098-1.561-.295v-.892c.571.264 1.104.396 1.596.396.635 0 .953-.191.953-.576 0-.123-.035-.225-.105-.307s-.187-.168-.348-.256-.385-.188-.672-.299c-.56-.216-.938-.433-1.136-.65-.198-.217-.297-.498-.297-.844 0-.416.168-.739.503-.969.336-.229.792-.345 1.369-.345.571 0 1.111.116 1.621.347l-.334.778c-.524-.217-.965-.325-1.322-.325-.545 0-.817.155-.817.466 0 .152.071.281.213.387.143.105.452.25.93.435.401.155.692.297.874.426s.316.278.404.446.133.37.133.604zM50.33 37.865c0 .475-.174.84-.52 1.093s-.841.38-1.484.38c-.648 0-1.168-.098-1.561-.295v-.892c.571.264 1.104.396 1.596.396.635 0 .953-.191.953-.576 0-.123-.035-.225-.105-.307s-.187-.168-.348-.256-.385-.188-.672-.299c-.56-.216-.938-.433-1.136-.65-.198-.217-.297-.498-.297-.844 0-.416.168-.739.503-.969.336-.229.792-.345 1.369-.345.571 0 1.111.116 1.621.347l-.334.778c-.524-.217-.965-.325-1.322-.325-.545 0-.817.155-.817.466 0 .152.071.281.213.387.143.105.452.25.93.435.401.155.692.297.874.426s.316.278.404.446.133.37.133.604zM55.433 39.25l-.629-2.268c-.076-.24-.214-.798-.413-1.674h-.04c-.17.791-.305 1.352-.404 1.683l-.646 2.259h-1.143l-1.362-4.86h1.055l.619 2.395c.141.592.24 1.098.299 1.52h.027c.028-.213.073-.459.134-.735.06-.277.112-.484.155-.622l.738-2.558h1.135l.716 2.558c.044.144.099.363.165.659.065.296.104.526.116.69h.035c.044-.361.146-.865.308-1.512l.629-2.395h1.037l-1.371 4.86h-1.16zM63.108 36.811c0 .794-.203 1.414-.61 1.859s-.975.668-1.7.668c-.455 0-.856-.103-1.205-.308s-.616-.499-.804-.884c-.188-.383-.281-.828-.281-1.335 0-.788.202-1.403.606-1.846s.974-.664 1.709-.664c.703 0 1.26.227 1.67.679.41.454.615 1.063.615 1.831zm-3.537 0c0 1.123.414 1.683 1.244 1.683.819 0 1.23-.561 1.23-1.683 0-1.11-.414-1.666-1.24-1.666-.434 0-.747.144-.942.431-.194.287-.292.699-.292 1.235zM66.761 34.302c.208 0 .38.015.515.044l-.101.962a1.964 1.964 0 00-.457-.053c-.414 0-.748.135-1.005.404-.256.27-.384.62-.384 1.05v2.54h-1.033v-4.86h.809l.137.857h.053c.16-.29.371-.52.63-.69a1.5 1.5 0 01.836-.254zM69.814 39.338c-.605 0-1.079-.22-1.419-.659s-.51-1.056-.51-1.85c0-.797.172-1.417.517-1.861.344-.444.82-.666 1.43-.666.639 0 1.125.236 1.459.708h.053a6.14 6.14 0 01-.074-.826v-1.771h1.037v6.838h-.809l-.18-.637h-.048c-.332.482-.817.724-1.456.724zm.278-.835c.425 0 .734-.119.928-.358.193-.238.292-.626.299-1.162v-.145c0-.612-.101-1.047-.299-1.305-.2-.258-.512-.387-.937-.387a.948.948 0 00-.839.441c-.197.295-.295.714-.295 1.259 0 .539.095.951.285 1.233s.477.424.858.424z"/></g><g fill="#38AB63"><path d="M34.83 8.141V12h-1.08V2.72h2.545c1.138 0 1.979.218 2.523.654.543.436.815 1.092.815 1.968 0 1.227-.622 2.057-1.866 2.488l2.52 4.17h-1.276l-2.247-3.859H34.83zm0-.927h1.479c.762 0 1.32-.151 1.676-.454.355-.302.533-.756.533-1.361 0-.614-.181-1.056-.543-1.327-.361-.271-.942-.406-1.742-.406H34.83v3.548zM44.567 12.127c-1.028 0-1.84-.313-2.434-.939-.595-.626-.892-1.496-.892-2.609 0-1.122.276-2.012.829-2.672.552-.66 1.293-.99 2.225-.99.872 0 1.562.287 2.069.86.508.573.762 1.33.762 2.269v.667h-4.792c.021.817.228 1.437.619 1.86.392.423.943.635 1.654.635.749 0 1.49-.157 2.222-.47v.939a5.595 5.595 0 01-1.057.346 6.038 6.038 0 01-1.205.104zm-.286-6.329c-.559 0-1.004.182-1.336.546-.333.364-.528.868-.587 1.511h3.637c0-.665-.148-1.173-.444-1.527-.297-.353-.719-.53-1.27-.53zM53.409 10.102c0 .647-.241 1.147-.724 1.498s-1.16.527-2.031.527c-.922 0-1.642-.146-2.158-.438v-.978a5.21 5.21 0 001.076.4c.383.097.752.146 1.108.146.55 0 .973-.088 1.27-.263.296-.176.444-.443.444-.803 0-.271-.118-.502-.352-.695-.235-.193-.693-.42-1.375-.683-.647-.241-1.108-.452-1.38-.632a1.876 1.876 0 01-.609-.612 1.59 1.59 0 01-.2-.819c0-.567.23-1.015.692-1.342.461-.328 1.094-.492 1.898-.492.749 0 1.481.152 2.196.457l-.375.857c-.698-.288-1.331-.432-1.898-.432-.5 0-.876.078-1.13.235s-.381.373-.381.648a.79.79 0 00.143.476c.096.131.249.256.46.375s.618.29 1.219.514c.825.3 1.383.603 1.672.908.29.304.435.687.435 1.148zM58.062 12.127c-1.028 0-1.84-.313-2.434-.939-.595-.626-.892-1.496-.892-2.609 0-1.122.276-2.012.829-2.672.552-.66 1.293-.99 2.225-.99.872 0 1.562.287 2.069.86.508.573.762 1.33.762 2.269v.667h-4.792c.021.817.228 1.437.619 1.86.392.423.943.635 1.654.635.749 0 1.49-.157 2.222-.47v.939a5.595 5.595 0 01-1.057.346 6.038 6.038 0 01-1.205.104zm-.286-6.329c-.559 0-1.004.182-1.336.546-.333.364-.528.868-.587 1.511h3.637c0-.665-.148-1.173-.444-1.527-.296-.353-.719-.53-1.27-.53zM64.664 11.257c.186 0 .366-.014.54-.042a3.59 3.59 0 00.413-.085v.806a1.916 1.916 0 01-.505.137 3.784 3.784 0 01-.6.054c-1.346 0-2.019-.709-2.019-2.126V5.862h-.997v-.508l.997-.438.444-1.485h.609v1.612h2.019v.819h-2.019v4.094c0 .419.1.741.298.965s.472.336.82.336zM73.62 12.127c-.453 0-.866-.083-1.241-.251a2.334 2.334 0 01-.942-.771h-.077c.051.406.076.792.076 1.155v2.863h-1.054V5.043h.857l.146.952h.051c.271-.381.586-.656.946-.825.36-.17.772-.254 1.238-.254.923 0 1.635.315 2.136.946.502.63.752 1.515.752 2.653 0 1.143-.255 2.03-.765 2.663s-1.218.949-2.123.949zm-.152-6.316c-.711 0-1.226.197-1.542.59-.318.394-.48 1.02-.489 1.879v.235c0 .978.163 1.677.489 2.098.325.421.848.631 1.567.631.601 0 1.071-.243 1.412-.73s.511-1.157.511-2.012c0-.868-.17-1.533-.511-1.997-.341-.462-.819-.694-1.437-.694zM82.628 12l-.21-.99h-.051c-.347.436-.692.731-1.037.886-.345.154-.775.231-1.292.231-.689 0-1.23-.178-1.622-.533s-.587-.861-.587-1.517c0-1.405 1.124-2.141 3.37-2.209l1.182-.038v-.432c0-.546-.118-.949-.353-1.209-.235-.26-.61-.39-1.127-.39-.58 0-1.235.178-1.968.533l-.324-.806c.344-.186.719-.332 1.127-.438s.818-.159 1.229-.159c.829 0 1.444.184 1.844.552.4.368.6.958.6 1.771V12h-.781zm-2.38-.743c.655 0 1.171-.18 1.545-.54.375-.36.563-.863.563-1.511v-.627l-1.055.044c-.838.03-1.441.16-1.812.391-.37.23-.556.589-.556 1.076 0 .381.115.671.346.87s.554.297.969.297zM90.067 10.102c0 .647-.242 1.147-.725 1.498s-1.159.527-2.031.527c-.922 0-1.642-.146-2.158-.438v-.978c.335.169.693.303 1.076.4s.752.146 1.107.146c.551 0 .974-.088 1.27-.263.297-.176.445-.443.445-.803 0-.271-.118-.502-.353-.695-.235-.193-.693-.42-1.374-.683-.648-.241-1.108-.452-1.381-.632a1.876 1.876 0 01-.609-.612 1.59 1.59 0 01-.2-.819c0-.567.23-1.015.692-1.342.461-.328 1.094-.492 1.897-.492.749 0 1.481.152 2.196.457l-.373.857c-.697-.288-1.33-.432-1.897-.432-.499 0-.876.078-1.13.235s-.381.373-.381.647a.79.79 0 00.143.476c.096.131.249.256.461.375.211.119.617.29 1.219.514.824.3 1.382.603 1.672.908s.434.688.434 1.149zM96.27 10.102c0 .647-.242 1.147-.725 1.498s-1.159.527-2.031.527c-.922 0-1.642-.146-2.158-.438v-.978c.335.169.693.303 1.076.4s.752.146 1.107.146c.551 0 .974-.088 1.27-.263.297-.176.445-.443.445-.803 0-.271-.118-.502-.353-.695-.235-.193-.693-.42-1.374-.683-.648-.241-1.108-.452-1.381-.632a1.876 1.876 0 01-.609-.612 1.59 1.59 0 01-.2-.819c0-.567.23-1.015.692-1.342.461-.328 1.094-.492 1.897-.492.749 0 1.481.152 2.196.457l-.374.857c-.697-.288-1.33-.432-1.897-.432-.499 0-.876.078-1.13.235s-.381.373-.381.648a.79.79 0 00.143.476c.096.131.249.256.461.375.211.119.617.29 1.219.514.824.3 1.382.603 1.672.908s.435.687.435 1.148zM103.664 12l-1.276-4.082c-.08-.25-.23-.817-.45-1.701h-.051c-.17.741-.318 1.312-.445 1.714L100.128 12h-1.219l-1.897-6.957h1.104l1.025 3.993c.235.914.369 1.53.403 1.847h.051c.047-.241.122-.553.226-.937.104-.383.193-.687.27-.911l1.275-3.993h1.143l1.244 3.993c.237.728.398 1.339.482 1.834h.051c.018-.152.063-.387.137-.705s.516-2.025 1.324-5.123h1.092L104.914 12h-1.25zM114.099 8.515c0 1.134-.286 2.02-.856 2.657-.572.637-1.361.955-2.368.955-.622 0-1.175-.146-1.657-.438s-.854-.711-1.117-1.257c-.262-.546-.393-1.185-.393-1.917 0-1.134.283-2.018.85-2.65.567-.633 1.354-.949 2.361-.949.974 0 1.747.324 2.32.971s.86 1.524.86 2.628zm-5.3 0c0 .889.178 1.566.533 2.031s.878.698 1.567.698 1.214-.232 1.571-.695c.357-.464.536-1.142.536-2.035 0-.884-.179-1.556-.536-2.015-.357-.459-.886-.689-1.584-.689-.689 0-1.21.227-1.562.679s-.525 1.129-.525 2.026zM119.12 4.916c.309 0 .586.025.832.076l-.146.978a3.624 3.624 0 00-.762-.095c-.563 0-1.044.229-1.444.686-.4.456-.6 1.025-.6 1.707V12h-1.054V5.043h.869l.121 1.289h.051c.258-.453.569-.802.934-1.047a2.095 2.095 0 011.199-.369zM125.988 11.067h-.058c-.486.707-1.214 1.06-2.184 1.06-.909 0-1.617-.311-2.123-.933s-.758-1.506-.758-2.653.254-2.038.762-2.672 1.214-.952 2.119-.952c.944 0 1.668.343 2.172 1.028H126l-.045-.501-.025-.489V2.123h1.055V12h-.857l-.14-.933zm-2.107.178c.72 0 1.241-.196 1.564-.587.324-.391.485-1.023.485-1.895v-.222c0-.986-.163-1.689-.491-2.111-.328-.421-.852-.631-1.571-.631-.618 0-1.091.24-1.419.72-.328.48-.491 1.159-.491 2.035 0 .889.162 1.56.488 2.012s.804.679 1.435.679z"/></g></svg><svg viewBox="0 0 241.5 26" id="tabs-nav__template" xmlns="http://www.w3.org/2000/svg"><g fill="#38AB63"><path d="M31.727 14.156c0 .711-.263 1.256-.789 1.635-.526.38-1.273.568-2.245.568h-.799v2.548h-1.256v-6.81h2.213c.96 0 1.68.174 2.158.522.478.349.718.861.718 1.537zm-3.833 1.268h.668c.645 0 1.118-.1 1.419-.299.301-.197.452-.508.452-.931 0-.392-.135-.685-.405-.876-.27-.192-.689-.289-1.261-.289h-.873v2.395zM38.029 18.907l-.768-1.891h-2.938l-.751 1.891h-1.325l2.875-6.837h1.367l2.875 6.837h-1.335zm-1.098-2.85l-.72-1.854c-.053-.125-.125-.32-.218-.586a11.455 11.455 0 01-.192-.588c-.095.383-.232.8-.415 1.254l-.694 1.773h2.239zM43.522 15.214h2.828v3.419a9.11 9.11 0 01-1.333.284c-.425.056-.885.083-1.379.083-1.164 0-2.061-.305-2.691-.914-.631-.611-.947-1.472-.947-2.583 0-1.097.355-1.954 1.067-2.573s1.691-.93 2.939-.93c.803 0 1.563.137 2.282.41l-.442.927a4.914 4.914 0 00-1.871-.382c-.82 0-1.468.229-1.945.685-.477.456-.715 1.081-.715 1.872 0 .832.215 1.466.644 1.897.43.435 1.047.65 1.853.65.406 0 .841-.045 1.303-.135v-1.756h-1.593v-.954zM52.542 18.907h-4.347v-6.81h4.347v.941h-3.09v1.854h2.896v.932h-2.896v2.138h3.09v.945z"/></g><path fill="#CAEED8" stroke="#CAEED8" stroke-miterlimit="10" d="M82.5 4.5h76v21h-76z"/><g fill="#38AB63"><path d="M112.881 13.822c0 .71-.263 1.255-.789 1.635-.525.379-1.274.567-2.245.567h-.799v2.548h-1.257v-6.809h2.213c.96 0 1.68.174 2.158.522.48.348.719.861.719 1.537zm-3.832 1.267h.667c.645 0 1.118-.099 1.419-.298s.452-.509.452-.932c0-.392-.135-.684-.405-.876s-.69-.289-1.262-.289h-.873v2.395zM119.184 18.572l-.768-1.891h-2.938l-.751 1.891h-1.325l2.875-6.837h1.367l2.875 6.837h-1.335zm-1.1-2.85l-.72-1.854a10.61 10.61 0 01-.218-.587 10.323 10.323 0 01-.192-.586 9.316 9.316 0 01-.415 1.252l-.694 1.774h2.239zM124.676 14.879h2.828v3.419a9.18 9.18 0 01-1.332.284 10.62 10.62 0 01-1.38.083c-1.163 0-2.061-.305-2.691-.914-.631-.611-.946-1.472-.946-2.583 0-1.097.356-1.953 1.067-2.573.712-.62 1.691-.929 2.938-.929.804 0 1.563.136 2.282.41l-.442.926a4.925 4.925 0 00-1.871-.382c-.82 0-1.468.229-1.945.685-.476.457-.715 1.081-.715 1.872 0 .832.215 1.466.644 1.897.43.435 1.048.65 1.854.65.405 0 .841-.045 1.304-.135v-1.756h-1.594v-.954zM133.697 18.572h-4.347v-6.809h4.347v.941h-3.091v1.854h2.897v.932h-2.897v2.138h3.091v.944z"/></g><path fill="#CAEED8" stroke="#CAEED8" stroke-miterlimit="10" d="M159.5 22.5h4v3h-4zM78.5 22.5h4v3h-4zM164.5 4.5h76v21h-76z"/><g fill="#38AB63"><path d="M194.58 13.822c0 .71-.263 1.255-.789 1.635-.525.379-1.273.567-2.245.567h-.799v2.548h-1.257v-6.809h2.214c.96 0 1.679.174 2.157.522.479.348.719.861.719 1.537zm-3.832 1.267h.667c.645 0 1.118-.099 1.419-.298s.452-.509.452-.932c0-.392-.135-.684-.405-.876s-.69-.289-1.262-.289h-.873v2.395zM200.882 18.572l-.768-1.891h-2.938l-.751 1.891H195.1l2.875-6.837h1.367l2.875 6.837h-1.335zm-1.098-2.85l-.72-1.854a10.61 10.61 0 01-.218-.587 10.323 10.323 0 01-.192-.586 9.316 9.316 0 01-.415 1.252l-.694 1.774h2.239zM206.375 14.879h2.828v3.419a9.18 9.18 0 01-1.332.284c-.426.056-.887.083-1.381.083-1.163 0-2.06-.305-2.691-.914-.631-.611-.946-1.472-.946-2.583 0-1.097.356-1.953 1.067-2.573.712-.62 1.692-.929 2.938-.929.804 0 1.563.136 2.282.41l-.442.927a4.925 4.925 0 00-1.871-.382c-.82 0-1.468.229-1.945.685-.476.457-.714 1.081-.714 1.872 0 .832.214 1.466.644 1.897.43.435 1.048.65 1.854.65.406 0 .841-.045 1.304-.135v-1.756h-1.594v-.955zM215.396 18.572h-4.346v-6.809h4.346v.941h-3.091v1.854h2.897v.932h-2.897v2.138h3.091v.944z"/></g><path fill="#CAEED8" d="M3 0h72v3H3zM75 0h3v26h-3zM0 0h3v26H0z"/></svg><svg viewBox="0 0 14 13" id="textbox" xmlns="http://www.w3.org/2000/svg"><path fill="currentColor" d="M0 0h14v13H0z"/><path fill="none" stroke="#FFF" stroke-miterlimit="10" d="M12.5 8.5h-11v-3h11v3zm-7-3h-4v-1h4v1z"/></svg><svg viewBox="0 0 101 74" id="vertical-nav__template" xmlns="http://www.w3.org/2000/svg"><path fill="#CAEED8" stroke="#CAEED8" stroke-miterlimit="10" d="M.5.5h100v21H.5z"/><g fill="#38AB63"><path d="M15.107 9.933c0 .712-.264 1.256-.791 1.635-.528.378-1.278.568-2.253.568h-.802v2.547H10V7.875h2.221c.964 0 1.686.174 2.166.521.48.349.72.86.72 1.537zM11.261 11.2h.67c.647 0 1.122-.1 1.424-.298.302-.199.454-.509.454-.932 0-.391-.135-.683-.406-.875-.271-.192-.692-.289-1.266-.289h-.876V11.2zM21.433 14.684l-.771-1.891h-2.949l-.754 1.891h-1.33l2.886-6.837h1.372l2.886 6.837h-1.34zm-1.102-2.851l-.723-1.854c-.053-.124-.125-.32-.219-.586a12.548 12.548 0 01-.193-.587c-.095.382-.233.8-.417 1.253l-.696 1.774h2.248zM26.946 10.991h2.838v3.418c-.464.134-.91.228-1.337.284-.427.055-.889.083-1.385.083-1.167 0-2.068-.305-2.701-.915-.633-.61-.95-1.471-.95-2.583 0-1.095.357-1.954 1.071-2.574.714-.619 1.697-.929 2.949-.929.806 0 1.569.137 2.29.41l-.443.927A4.944 4.944 0 0027.4 8.73c-.823 0-1.474.229-1.952.685-.479.457-.718 1.081-.718 1.873 0 .832.215 1.464.646 1.897.431.434 1.051.65 1.86.65.408 0 .844-.045 1.308-.135v-1.756h-1.599v-.953zM36 14.684h-4.363V7.875H36v.941h-3.102v1.854h2.907v.931h-2.907v2.138H36v.945z"/></g><path fill="#CAEED8" stroke="#CAEED8" stroke-miterlimit="10" d="M.5 52.5h100v21H.5z"/><g fill="#38AB63"><path d="M15.107 62.007c0 .712-.264 1.257-.791 1.636-.528.379-1.278.567-2.253.567h-.802v2.548H10v-6.81h2.221c.964 0 1.686.174 2.166.522s.72.861.72 1.537zm-3.846 1.266h.67c.647 0 1.122-.099 1.424-.297.302-.2.454-.51.454-.932 0-.392-.136-.685-.406-.876-.27-.192-.692-.288-1.266-.288h-.876v2.393zM21.433 66.758l-.771-1.892h-2.949l-.754 1.892h-1.33l2.886-6.837h1.372l2.886 6.837h-1.34zm-1.102-2.851l-.723-1.854c-.053-.125-.125-.32-.219-.587s-.157-.462-.193-.586a9.393 9.393 0 01-.417 1.252l-.696 1.774h2.248zM26.946 63.064h2.838v3.419c-.464.133-.91.229-1.337.283-.428.057-.889.084-1.385.084-1.167 0-2.068-.306-2.701-.914-.633-.611-.95-1.472-.95-2.583 0-1.097.357-1.953 1.071-2.574.714-.618 1.697-.929 2.95-.929.805 0 1.568.138 2.29.41l-.443.927a4.944 4.944 0 00-1.878-.382c-.823 0-1.474.229-1.953.685-.478.457-.717 1.08-.717 1.872 0 .832.215 1.466.646 1.897.431.434 1.051.65 1.86.65.407 0 .844-.045 1.308-.135v-1.757h-1.599v-.953zM36 66.758h-4.363v-6.81H36v.941h-3.102v1.854h2.907v.932h-2.907v2.138H36v.945z"/></g><path fill="#CAEED8" stroke="#CAEED8" stroke-miterlimit="10" d="M.5 26.5h100v21H.5z"/><g fill="#38AB63"><path d="M15.107 35.896c0 .711-.264 1.256-.791 1.635-.528.379-1.278.568-2.253.568h-.802v2.547H10v-6.809h2.221c.964 0 1.686.173 2.166.521.48.349.72.861.72 1.538zm-3.846 1.267h.67c.647 0 1.122-.099 1.424-.298.302-.199.454-.509.454-.932 0-.391-.136-.683-.406-.875-.27-.193-.692-.289-1.266-.289h-.876v2.394zM21.433 40.646l-.771-1.891h-2.949l-.754 1.891h-1.33l2.886-6.837h1.372l2.886 6.837h-1.34zm-1.102-2.851l-.723-1.853c-.053-.125-.125-.32-.219-.587a13.021 13.021 0 01-.193-.586c-.095.382-.233.8-.417 1.253l-.696 1.774h2.248zM26.946 36.953h2.838v3.418c-.464.133-.91.229-1.337.284-.428.056-.889.084-1.385.084-1.167 0-2.068-.305-2.701-.915-.633-.611-.95-1.472-.95-2.583 0-1.096.357-1.954 1.071-2.573s1.697-.929 2.95-.929c.805 0 1.568.136 2.29.41l-.443.927a4.944 4.944 0 00-1.878-.382c-.823 0-1.474.229-1.953.685-.478.457-.717 1.08-.717 1.872 0 .832.215 1.465.646 1.897.431.434 1.051.65 1.86.65.407 0 .844-.044 1.308-.135v-1.756h-1.599v-.954zM36 40.646h-4.363v-6.809H36v.94h-3.102v1.854h2.907v.931h-2.907V39.7H36v.946z"/></g></svg></svg>