<?xml version="1.0" encoding="utf-8"?><svg viewBox="0 0 16 16" xmlns="http://www.w3.org/2000/svg" xmlns:xlink="http://www.w3.org/1999/xlink"><style>:root>svg{display:none}:root>svg:target{display:block}</style><svg xml:space="preserve" viewBox="0 0 16 16" id="align-center" xmlns="http://www.w3.org/2000/svg"><path fill="currentColor" d="M16 4H0V3h16v1zm-4 2H4v1h8V6zm-2 6H6v1h4v-1zm4-3H2v1h12V9z"/></svg><svg xml:space="preserve" viewBox="0 0 16 16" id="align-left" xmlns="http://www.w3.org/2000/svg"><path fill="currentColor" d="M16 4H0V3h16v1zM8 6H0v1h8V6zm-4 6H0v1h4v-1zm8-3H0v1h12V9z"/></svg><svg xml:space="preserve" viewBox="0 0 16 16" id="align-right" xmlns="http://www.w3.org/2000/svg"><g fill="currentColor"><path d="M12 12h4v1h-4zM8 6h8v1H8zM4 9h12v1H4zM0 3h16v1H0z"/></g></svg><svg xml:space="preserve" viewBox="0 0 16 16" id="bold" xmlns="http://www.w3.org/2000/svg"><path fill="currentColor" d="M3 13.5v-11M3 1h5.125a3.874 3.874 0 0 1 2.709 6.647A3.876 3.876 0 0 1 9.125 15H3m1.5-1.5h4.625a2.374 2.374 0 1 0 0-4.75H4.5v4.75zm0-6.25h3.625a2.374 2.374 0 1 0 0-4.75H4.5v4.75z"/></svg><svg xml:space="preserve" viewBox="0 0 16 16" id="breadcrumb" xmlns="http://www.w3.org/2000/svg"><g fill="currentColor"><path d="M2 4.667 5.333 8 2 11.334V13l5-5-5-5zM9 3v1.667L12.333 8 9 11.334V13l5-5z"/></g></svg><svg xml:space="preserve" viewBox="0 0 16 16" id="broken-link" xmlns="http://www.w3.org/2000/svg"><g fill="currentColor"><path d="M0 11h5V9H4v1H1V6h3v1h1V5H0zM11 5v2h1V6h3v4h-3V9h-1v2h5V5z"/></g><path fill="currentColor" d="M9.523 14h-1l-2-12h1z"/></svg><svg xml:space="preserve" viewBox="0 0 16 16" id="button" xmlns="http://www.w3.org/2000/svg"><g fill="currentColor"><path d="M7.971 6.011v7.616l2.297-.984.786 1.832.919-.394-.786-1.833 2.299-.985-5.515-5.252zm.976 6.086V8.289l2.755 2.627-2.755 1.181z"/><path d="M0 3v6h5.993V8H1V4h14v4h-1.951v1H16V3z"/><path d="M1.996 4.967h4v2h-4zM10.967 4.984h3v2h-3z"/></g></svg><svg xml:space="preserve" viewBox="0 0 16 16" id="call-to-action" xmlns="http://www.w3.org/2000/svg"><g fill="currentColor"><path d="M10.797 4h-5v1h2.036v7h1V5h1.964zM13.604 4.018 12.396 4 10 11.982h1.136l.573-1.953h2.577L14.864 12H16l-2.396-7.982zm-1.603 5.016.996-3.395.996 3.395h-1.992zM3.664 4.947c.5 0 .952.125 1.453.402l.383-.902C4.981 4.149 4.375 4 3.683 4c-.652 0-1.218.164-1.697.49-.482.327-.85.791-1.104 1.395C.627 6.488.5 7.19.5 7.992c0 1.279.264 2.27.793 2.965S2.572 12 3.546 12c.673 0 1.238-.102 1.697-.303l-.003-.972c-.591.195-1.096.334-1.558.334-.75 0-1.259-.216-1.664-.771-.406-.558-.561-1.206-.561-2.225 0-.99.175-1.742.596-2.311s.884-.805 1.611-.805z"/></g></svg><svg xml:space="preserve" viewBox="0 0 16 16" id="captcha" xmlns="http://www.w3.org/2000/svg"><g fill="currentColor"><path d="m15.981 3.531-.04-.641v-.002l-.641-.231L8.384.141 7.999 0l-.387.141L.696 2.656l-.636.235-.04.64c-.1 1.56.16 3.947 1.243 6.278 1.086 2.353 3.033 4.688 6.313 6.019l.423.172.426-.172c3.277-1.331 5.224-3.669 6.313-6.019 1.079-2.33 1.34-4.715 1.243-6.278zm-2.222 5.881c-1.008 2.172-2.78 4.288-5.76 5.497-2.98-1.206-4.752-3.325-5.759-5.497C1.233 7.241.993 5.016 1.083 3.591l6.916-2.519 6.917 2.519c.088 1.425-.151 3.65-1.157 5.821z"/><path d="m10.791 5.843-.717-.698-2.083 2.137-2.148-2.094-.697.715 2.147 2.095-2.105 2.159.716.697 2.105-2.158 2.147 2.094.698-.715L8.707 7.98z"/></g></svg><svg xml:space="preserve" viewBox="0 0 16 16" id="chart" xmlns="http://www.w3.org/2000/svg"><g fill="currentColor"><path d="M1 10h2v6H1zM5 3.016h2v13H5zM8.982 7h2.001v9H8.982zM12.981 0h2v16h-2z"/></g></svg><svg xml:space="preserve" viewBox="0 0 16 16" id="chat" xmlns="http://www.w3.org/2000/svg"><path fill="currentColor" d="M15 12h1V1H0v11h6.5l3.5 2.334L11 15v-3h4zm-4-1h-1V13.131l-2.943-1.962L6.803 11H1l.02-9.008h14L15 11h-4z"/></svg><svg xml:space="preserve" viewBox="0 0 16 16" id="check" xmlns="http://www.w3.org/2000/svg"><path fill="currentColor" d="m16 3.05-.7-.71-9.9 9.9-4.7-4.7-.7.71 4.69 4.7.71.7v.01l.71-.71z"/></svg><svg xml:space="preserve" viewBox="0 0 16 16" id="checkboxes" xmlns="http://www.w3.org/2000/svg"><g fill="currentColor"><path d="m1.535 2.441-.828-.829L0 2.319l.828.829.707.707L4.574.727 3.856 0zM1.535 8.512l-.828-.829L0 8.39l.828.83.707.707 3.039-3.129-.718-.728zM1.535 14.582l-.828-.829L0 14.46l.828.83.707.707 3.039-3.129-.718-.726zM6 7h10v2H6zM6 .998h10v2H6zM6 13h10v2H6z"/></g></svg><svg xml:space="preserve" viewBox="0 0 16 16" id="classification" xmlns="http://www.w3.org/2000/svg"><g fill="currentColor"><path d="M15.575 7.598 7.989.011H0V8l7.586 7.585.403.403.403-.403 7.183-7.182.404-.403-.404-.402zm-7.688 6.503L1.417 7.63V1.366h6.264l6.47 6.47-6.264 6.265z"/><path d="M5.284 2.949a2.289 2.289 0 1 0 0 4.577 2.289 2.289 0 0 0 0-4.577zm0 3.538a1.25 1.25 0 1 1 0-2.5 1.25 1.25 0 0 1 0 2.5z"/></g></svg><svg xml:space="preserve" viewBox="0 0 16 16" id="code" xmlns="http://www.w3.org/2000/svg"><g fill="currentColor"><path d="M5 13.01v-1.666L1.667 8.01 5 4.677V3.01l-5 5zM11 2.975v1.667l3.333 3.333L11 11.309v1.666l5-5zM5.679 14.045l1.088.005 3.498-12.038H9.162z"/></g></svg><svg xml:space="preserve" viewBox="0 0 16 16" id="column" xmlns="http://www.w3.org/2000/svg"><path fill="currentColor" d="M0 0v16h16V0H0zm5 15H1V1h4v14zm5 0H6V1h4v14zm5 0h-4V1h4v14z"/></svg><svg xml:space="preserve" viewBox="0 0 16 16" id="content-block" xmlns="http://www.w3.org/2000/svg"><path fill="currentColor" d="M2.982 2v2h3.983v10h2V4h4.017V2z"/></svg><svg xml:space="preserve" viewBox="0 0 16 16" id="content-list" xmlns="http://www.w3.org/2000/svg"><g fill="currentColor"><path d="M0 4h4V0H0v4zm1-3h2v2H1V1zM6 0v4h10V0H6zm9 3H7V1h8v2zM0 10h4V6H0v4zm1-3h2v2H1V7zM6 10h10V6H6v4zm1-3h8v2H7V7zM0 16h4v-4H0v4zm1-3h2v2H1v-2zM6 16h10v-4H6v4zm1-3h8v2H7v-2z"/></g></svg><svg xml:space="preserve" viewBox="0 0 16 16" id="content-section" xmlns="http://www.w3.org/2000/svg"><path fill="currentColor" d="M0 0v16h16V0H0zm15 15.166H1v-9h14v9zm0-10.017H1v-4h14v4z"/></svg><svg xml:space="preserve" viewBox="0 0 16 16" id="copy" xmlns="http://www.w3.org/2000/svg"><path fill="currentColor" d="M11.943 13H15V4.75L11.375 0H3.917v3H-.916.917v13h11.029m-.868-14.527L13.604 5h-2.543l.017-3.527zM14 6v6H5.083V1h4.833v5m1.027 9h-8.86V4h1.833v9h7.027v2z"/></svg><svg xml:space="preserve" viewBox="0 0 16 16" id="date-time" xmlns="http://www.w3.org/2000/svg"><g fill="currentColor"><path d="M13.5 2.223v-2.2h-3v2.199h-5V.023h-3v2.199H0v13.801h16v-13.8h-2.5zM15 14.957H1V3.291h2.5V1.09h1v2.201h7V1.09h1v2.201H15v11.666z"/><path d="m8.983 6.646.516.624c.828-.627 1.293-.983 1.395-1.067s.193-.164.275-.241c-.031.423-.047.872-.047 1.346v5.701h.949v-8h-.82L8.983 6.646zM6.215 8.849v-.043c.501-.107.889-.318 1.162-.634.273-.316.41-.722.41-1.219 0-.604-.205-1.078-.616-1.424-.411-.346-.987-.519-1.729-.519a3.89 3.89 0 0 0-1.293.215 3.663 3.663 0 0 0-1.084.594l.438.596c.38-.249.718-.419 1.014-.511s.611-.138.945-.138c.439 0 .787.108 1.043.325s.384.515.384.894c0 .476-.174.847-.522 1.115s-.82.402-1.416.402h-.763v.761h.752c1.456 0 2.185.473 2.185 1.416 0 1.054-.66 1.58-1.98 1.58-.334 0-.688-.043-1.063-.13a4.708 4.708 0 0 1-1.058-.381v.841c.317.156.644.266.979.328.336.062.706.093 1.11.093.93 0 1.647-.199 2.152-.599s.758-.97.758-1.711c0-.519-.148-.938-.444-1.256-.296-.32-.75-.518-1.364-.595z"/></g></svg><svg xml:space="preserve" viewBox="0 0 16 16" id="document" xmlns="http://www.w3.org/2000/svg"><g fill="currentColor"><path d="M4 12h8v1H4zM4 9h8v1H4z"/><path d="M9.459 0H1v16h14V4.75L9.459 0zm-.292 1.166L13.641 5H9.167V1.166zM13.834 15H2.167V1H8v5H13.834v9z"/></g></svg><svg xml:space="preserve" viewBox="0 0 16 16" id="dropdown" xmlns="http://www.w3.org/2000/svg"><g fill="currentColor"><path d="M0 15.077h16V5.057H0v10.02zm1.123-9h14v8h-14v-8zM-.024 1h9v2h-9z"/><path d="M2.976 11.067H13v1H2.976zM2.988 8.145h10.025v1H2.988zM16 1.027h-6l3 3z"/></g></svg><svg xml:space="preserve" viewBox="0 0 16 16" id="droplet" xmlns="http://www.w3.org/2000/svg"><g fill="currentColor"><path d="M12.042 8.072 8 .5 3.956 8.074C3.455 8.981 3 9.792 3 10.817 3 13.398 5.243 15.5 8 15.5s5-2.102 5-4.683c0-1.026-.426-1.879-.958-2.745zM8 14.647c-2.256 0-4.091-1.718-4.091-3.83 0-.789.313-1.426.692-2.128L8 2.403l2.252 4.239 1.146 2.047c.38.703.692 1.339.692 2.128.001 2.113-1.834 3.83-4.09 3.83z"/><path d="M6.636 10.844h-.909c0 1.293 1.02 2.344 2.273 2.344l.02-.002v-.938L8 12.25c-.752 0-1.364-.631-1.364-1.406z"/></g></svg><svg xml:space="preserve" viewBox="0 0 16 16" id="ellipsis" xmlns="http://www.w3.org/2000/svg"><path fill="currentColor" d="M0 6h4v4H0zM6 6h4v4H6zM12 6h4v4h-4z"/></svg><svg xml:space="preserve" viewBox="0 0 16 16" id="error" xmlns="http://www.w3.org/2000/svg"><g fill="currentColor"><path d="M8 0a8 8 0 0 0-8 8 8 8 0 1 0 16 0 8 8 0 0 0-8-8zm0 15.123a7 7 0 1 1 .001-14.001A7 7 0 0 1 8 15.123z"/><circle cx="7.97" cy="12.028" r="1"/><path d="M6.98 3h2v6h-2z"/></g></svg><svg xml:space="preserve" viewBox="0 0 16 16" id="external-link" xmlns="http://www.w3.org/2000/svg"><g fill="currentColor"><path d="M11 1v1h2.273L7.668 7.666l.711.702L14 2.687V5h1V1z"/><path d="M14 14H2V2h6V1H1v14h14V8h-1z"/></g></svg><svg xml:space="preserve" viewBox="0 0 16 16" id="favorites" xmlns="http://www.w3.org/2000/svg"><path fill="currentColor" d="m8 3.904-.706-.808-.76-.868c-.606-.696-1.431-1.085-2.29-1.085C2.453 1.143 1 2.804 1 4.85c0 .981.341 1.925.95 2.621l.756.865L8 14.387l5.294-6.051.756-.865c.609-.696.95-1.64.95-2.621 0-2.046-1.453-3.708-3.244-3.708-.859 0-1.684.39-2.293 1.086l-.757.865L8 3.904zm.706 11.288L8 16l-.706-.808L2 9.143l-.756-.864C.447 7.368 0 6.135 0 4.85 0 2.171 1.9 0 4.244 0c1.125 0 2.203.51 3 1.421l.05.057.706.806.706-.806.05-.057C9.553.51 10.631 0 11.756 0 14.1 0 16 2.171 16 4.85c0 1.285-.447 2.518-1.244 3.429L14 9.143l-5.294 6.049z"/></svg><svg xml:space="preserve" viewBox="0 0 16 16" id="file-upload" xmlns="http://www.w3.org/2000/svg"><g fill="currentColor"><path d="m15.027 9.578-.006 5.443-13.979-.083-.058-5.36H0V16h16V9.578z"/><path d="M4.075 5.376 7.5 1.912l-.001 9.633v.5h1v-.5L8.5 1.912l3.437 3.447.353.353.706-.706-.352-.353-4.291-4.3L8 0l-.353.353L3.369 4.67l-.353.353.706.706z"/></g></svg><svg xml:space="preserve" viewBox="0 0 16 16" id="form" xmlns="http://www.w3.org/2000/svg"><g fill="currentColor"><path d="M0 1.98v5h16v-5H0zm15 4H1v-3h14v3zM1 .032h6v1H1zM0 11v5h16v-5H0zm15 4H1v-3h14v3zM1 9h6v1H1z"/></g></svg><svg xml:space="preserve" viewBox="0 0 16 16" id="heading" xmlns="http://www.w3.org/2000/svg"><path fill="currentColor" d="M11 2v5H5V2H3v12h2V9h6v5h2V2z"/></svg><svg xml:space="preserve" viewBox="0 0 16 16" id="history" xmlns="http://www.w3.org/2000/svg"><g fill="currentColor"><path d="M8 0a8 8 0 1 0 0 16A8 8 0 0 0 8 0zm0 15A7 7 0 1 1 8.001.999 7 7 0 0 1 8 15z"/><path d="M8.5 8V3h-1v6h6V8z"/></g></svg><svg xml:space="preserve" viewBox="0 0 16 16" id="image" xmlns="http://www.w3.org/2000/svg"><g fill="currentColor"><path d="M4.022 7a3 3 0 1 0 0-6 3 3 0 0 0 0 6zm0-4.997a2 2 0 1 1-.001 4.001 2 2 0 0 1 .001-4.001zM11.275 4.003l-5.8 6.942L3.64 8.891.004 13.335V15.031H0v1h16v-.028h.004V9.781l-4.729-5.778zM15 15.031H1.022v-1.578l2.515-3.121L5.48 12.41l5.846-6.859L15 10.082v4.949z"/></g></svg><svg xml:space="preserve" viewBox="0 0 16 16" id="important" xmlns="http://www.w3.org/2000/svg"><path fill="currentColor" d="M13.972 9 9.95 4.999 13.971 1H3V0H2v16h1V9h10.972zM3 8V2h8.494L8.479 4.999 11.495 8H3z"/></svg><svg xml:space="preserve" viewBox="0 0 16 16" id="italic" xmlns="http://www.w3.org/2000/svg"><path fill="currentColor" d="M13 1v1.5h-2.896l-2.582 11H10V15H3v-1.5h2.897l2.582-11H6V1h.75"/></svg><svg xml:space="preserve" viewBox="0 0 16 16" id="knowledge" xmlns="http://www.w3.org/2000/svg"><g fill="currentColor"><path d="M9.008 5.6v1.1l5-1.308v-1.1zM9.016 8.17v1.101l5-1.309v-1.1zM9 10.74v1.101l5-1.309V9.433z"/><path d="M8 2.6 0 1v12.4L8 15l8-1.6V1L8 2.6zm7 1.317V12.6L8 14l-7-1.4V2.2l7 1.4 7-1.4v1.717z"/><path d="m2.004 10.532 5 1.309V10.74L7 10.739V6.344h-.004V5.6l-5-1.308M6 10.478l-3-.785v-4.04l3 .785v4.04z"/></g></svg><svg xml:space="preserve" viewBox="0 0 16 16" id="language" xmlns="http://www.w3.org/2000/svg"><path fill="currentColor" d="M8 0a8 8 0 1 0 0 16A8 8 0 0 0 8 0zm6.532 5.5h-2.989c-.456-1.761-1.374-3.292-2.601-4.429a6.996 6.996 0 0 1 5.59 4.429zM10.87 7.999c0 .675-.096 1.32-.238 1.945H5.238A8.732 8.732 0 0 1 5 7.999c0-.515.059-1.012.143-1.499h5.585c.084.487.142.984.142 1.499zm-2.935 6.394c-1.071-.861-1.903-2.058-2.406-3.448h4.812c-.503 1.39-1.335 2.586-2.406 3.448zM5.373 5.5c.472-1.582 1.38-2.928 2.563-3.882 1.182.954 2.09 2.3 2.563 3.882H5.373zm1.529-4.405C5.688 2.229 4.779 3.751 4.327 5.5H1.468a6.996 6.996 0 0 1 5.434-4.405zM1.165 6.5h2.96A9.985 9.985 0 0 0 4 8c0 .669.077 1.316.2 1.944H1.28A6.975 6.975 0 0 1 1 7.999c0-.515.06-1.016.165-1.499zm.491 4.444h2.796c.48 1.559 1.325 2.922 2.427 3.958a6.998 6.998 0 0 1-5.223-3.958zm7.307 3.982c1.115-1.039 1.971-2.41 2.455-3.981h2.926a6.998 6.998 0 0 1-5.381 3.981zm5.758-4.982H11.67c.123-.628.2-1.275.2-1.944 0-.513-.052-1.011-.125-1.5h3.09c.105.483.165.984.165 1.499 0 .676-.101 1.327-.279 1.945z"/></svg><svg xml:space="preserve" viewBox="0 0 16 15" id="layout-icon" xmlns="http://www.w3.org/2000/svg"><path fill="currentcolor" d="M0 0h7v8H0zM0 10h7v5H0zM9 0h7v15H9z"/></svg><svg xml:space="preserve" viewBox="0 0 16 16" id="link" xmlns="http://www.w3.org/2000/svg"><path fill="currentColor" d="M9 5v2H7V5H0v6h7V9h2v2h7V5H9zm-3 5H1V6h5v1H5v2h1v1zm9 0h-5V9h1V7h-1V6h5v4z"/></svg><svg xml:space="preserve" viewBox="0 0 16 16" id="location" xmlns="http://www.w3.org/2000/svg"><g fill="currentColor"><path d="M13 5A5 5 0 1 0 3 5l.002.021H3l.002.004a4.944 4.944 0 0 0 1.674 3.676L8 15.999V16v-.001V16v-.001l3.324-7.298a4.94 4.94 0 0 0 1.674-3.675L13 5.021h-.002L13 5zm-2.568 3.156-.093.205c-.001.001-.259.575-.261.576L8 13.488l-2.078-4.55c-.002-.002-.259-.576-.26-.577l-.093-.205A3.978 3.978 0 0 1 4 5a4 4 0 0 1 8 0 3.977 3.977 0 0 1-1.568 3.156z"/><path d="M8 3a2 2 0 1 0 .001 4.001A2 2 0 0 0 8 3zm0 3a1 1 0 1 1 0-2 1 1 0 0 1 0 2z"/></g></svg><svg xml:space="preserve" viewBox="0 0 16 16" id="login" xmlns="http://www.w3.org/2000/svg"><g fill="currentColor"><path d="m12.045 8-.354-.353-4.299-4.291-.353-.352-.706.706.353.353L10.133 7.5.5 7.501H0v1h.5l9.633-.001-3.465 3.426-.353.352.706.706.354-.353 4.316-4.278z"/><path d="M8 0v1h7v14H8v1h8V0z"/></g></svg><svg xml:space="preserve" viewBox="0 0 16 16" id="mail" xmlns="http://www.w3.org/2000/svg"><path fill="currentColor" d="M0 2v12h16V2H0zm1 3.36 3.29 2.61L1 10.57V5.36zM15 13H1v-1.02l4.18-3.31L8 10.9l2.82-2.23L15 11.99V13zm0-2.43-3.29-2.6L15 5.36v5.21zm-4.18-3.31-.9.71L8 9.49 6.07 7.97l-.89-.71L1 3.95V3h14v.94l-4.18 3.32z"/></svg><svg xml:space="preserve" viewBox="0 0 16 16" id="manager" xmlns="http://www.w3.org/2000/svg"><path fill="currentColor" d="M13 5A5 5 0 1 0 3 5H0v11h16V5h-3zM8 1a4 4 0 0 1 4 4H4a4 4 0 0 1 4-4zM1 9h4.891v6H1V9zm8.047 6H6.891V9h2.156v6zM15 15h-4.953V9H15v6zm0-7H1V6h14v2z"/></svg><svg xml:space="preserve" viewBox="0 0 16 16" id="multiple-choice" xmlns="http://www.w3.org/2000/svg"><path fill="currentColor" d="M2 6a2 2 0 1 0 .001 4.001A2 2 0 0 0 2 6zm0 3a1.001 1.001 0 0 1 0-2 1 1 0 0 1 0 2zM2 12a2 2 0 1 0 .001 4.001A2 2 0 0 0 2 12zm0 3a1 1 0 1 1 0-2 1 1 0 0 1 0 2zM4.574.797 3.856.07 1.535 2.511l-.828-.828L0 2.39l.828.828.707.707M6 7h10v2H6zM6 .998h10v2H6zM6 13h10v2H6z"/></svg><svg xml:space="preserve" viewBox="0 0 16 16" id="navigation" xmlns="http://www.w3.org/2000/svg"><path fill="currentColor" d="M11 2v8.496L5.031 2.02 5 2.042V2H3v12h2V5.45l6 8.524V14h2V2z"/></svg><svg xml:space="preserve" viewBox="0 0 16 16" id="notification" xmlns="http://www.w3.org/2000/svg"><path fill="currentColor" d="M13 8V5A5 5 0 1 0 3 5v3l-2 5v1h5a2 2 0 0 0 4 0h5v-1l-2-5zm-5 7a1 1 0 0 1-1-1h2a1 1 0 0 1-1 1zm0-2H2l1.6-4L4 8V5.023h.002L4 5a4 4 0 0 1 8 0l-.002.023H12V8l.4 1 1.6 4H8z"/></svg><svg xml:space="preserve" viewBox="0 0 16 16" id="number" xmlns="http://www.w3.org/2000/svg"><g fill="currentColor"><path d="m0 5.292.516.624c.828-.628 1.293-.983 1.394-1.067s.193-.164.275-.241c-.031.423-.046.872-.046 1.346v5.701h.949v-8h-.82L0 5.292zM5.741 10.781l1.665-1.688c.742-.748 1.249-1.366 1.519-1.855.271-.489.406-.984.406-1.483 0-.64-.203-1.15-.609-1.529s-.966-.57-1.68-.57c-.826 0-1.589.302-2.29.906l.458.609c.347-.284.662-.48.944-.588s.582-.162.897-.162c.437 0 .779.123 1.025.37.247.246.37.58.37 1 0 .298-.049.577-.146.836-.096.26-.242.526-.437.799-.194.274-.596.731-1.207 1.37l-2.003 2.088v.771h5v-.831H5.741v-.043zM15.556 8.089c-.296-.319-.75-.518-1.363-.596v-.042c.501-.106.889-.317 1.162-.633s.41-.722.41-1.219c0-.604-.205-1.078-.616-1.424-.411-.346-.987-.519-1.729-.519a3.89 3.89 0 0 0-1.293.215 3.641 3.641 0 0 0-1.084.594l.438.596c.38-.249.718-.419 1.014-.511s.611-.138.945-.138c.439 0 .787.108 1.043.325s.384.515.384.894c0 .476-.174.847-.522 1.115s-.82.402-1.416.402h-.763v.761h.752c1.456 0 2.185.472 2.185 1.416 0 1.054-.66 1.58-1.98 1.58-.334 0-.688-.043-1.063-.13a4.708 4.708 0 0 1-1.058-.381v.841c.317.156.644.266.979.328.336.062.706.093 1.11.093.93 0 1.647-.199 2.152-.599s.757-.97.757-1.711c0-.519-.148-.937-.444-1.257z"/></g></svg><svg xml:space="preserve" viewBox="0 0 16 16" id="ordered-list" xmlns="http://www.w3.org/2000/svg"><g fill="currentColor"><path d="M4.977 3H16v1H4.977zM4.977 7H16v1H4.977zM5 11h11v1H5zM1.283 2.162c.059-.047.163-.146.313-.296l-.014.446-.009.407v2.479h.905V.914h-.744L.354 2.013l.437.545.492-.396zM1.368 9.161l.551-.519c.367-.336.624-.595.769-.776s.253-.359.322-.532.104-.358.104-.555c0-.227-.057-.428-.17-.604s-.272-.313-.478-.41-.441-.146-.708-.146c-.203 0-.387.02-.551.06s-.315.097-.454.172-.314.201-.524.38l.492.583c.17-.141.333-.249.489-.325s.317-.114.483-.114c.158 0 .285.042.379.126s.142.212.142.384c.001.115-.021.226-.064.334s-.113.224-.211.35-.305.352-.624.678L.24 9.334v.63h2.994v-.762H1.368v-.041zM2.142 12.827v-.017c.293-.07.521-.199.683-.387s.243-.415.243-.683c0-.32-.128-.57-.385-.75s-.607-.27-1.05-.27c-.541 0-1.007.141-1.397.422l.419.624c.178-.115.339-.196.485-.243s.289-.07.429-.07c.406 0 .609.162.609.486 0 .211-.077.359-.23.447-.153.086-.396.13-.728.13H.888v.694h.325c.359 0 .621.042.785.126s.246.227.246.428c0 .225-.071.388-.214.489s-.363.152-.662.152c-.195 0-.393-.026-.592-.079s-.382-.121-.548-.205v.771c.36.155.772.232 1.237.232.555 0 .981-.114 1.28-.345.299-.229.448-.55.448-.962 0-.283-.089-.509-.267-.675-.177-.167-.439-.272-.784-.315z"/></g></svg><svg xml:space="preserve" viewBox="0 0 16 16" id="paragraph" xmlns="http://www.w3.org/2000/svg"><path fill="currentColor" d="M16 5H0V4h16v1zM8 6H0v1h8V6zm-2 4H0v1h6v-1zm6-2H0v1h12V8z"/></svg><svg xml:space="preserve" viewBox="0 0 16 16" id="paragraph-textbox" xmlns="http://www.w3.org/2000/svg"><g fill="currentColor"><path d="M0 4.025v10h16v-10H0zm15 9H1v-8h14v8zM1 2h6v1H1z"/></g></svg><svg xml:space="preserve" viewBox="0 0 16 16" id="password" xmlns="http://www.w3.org/2000/svg"><g fill="currentColor"><path d="M0 6v6h16V6H0zm15 5H1V7h14v4zM1 4h6v1H1z"/><path d="M2 8h2v2H2zM5 8h2v2H5zM8 8h2v2H8zM11 8h2v2h-2z"/></g></svg><svg xml:space="preserve" viewBox="0 0 16 16" id="pencil" xmlns="http://www.w3.org/2000/svg"><g fill="currentColor"><path d="M14.174 2.574 11.051.076 9.174 2.419l-7.032 8.98-.316 3.591.01.008.851-.271-.001-.01 2.577-.817 8.911-11.326zm-2.971-1.092 1.564 1.25-1.064 1.378-1.609-1.219 1.109-1.409zm-6.721 11.79-1.717.548.156-1.797.626-.78L9.484 3.75l1.578 1.141-5.956 7.604-.624.777zM8 14h6v1H8z"/></g></svg><svg xml:space="preserve" viewBox="0 0 16 16" id="profile" xmlns="http://www.w3.org/2000/svg"><g fill="currentColor"><path d="M8 8a4 4 0 1 0 0-8 4 4 0 0 0 0 8zm0-7a3 3 0 1 1 0 6 3 3 0 0 1 0-6zM11.309 8.723A4.963 4.963 0 0 1 8 10a4.963 4.963 0 0 1-3.309-1.277A7.995 7.995 0 0 0 0 16h1.048c.398-2.615 1.641-4.903 3.614-5.962.772.809 2.281 1.104 3.397 1.104 1.115 0 2.521-.295 3.292-1.104 1.977 1.062 3.244 3.345 3.647 5.962H16a7.995 7.995 0 0 0-4.691-7.277z"/></g></svg><svg xml:space="preserve" viewBox="0 0 16 16" id="question" xmlns="http://www.w3.org/2000/svg"><g fill="currentColor"><path d="M13.457 3.229a5.6 5.6 0 0 0-1.376-1.719A6.98 6.98 0 0 0 10.226.414 5.663 5.663 0 0 0 8.143 0C5.575 0 3.589 1.18 2.242 3.508L2 3.926l3.499 2.687.326-.424c.66-.856.988-1.177 1.135-1.286.47-.331 1.342-.373 1.91.032.317.229.317.4.317.457 0 .251-.054.439-.164.573-.102.119-.323.311-.799.538-.676.313-1.301.805-1.858 1.46-.592.696-.893 1.457-.893 2.26v1.774L9.245 12l1-.002.006-1.127c0-.007.003-.151.236-.523.17-.269.372-.469.62-.612.311-.183.555-.329.733-.443.187-.12.434-.312.738-.579.313-.276.563-.559.741-.839.178-.276.336-.634.471-1.06.14-.432.21-.902.21-1.399 0-.759-.183-1.494-.543-2.187zm-.69 3.251a3.345 3.345 0 0 1-.35.802 2.908 2.908 0 0 1-.541.606 5.938 5.938 0 0 1-.608.481c-.169.106-.4.247-.697.421-.394.23-.727.556-.989.971-.263.418-.396.771-.411 1.148l-2.622-.002v-.684c0-.543.207-1.049.631-1.547.455-.536.957-.933 1.496-1.183.534-.255.916-.524 1.169-.826.277-.336.418-.766.418-1.276 0-.36-.134-.887-.773-1.348-.931-.664-2.3-.628-3.153-.03-.259.193-.591.542-1.029 1.085L3.423 3.65c1.137-1.721 2.686-2.56 4.72-2.56.554 0 1.123.115 1.689.339.576.23 1.104.541 1.567.924.448.374.821.84 1.106 1.386.282.541.419 1.088.419 1.676.001.382-.052.739-.157 1.065zM5.509 16h4.782v-3H5.509v3zm1-2h2.782v1H6.509v-1z"/></g></svg><svg xml:space="preserve" viewBox="0 0 16 16" id="recommendation" xmlns="http://www.w3.org/2000/svg"><path fill="currentColor" d="M10.573 5.125 8.537 1.072 8.001 0l-.538 1.072-2.035 4.053-4.293.781L0 6.112l.803.869 3.038 3.284-.622 4.535-.164 1.2 1.035-.534 3.911-2.022 3.911 2.022 1.032.534-.165-1.2-.621-4.534 3.04-3.284.802-.87-1.137-.206-4.29-.781zm3.488 1.65L11.48 9.568l-.328.354.065.486.53 3.859-3.326-1.717-.419-.216-.419.216-3.329 1.716.529-3.859.065-.488-.327-.354-2.583-2.79 3.653-.666.46-.084.217-.435 1.733-3.447L9.73 5.591l.218.435.461.084 3.652.665z"/></svg><svg xml:space="preserve" viewBox="0 0 16 16" id="registration" xmlns="http://www.w3.org/2000/svg"><g fill="currentColor"><path d="M8 8a4 4 0 1 0 0-8 4 4 0 0 0 0 8zm0-7a3 3 0 1 1 0 6 3 3 0 0 1 0-6zM13 12V9h-1v3H9v1h3v3h1v-3h3v-1z"/><path d="M11 8.953C10.163 9.595 9.137 10 8 10a4.963 4.963 0 0 1-3.309-1.277A7.995 7.995 0 0 0 0 16h1.048c.398-2.615 1.641-4.903 3.614-5.962.772.809 2.281 1.104 3.397 1.104.963 0 2.141-.222 2.941-.803V8.953z"/></g></svg><svg xml:space="preserve" viewBox="0 0 16 16" id="restricted" xmlns="http://www.w3.org/2000/svg"><g fill="currentColor"><path d="M10 10a2 2 0 0 0-4 0c0 .931.639 1.706 1.5 1.93v1.029h1V11.93A1.997 1.997 0 0 0 10 10zm-2 1a1 1 0 1 1 0-2 1 1 0 0 1 0 2z"/><path d="M13 5A5 5 0 1 0 3 5H0v11h16V5h-3zM8 1a4 4 0 0 1 4 4H4a4 4 0 0 1 4-4zm7 14H1V6h14v9z"/></g></svg><svg xml:space="preserve" viewBox="0 0 16 16" id="rich-text" xmlns="http://www.w3.org/2000/svg"><g fill="currentColor"><path d="M0 0h16v1H0zM0 2h16v1H0zM0 12h16v1H0zM0 14h8v1H0zM9 4h7v1H9zM9 6h7v1H9zM9 8h7v1H9zM9 10h7v1H9zM8 4H0v7h8V4zm-1 6H1V5h6v5z"/></g></svg><svg xml:space="preserve" viewBox="0 0 16 16" id="search" xmlns="http://www.w3.org/2000/svg"><path fill="currentColor" d="m14.809 15.357-4.423-5.271A5.97 5.97 0 0 0 12 6a6 6 0 1 0-6 6 5.977 5.977 0 0 0 3.645-1.24L14.042 16l.767-.643zM6 11A5 5 0 1 1 6.001.999 5 5 0 0 1 6 11z"/></svg><svg xml:space="preserve" viewBox="0 0 16 16" id="section" xmlns="http://www.w3.org/2000/svg"><path fill="currentColor" d="M-.002 0v16h16V0h-16zM8 15H1V7h7v8zm0-9H1V1h7v5zm7 9H9V1h6v14z"/></svg><svg xml:space="preserve" viewBox="0 0 16 16" id="settings" xmlns="http://www.w3.org/2000/svg"><g fill="currentColor"><path d="M8 5a3 3 0 1 0 0 6 3 3 0 0 0 0-6zm0 5a2 2 0 1 1 .001-4.001A2 2 0 0 1 8 10z"/><path d="M7.997 1.849c-.269 0-.535.019-.794.054L5.513 0 2.481 1.794l.762 2.451c-.322.429-.59.903-.793 1.41L0 6.206v3.588l2.453.552c.203.506.472.98.794 1.409l-.763 2.451L5.516 16l1.69-1.902a5.948 5.948 0 0 0 1.588 0L10.484 16l3.031-1.794-.76-2.451a6.19 6.19 0 0 0 .794-1.409L16 9.794V6.206l-2.456-.551a6.175 6.175 0 0 0-.794-1.41l.763-2.451L10.481 0l-1.69 1.902a5.949 5.949 0 0 0-.794-.053zm2.688-.551 1.638.967-.52 1.666-.159.513.319.427c.269.358.493.753.662 1.176l.197.493.512.115L15 7.029v1.939l-1.666.372-.512.115-.2.496a5.147 5.147 0 0 1-.663 1.176l-.318.426.159.514.519 1.666-1.637.967-1.147-1.291-.353-.396-.52.069c-.215.028-.437.045-.662.045s-.447-.017-.663-.046l-.519-.069-.353.396-1.147 1.291-1.641-.965.519-1.666.16-.512-.319-.426a5.168 5.168 0 0 1-.663-1.176l-.196-.496-.512-.115L1 8.968V7.033l1.669-.375.512-.115.2-.496c.169-.424.394-.818.663-1.177l.318-.427-.159-.512-.518-1.666 1.637-.967 1.147 1.291.353.397.519-.07a4.973 4.973 0 0 1 1.325 0l.519.07.353-.397 1.147-1.291z"/></g></svg><svg xml:space="preserve" viewBox="0 0 16 16" id="short-text" xmlns="http://www.w3.org/2000/svg"><path fill="currentColor" d="M16 7H0V6h16v1zM8 8H0v1h8V8z"/></svg><svg viewBox="0 0 16 16" id="sparkles" xmlns="http://www.w3.org/2000/svg"><defs><style>.ckcls-1{fill:#333}</style></defs><g id="ckLayer_1"><path class="ckcls-1" d="M10.482 4.72a9.956 9.956 0 0 0 3.362 3.41 9.965 9.965 0 0 0-3.362 3.41A9.956 9.956 0 0 0 7.12 8.13a9.965 9.965 0 0 0 3.362-3.41m0-2.203c-.049 0-.097.065-.142.188-.893 2.42-2.805 4.37-5.179 5.28-.12.046-.184.095-.184.145s.064.098.184.145c2.373.91 4.286 2.861 5.179 5.28.045.123.093.188.142.188s.097-.065.142-.188c.893-2.42 2.805-4.37 5.179-5.28.12-.046.184-.095.184-.145s-.064-.098-.184-.145c-2.373-.91-4.286-2.861-5.179-5.28-.045-.123-.093-.188-.142-.188ZM3.748 2.235a4.466 4.466 0 0 0 1.515 1.516 4.458 4.458 0 0 0-1.515 1.516 4.466 4.466 0 0 0-1.515-1.516 4.458 4.458 0 0 0 1.515-1.516m0-.98c-.022 0-.043.029-.064.084A4.036 4.036 0 0 1 1.35 3.687c-.054.02-.083.042-.083.064s.029.044.083.064a4.036 4.036 0 0 1 2.334 2.348c.02.054.042.084.064.084s.043-.029.064-.084a4.036 4.036 0 0 1 2.334-2.348c.054-.02.083-.042.083-.064s-.029-.044-.083-.064a4.036 4.036 0 0 1-2.334-2.348c-.02-.054-.042-.084-.064-.084ZM3.754 10.986a4.463 4.463 0 0 0 1.519 1.52 4.472 4.472 0 0 0-1.519 1.52 4.463 4.463 0 0 0-1.519-1.52 4.472 4.472 0 0 0 1.519-1.52m0-.982c-.022 0-.044.029-.064.084a4.046 4.046 0 0 1-2.34 2.353c-.054.021-.083.042-.083.064s.029.044.083.064a4.052 4.052 0 0 1 2.34 2.353c.02.055.042.084.064.084s.044-.029.064-.084a4.046 4.046 0 0 1 2.34-2.353c.054-.021.083-.042.083-.064s-.029-.044-.083-.064a4.052 4.052 0 0 1-2.34-2.353c-.02-.055-.042-.084-.064-.084Z"/></g></svg><svg xml:space="preserve" viewBox="0 0 16 16" id="textbox" xmlns="http://www.w3.org/2000/svg"><g fill="currentColor"><path d="M0 5.938v5h16v-5H0zm15 4H1v-3h14v3zM1 3.989h6v1H1z"/></g></svg><svg xml:space="preserve" viewBox="0 0 16 16" id="unordered-list" xmlns="http://www.w3.org/2000/svg"><g fill="currentColor"><path d="M4.988 3h11.023v1H4.988zM4.988 7h11.023v1H4.988zM5 11h11v1H5zM0 3h2v2H0zM0 7h2v2H0zM0 11h2v2H0z"/></g></svg><svg xml:space="preserve" viewBox="0 0 16 16" id="video" xmlns="http://www.w3.org/2000/svg"><path fill="currentColor" d="M12 5.5V3H0v10h12v-2.5l4 2.5V3l-4 2.5zM11 12H1V4h10v8zm4.22-.673-3.222-1.874.035-2.871 3.168-1.873.019 6.618z"/></svg><svg xml:space="preserve" viewBox="0 0 16 16" id="yes-no" xmlns="http://www.w3.org/2000/svg"><g fill="currentColor"><path d="m3.555 10.5 3.987-4.057L6.6 5.5 3.555 8.667 2.469 7.592l-.927.916 1.086 1.075z"/><path d="M0 3v10h16V3H0zm8.042 8.999h-7v-8h7v8zm6.948 0h-6v-8h6v8z"/><path d="m9.508 9.675.837.825 1.651-1.67 1.669 1.649.825-.833-1.67-1.65 1.652-1.671-.836-.825-1.652 1.67-1.67-1.651-.824.835 1.67 1.651z"/></g></svg></svg>