<svg xmlns="http://www.w3.org/2000/svg" xmlns:xlink="http://www.w3.org/1999/xlink" width="0" height="0" style="display:none;"><symbol viewBox="0 0 16 15" id="sf-font-breadcrumb">

<g display="none">
	<path display="inline" fill="currentcolor" d="M3.434,11.534c-0.103,0.126-0.268,0.126-0.371,0l-0.685-0.823
		c-0.104-0.122-0.104-0.325,0-0.446l2.193-2.636L2.378,4.994c-0.104-0.125-0.104-0.323,0-0.448l0.685-0.823
		c0.104-0.125,0.268-0.125,0.371,0l3.065,3.683c0.102,0.123,0.102,0.323,0,0.446L3.434,11.534z"></path>
</g>
<g display="none">
	<path display="inline" fill="currentcolor" d="M7.297,11.534c-0.104,0.126-0.269,0.126-0.372,0L6.24,10.711
		c-0.103-0.124-0.103-0.325,0-0.446l2.192-2.635L6.24,4.994c-0.103-0.125-0.103-0.323,0-0.448l0.686-0.823
		c0.103-0.125,0.268-0.125,0.372,0l3.064,3.683c0.103,0.123,0.103,0.323,0,0.447L7.297,11.534z"></path>
</g>
<g display="none">
	<path display="inline" fill="currentcolor" d="M11.159,11.534c-0.104,0.126-0.269,0.126-0.371,0l-0.685-0.823
		c-0.104-0.124-0.104-0.325,0-0.446l2.191-2.635l-2.191-2.636c-0.104-0.125-0.104-0.323,0-0.448l0.685-0.823
		c0.103-0.125,0.268-0.125,0.371,0l3.064,3.683c0.102,0.123,0.102,0.323,0,0.447L11.159,11.534z"></path>
</g>
<g display="none">
	<path display="inline" fill="currentcolor" d="M6.287,7.757l-2.854,3.691c-0.037,0.049-0.092,0.081-0.141,0.081
		s-0.104-0.032-0.141-0.081l-0.306-0.396c-0.037-0.048-0.061-0.111-0.061-0.182c0-0.063,0.024-0.134,0.061-0.183l2.408-3.114
		L2.844,4.46C2.807,4.413,2.783,4.342,2.783,4.278c0-0.063,0.024-0.134,0.061-0.182L3.15,3.699c0.037-0.047,0.092-0.079,0.141-0.079
		s0.104,0.031,0.141,0.079l2.854,3.693C6.323,7.44,6.348,7.511,6.348,7.574C6.348,7.638,6.323,7.708,6.287,7.757z"></path>
</g>
<g display="none">
	<path display="inline" fill="currentcolor" d="M9.743,7.757l-2.854,3.691c-0.037,0.049-0.092,0.081-0.141,0.081
		s-0.104-0.032-0.141-0.081l-0.307-0.396c-0.037-0.048-0.061-0.111-0.061-0.182c0-0.063,0.024-0.134,0.061-0.183l2.407-3.114
		L6.301,4.46C6.264,4.413,6.24,4.342,6.24,4.278c0-0.063,0.024-0.134,0.061-0.182l0.307-0.397c0.037-0.047,0.092-0.079,0.141-0.079
		s0.104,0.031,0.141,0.079l2.854,3.693C9.779,7.44,9.805,7.511,9.805,7.574C9.805,7.638,9.779,7.708,9.743,7.757z"></path>
</g>
<g display="none">
	<path display="inline" fill="currentcolor" d="M13.307,7.757l-2.853,3.693c-0.038,0.047-0.093,0.08-0.142,0.08s-0.104-0.033-0.142-0.08
		l-0.306-0.397c-0.037-0.046-0.061-0.109-0.061-0.182c0-0.063,0.023-0.133,0.061-0.183l2.407-3.113L9.865,4.461
		C9.828,4.413,9.805,4.342,9.805,4.278c0-0.063,0.023-0.134,0.061-0.182l0.306-0.396c0.038-0.048,0.093-0.08,0.142-0.08
		s0.104,0.031,0.142,0.08l2.853,3.692c0.037,0.048,0.063,0.119,0.063,0.183S13.344,7.709,13.307,7.757z"></path>
</g>
<polygon fill="currentcolor" points="10.094,3.292 8.631,4.772 11.591,7.698 8.665,10.658 10.145,12.121 14.533,7.681 "></polygon>
<polygon fill="currentcolor" points="3.851,3.292 2.388,4.772 5.348,7.698 2.421,10.658 3.901,12.121 8.29,7.681 "></polygon>
</symbol><symbol viewBox="0 0 16 15" id="sf-font-button">

<g>
	<path fill="currentcolor" d="M3.629,2.299h3.777c1.722,0,2.972,0.203,3.75,0.606s1.168,1.045,1.168,1.925
		c0,0.598-0.172,1.088-0.514,1.47c-0.338,0.384-0.791,0.615-1.355,0.692v0.068c0.77,0.141,1.322,0.406,1.664,0.793
		c0.342,0.389,0.51,0.902,0.51,1.545c0,0.912-0.398,1.623-1.197,2.135c-0.803,0.51-1.889,0.766-3.261,0.766H3.629V2.299z
		 M6.203,6.26h1.495c0.697,0,1.202-0.088,1.515-0.267C9.527,5.816,9.682,5.521,9.682,5.11c0-0.382-0.17-0.657-0.51-0.824
		c-0.34-0.166-0.879-0.25-1.616-0.25H6.203V6.26z M6.203,7.943v2.604H7.88c0.708,0,1.233-0.111,1.569-0.334
		c0.338-0.221,0.508-0.566,0.508-1.025c0-0.83-0.721-1.244-2.159-1.244H6.203z"></path>
</g>
</symbol><symbol viewBox="0 0 16 15" id="sf-font-captcha">

<g>
	<path fill="currentcolor" d="M12.985,8.012c0,3.244-4.536,5.292-4.729,5.377c-0.062,0.03-0.131,0.045-0.201,0.045
		c-0.068,0-0.138-0.015-0.2-0.045c-0.192-0.085-4.729-2.133-4.729-5.377V2.097c0-0.27,0.224-0.493,0.493-0.493h8.873
		c0.271,0,0.492,0.224,0.492,0.493V8.012z M11.508,3.082H8.056v8.757c0.393-0.207,1.025-0.569,1.642-1.055
		c0.824-0.647,1.81-1.656,1.81-2.772V3.082z"></path>
</g>
</symbol><symbol viewBox="0 0 16 15" id="sf-font-chart">

<g>
	<path fill="#FFFFFF" d="M3.9,12.463H1.719V8.019H3.9V12.463z M7.173,12.463H4.991V3.574h2.182V12.463z M10.446,12.463H8.264V5.797
		h2.182V12.463z M13.719,12.463h-2.182v-10h2.182V12.463z"></path>
</g>
</symbol><symbol viewBox="0 0 16 15" id="sf-font-chat">
<g display="none">
</g>

<g display="none">
	<path display="inline" fill="currentColor" d="M8.806,10.59h1.52v1.413C10.034,12.217,9.667,12.3,9.31,12.3H4.123
		c-0.95,0-1.585-0.569-1.585-1.537c0-1.342,0.314-3.401,2.054-3.401c0.095,0,0.16,0.042,0.231,0.101
		c0.582,0.445,1.146,0.724,1.894,0.724S8.028,7.907,8.61,7.462c0.071-0.06,0.137-0.101,0.231-0.101c0.506,0,0.949,0.19,1.289,0.57
		H8.806c-0.416,0-0.76,0.344-0.76,0.76V9.83C8.045,10.246,8.39,10.59,8.806,10.59z M4.404,4.646c0-1.258,1.021-2.279,2.279-2.279
		c1.259,0,2.28,1.021,2.28,2.279s-1.021,2.279-2.28,2.279C5.425,6.925,4.404,5.904,4.404,4.646z M13.892,8.677
		c0.079,0,0.148,0.069,0.148,0.147v0.894c0,0.078-0.069,0.148-0.148,0.148h-1.637v1.636c0,0.08-0.07,0.149-0.148,0.149h-0.894
		c-0.078,0-0.147-0.069-0.147-0.149V9.866H9.428c-0.078,0-0.148-0.07-0.148-0.148V8.824c0-0.078,0.07-0.147,0.148-0.147h1.638V7.041
		c0-0.079,0.069-0.149,0.147-0.149h0.894c0.078,0,0.148,0.07,0.148,0.149v1.636H13.892z"></path>
</g>
<g display="none">
	<path display="inline" fill="currentColor" d="M6.287,7.757l-2.854,3.691c-0.037,0.049-0.092,0.081-0.141,0.081
		s-0.104-0.032-0.141-0.081l-0.306-0.396c-0.037-0.048-0.061-0.111-0.061-0.182c0-0.063,0.024-0.134,0.061-0.183l2.408-3.114
		L2.844,4.46C2.807,4.413,2.783,4.342,2.783,4.278c0-0.063,0.024-0.134,0.061-0.182L3.15,3.699c0.037-0.047,0.092-0.079,0.141-0.079
		s0.104,0.031,0.141,0.079l2.854,3.693C6.323,7.44,6.348,7.511,6.348,7.574C6.348,7.638,6.323,7.708,6.287,7.757z"></path>
</g>
<g display="none">
	<path display="inline" fill="currentColor" d="M9.743,7.757l-2.854,3.691c-0.037,0.049-0.092,0.081-0.141,0.081
		s-0.104-0.032-0.141-0.081l-0.307-0.396c-0.037-0.048-0.061-0.111-0.061-0.182c0-0.063,0.024-0.134,0.061-0.183l2.407-3.114
		L6.301,4.46C6.264,4.413,6.24,4.342,6.24,4.278c0-0.063,0.024-0.134,0.061-0.182l0.307-0.397c0.037-0.047,0.092-0.079,0.141-0.079
		s0.104,0.031,0.141,0.079l2.854,3.693C9.779,7.44,9.805,7.511,9.805,7.574C9.805,7.638,9.779,7.708,9.743,7.757z"></path>
</g>
<g display="none">
	<path display="inline" fill="currentColor" d="M13.307,7.757l-2.853,3.693c-0.038,0.047-0.093,0.08-0.142,0.08s-0.104-0.033-0.142-0.08
		l-0.306-0.397c-0.037-0.046-0.061-0.109-0.061-0.182c0-0.063,0.023-0.133,0.061-0.183l2.407-3.113L9.865,4.461
		C9.828,4.413,9.805,4.342,9.805,4.278c0-0.063,0.023-0.134,0.061-0.182l0.306-0.396c0.038-0.048,0.093-0.08,0.142-0.08
		s0.104,0.031,0.142,0.08l2.853,3.692c0.037,0.048,0.063,0.119,0.063,0.183S13.344,7.709,13.307,7.757z"></path>
</g>
<text transform="matrix(1 0 0 1 3.0444 10.8594)" display="none" fill="currentColor" font-family="'FontAwesome'" font-size="10"></text>
<g>
	<path fill="currentColor" d="M8.217,10.948c-0.328,0-0.656-0.018-0.971-0.051c-0.877,0.755-1.922,1.289-3.081,1.576
		c-0.24,0.064-0.501,0.11-0.763,0.142c-0.013,0-0.026,0-0.033,0c-0.134,0-0.254-0.104-0.288-0.247c0-0.007,0-0.007,0-0.007
		c-0.034-0.162,0.081-0.26,0.181-0.377c0.422-0.462,0.904-0.854,1.219-1.939c-1.379-0.763-2.264-1.94-2.264-3.263
		c0-2.305,2.685-4.167,6-4.167c3.313,0,6,1.862,6,4.167S11.53,10.948,8.217,10.948z M3.074,6.782c0,0.97,0.67,1.895,1.828,2.533
		l0.583,0.325l-0.18,0.625c-0.128,0.462-0.295,0.819-0.469,1.12c0.676-0.273,1.292-0.645,1.841-1.113l0.288-0.248l0.382,0.04
		c0.288,0.032,0.583,0.051,0.871,0.051c2.787,0,5.143-1.523,5.143-3.333c0-1.81-2.355-3.333-5.143-3.333
		C5.431,3.449,3.074,4.972,3.074,6.782z"></path>
</g>
</symbol><symbol viewBox="0 0 16 15" id="sf-font-checkboxes">

<g>
	<path fill="currentcolor" d="M12.318,10.57c0,1.172-0.951,2.125-2.126,2.125H4.053c-1.173,0-2.126-0.953-2.126-2.125V4.43
		c0-1.173,0.953-2.125,2.126-2.125h6.139c0.297,0,0.592,0.059,0.864,0.184c0.066,0.029,0.118,0.096,0.133,0.17
		c0.016,0.081-0.007,0.156-0.066,0.214l-0.361,0.362c-0.045,0.044-0.11,0.074-0.171,0.074c-0.021,0-0.043-0.008-0.065-0.015
		c-0.11-0.03-0.221-0.045-0.333-0.045H4.053c-0.649,0-1.182,0.532-1.182,1.181v6.141c0,0.65,0.532,1.182,1.182,1.182h6.139
		c0.651,0,1.182-0.531,1.182-1.182V8.695c0-0.059,0.023-0.119,0.065-0.162l0.473-0.473c0.052-0.053,0.111-0.073,0.17-0.073
		c0.029,0,0.061,0.006,0.09,0.02c0.089,0.038,0.146,0.119,0.146,0.215V10.57z M8.015,10.621c-0.235,0.236-0.604,0.236-0.84,0
		L4.001,7.448c-0.236-0.236-0.236-0.605,0-0.841l0.812-0.812c0.236-0.237,0.605-0.237,0.84,0l1.941,1.94l4.776-4.774
		c0.235-0.237,0.604-0.237,0.84,0l0.813,0.812c0.236,0.236,0.236,0.605,0,0.841L8.015,10.621z"></path>
</g>
</symbol><symbol viewBox="0 0 16 15" id="sf-font-classification">

<g>
	<path fill="currentcolor" d="M13.321,9.25l-3.565,3.571c-0.175,0.167-0.413,0.269-0.66,0.269c-0.246,0-0.487-0.102-0.653-0.269
		L3.251,7.623C2.88,7.26,2.59,6.556,2.59,6.04V3.02c0-0.508,0.42-0.929,0.929-0.929H6.54c0.516,0,1.22,0.29,1.59,0.661l5.191,5.185
		c0.167,0.173,0.269,0.413,0.269,0.66C13.59,8.842,13.488,9.081,13.321,9.25z M5.389,3.484c-0.778,0-1.405,0.626-1.405,1.404
		c0,0.781,0.626,1.406,1.405,1.406c0.781,0,1.405-0.625,1.405-1.406C6.794,4.11,6.169,3.484,5.389,3.484z"></path>
</g>
</symbol><symbol viewBox="0 0 16 15" id="sf-font-code">

<path fill="#FFFFFF" d="M15.242,7.736l-3.979,4.021l-0.67-0.663l3.314-3.351l-3.352-3.315l0.662-0.67L15.242,7.736z M0.758,7.781
	l3.965-4.023l0.67,0.66L2.09,7.771l3.352,3.305l-0.661,0.669L0.758,7.781z M8.655,2.598l0.976,0.223L7.317,12.947l-0.975-0.223
	L8.655,2.598z"></path>
</symbol><symbol viewBox="0 0 16 15" id="sf-font-column">
<g display="none">
</g>
<rect fill="currentcolor" width="4" height="15"></rect>
<rect x="12" fill="currentcolor" width="4" height="15"></rect>
<rect x="6" fill="currentcolor" width="4" height="15"></rect>
<g display="none">
	<path display="inline" fill="#FFFFFF" d="M8.806,10.59h1.52v1.413C10.034,12.217,9.667,12.3,9.31,12.3H4.123
		c-0.95,0-1.585-0.569-1.585-1.537c0-1.342,0.314-3.401,2.054-3.401c0.095,0,0.16,0.042,0.231,0.101
		c0.582,0.445,1.146,0.724,1.894,0.724S8.028,7.907,8.61,7.462c0.071-0.06,0.137-0.101,0.231-0.101c0.506,0,0.949,0.19,1.289,0.57
		H8.806c-0.416,0-0.76,0.344-0.76,0.76V9.83C8.045,10.246,8.39,10.59,8.806,10.59z M4.404,4.646c0-1.258,1.021-2.279,2.279-2.279
		c1.259,0,2.28,1.021,2.28,2.279s-1.021,2.279-2.28,2.279C5.425,6.925,4.404,5.904,4.404,4.646z M13.892,8.677
		c0.079,0,0.148,0.069,0.148,0.147v0.894c0,0.078-0.069,0.148-0.148,0.148h-1.637v1.636c0,0.08-0.07,0.149-0.148,0.149h-0.894
		c-0.078,0-0.147-0.069-0.147-0.149V9.866H9.428c-0.078,0-0.148-0.07-0.148-0.148V8.824c0-0.078,0.07-0.147,0.148-0.147h1.638V7.041
		c0-0.079,0.069-0.149,0.147-0.149h0.894c0.078,0,0.148,0.07,0.148,0.149v1.636H13.892z"></path>
</g>
<g display="none">
	<path display="inline" fill="#FFFFFF" d="M6.287,7.757l-2.854,3.691c-0.037,0.049-0.092,0.081-0.141,0.081
		s-0.104-0.032-0.141-0.081l-0.306-0.396c-0.037-0.048-0.061-0.111-0.061-0.182c0-0.063,0.024-0.134,0.061-0.183l2.408-3.114
		L2.844,4.46C2.807,4.413,2.783,4.342,2.783,4.278c0-0.063,0.024-0.134,0.061-0.182L3.15,3.699c0.037-0.047,0.092-0.079,0.141-0.079
		s0.104,0.031,0.141,0.079l2.854,3.693C6.323,7.44,6.348,7.511,6.348,7.574C6.348,7.638,6.323,7.708,6.287,7.757z"></path>
</g>
<g display="none">
	<path display="inline" fill="#FFFFFF" d="M9.743,7.757l-2.854,3.691c-0.037,0.049-0.092,0.081-0.141,0.081
		s-0.104-0.032-0.141-0.081l-0.307-0.396c-0.037-0.048-0.061-0.111-0.061-0.182c0-0.063,0.024-0.134,0.061-0.183l2.407-3.114
		L6.301,4.46C6.264,4.413,6.24,4.342,6.24,4.278c0-0.063,0.024-0.134,0.061-0.182l0.307-0.397c0.037-0.047,0.092-0.079,0.141-0.079
		s0.104,0.031,0.141,0.079l2.854,3.693C9.779,7.44,9.805,7.511,9.805,7.574C9.805,7.638,9.779,7.708,9.743,7.757z"></path>
</g>
<g display="none">
	<path display="inline" fill="#FFFFFF" d="M13.307,7.757l-2.853,3.693c-0.038,0.047-0.093,0.08-0.142,0.08s-0.104-0.033-0.142-0.08
		l-0.306-0.397c-0.037-0.046-0.061-0.109-0.061-0.182c0-0.063,0.023-0.133,0.061-0.183l2.407-3.113L9.865,4.461
		C9.828,4.413,9.805,4.342,9.805,4.278c0-0.063,0.023-0.134,0.061-0.182l0.306-0.396c0.038-0.048,0.093-0.08,0.142-0.08
		s0.104,0.031,0.142,0.08l2.853,3.692c0.037,0.048,0.063,0.119,0.063,0.183S13.344,7.709,13.307,7.757z"></path>
</g>
</symbol><symbol viewBox="0 0 16 15" id="sf-font-content-icon">

<g>
	<path fill="currentcolor" d="M9.404,12.5H6.596V4.265H3V2.5h10v1.765H9.404V12.5z"></path>
</g>
</symbol><symbol viewBox="0 0 16 15" id="sf-font-content-list">
<rect fill="currentcolor" width="4" height="4"></rect>
<rect x="5.563" fill="currentcolor" width="10.438" height="4"></rect>
<rect x="5.563" y="5.5" fill="currentcolor" width="10.438" height="4"></rect>
<rect x="5.563" y="11" fill="currentcolor" width="10.438" height="4"></rect>
<rect y="11" fill="currentcolor" width="4" height="4"></rect>
<rect y="5.5" fill="currentcolor" width="4" height="4"></rect>
</symbol><symbol viewBox="0 0 16 15" id="sf-font-cta">

<g>
	<path fill="currentcolor" d="M5.591,8.679c-0.031,0.887-0.226,1.56-0.586,2.016s-0.869,0.685-1.525,0.685
		c-0.689,0-1.218-0.29-1.585-0.869C1.527,9.932,1.344,9.104,1.344,8.031v-1.31c0-1.069,0.189-1.894,0.569-2.474
		c0.38-0.579,0.908-0.869,1.584-0.869c0.665,0,1.169,0.237,1.514,0.711C5.356,4.564,5.552,5.245,5.6,6.133H4.364
		C4.353,5.584,4.286,5.206,4.165,4.996C4.043,4.788,3.821,4.684,3.497,4.684c-0.33,0-0.563,0.147-0.7,0.441
		C2.66,5.419,2.588,5.903,2.58,6.577v1.47c0,0.774,0.067,1.305,0.203,1.595c0.135,0.287,0.368,0.433,0.697,0.433
		c0.324,0,0.547-0.1,0.67-0.302S4.343,9.207,4.36,8.679H5.591z"></path>
	<path fill="currentcolor" d="M10.179,4.796H8.671v6.476H7.435V4.796H5.952v-1.31h4.227V4.796z"></path>
	<path fill="currentcolor" d="M13.295,9.679h-1.68l-0.327,1.593H9.986l1.905-7.786h1.127l1.919,7.786h-1.315L13.295,9.679z M11.885,8.367
		h1.139l-0.569-2.774L11.885,8.367z"></path>
</g>
</symbol><symbol viewBox="0 0 17 16" id="sf-font-custom-widget-icon">
<rect fill="currentcolor" width="16" height="1"></rect>
<rect y="12" fill="currentcolor" width="16" height="1"></rect>
<rect y="2" fill="currentcolor" width="16" height="1"></rect>
<rect x="9" y="4" fill="currentcolor" width="7" height="1"></rect>
<rect x="9" y="6" fill="currentcolor" width="7" height="1"></rect>
<rect x="9" y="8" fill="currentcolor" width="7" height="1"></rect>
<rect x="9" y="10" fill="currentcolor" width="7" height="1"></rect>
<rect y="14" fill="currentcolor" width="8" height="1"></rect>
<rect y="4" fill="currentcolor" width="8" height="7"></rect>
</symbol><symbol viewBox="0 0 16 15" id="sf-font-dropdown">
<g display="none">
</g>

<rect x="4" y="7" display="none" width="4" height="1"></rect>
<path fill="currentcolor" d="M6,3H1v1h5v7H1v1h5h9V3H6z M10.534,10L7.04,6h7L10.534,10z"></path>
</symbol><symbol viewBox="0 0 16 15" id="sf-font-error">

<polygon fill="currentColor" points="9.5,9.367 6.5,9.367 5.5,1.367 10.5,1.367 "></polygon>
<circle fill="currentColor" cx="8" cy="12.297" r="1.5"></circle>
</symbol><symbol viewBox="0 0 16 15" id="sf-font-file-upload">

<polygon fill="currentcolor" points="13.172,8.578 12.172,8.578 12.172,12.547 4.172,12.547 4.172,8.578 3.172,8.578 3.172,13.578
	13.172,13.578 "></polygon>
<polygon fill="currentcolor" points="8.274,1.063 4.274,6.063 6.274,6.063 6.274,10.063 10.273,10.063 10.273,6.063 12.273,6.063 "></polygon>
</symbol><symbol viewBox="0 0 16 15" id="sf-font-form">
<rect fill="currentcolor" width="8" height="1"></rect>
<path fill="currentcolor" d="M0,1v5h16V1H0z M13.938,4.461h-12v-2h12V4.461z"></path>
<rect y="9" fill="currentcolor" width="8" height="1"></rect>
<path fill="currentcolor" d="M0,10v5h16v-5H0z M13.938,13.461h-12v-2h12V13.461z"></path>
</symbol><symbol viewBox="0 0 16 16" id="sf-font-heading">
<rect x="1" y="2" width="14" height="13"></rect>
<g>
	<path fill="currentcolor" d="M11.803,12.787H9.903V9.175H6.344v3.612H4.438v-8.37h1.906v3.281h3.559V4.417h1.899V12.787z"></path>
</g>
</symbol><symbol viewBox="0 0 16 15" id="sf-font-image">

<path fill="currentcolor" d="M4.845,5.685c-1.104,0-2-0.879-2-1.962c0-1.084,0.895-1.963,2-1.963c1.104,0,2,0.879,2,1.963
	C6.846,4.806,5.949,5.685,4.845,5.685z M14.098,12.806h-12v-2.001l2.727-3.333l1.365,1.667l4.362-5.333l3.546,4.334V12.806z"></path>
</symbol><symbol viewBox="0 0 16 15" id="sf-font-layout-icon">
<rect fill="currentcolor" width="7" height="8"></rect>
<rect y="10" fill="currentcolor" width="7" height="5"></rect>
<rect x="9" fill="currentcolor" width="7" height="15"></rect>
</symbol><symbol viewBox="0 0 16 15" id="sf-font-login">

<polygon fill="currentcolor" points="10.773,7.5 5.773,3.5 5.773,5.5 1.773,5.5 1.773,9.5 5.773,9.5 5.773,11.5 "></polygon>
<polygon fill="currentcolor" points="9.359,2.375 9.359,3.375 13.328,3.375 13.328,11.375 9.359,11.375 9.359,12.375 14.359,12.375
	14.359,2.375 "></polygon>
</symbol><symbol viewBox="0 0 16 15" id="sf-font-multiple-choice">

<path fill="currentcolor" d="M8.013,1.34c-3.313,0-6,2.686-6,6c0,3.315,2.686,6,6,6c3.315,0,6-2.686,6-6
	C14.014,4.026,11.328,1.34,8.013,1.34z M7.948,12.206c-2.762,0-5.001-2.242-5.001-4.999c0-2.762,2.239-5.001,5.001-5.001
	c2.759,0,4.999,2.239,4.999,5.001C12.947,9.964,10.707,12.206,7.948,12.206z"></path>
<path fill="currentcolor" d="M10.947,7.207c0,1.653-1.344,2.999-2.999,2.999c-1.657,0-3.001-1.346-3.001-2.999
	c0-1.657,1.344-3.001,3.001-3.001C9.604,4.206,10.947,5.55,10.947,7.207z"></path>
</symbol><symbol viewBox="0 0 16 15" id="sf-font-navigation">

<g>
	<path fill="currentcolor" d="M12.471,12.5H9.736L5.324,4.935H5.262c0.087,1.337,0.132,2.291,0.132,2.86V12.5H3.471v-10h2.713l4.406,7.49
		h0.049c-0.07-1.301-0.105-2.219-0.105-2.756V2.5h1.938V12.5z"></path>
</g>
</symbol><symbol viewBox="0 0 16 15" id="sf-font-paragraph">

<path fill="currentcolor" d="M7,4V3H1v1v9h14V4H7z M14,12H2V5h12V12z"></path>
</symbol><symbol viewBox="0 0 16 15" id="sf-font-password">
<g display="none">
</g>

<g>
	<path fill="currentcolor" d="M14.57,10.746c0,0.481-0.494,0.877-1.098,0.877H2.498c-0.604,0-1.098-0.396-1.098-0.877V4.083
		c0-0.481,0.494-0.877,1.098-0.877h10.975c0.604,0,1.098,0.396,1.098,0.877V10.746z M2.498,3.908c-0.117,0-0.22,0.081-0.22,0.175
		v6.663c0,0.093,0.103,0.175,0.22,0.175h10.975c0.117,0,0.22-0.082,0.22-0.175V4.083c0-0.094-0.103-0.175-0.22-0.175H2.498z"></path>
</g>
<g>
	<path fill="currentcolor" d="M5.901,8.013c0,0.33-0.269,0.601-0.6,0.601H4.103c-0.331,0-0.599-0.271-0.599-0.601V6.815
		c0-0.331,0.269-0.6,0.599-0.6h1.198c0.331,0,0.6,0.269,0.6,0.6V8.013z M9.098,8.013c0,0.33-0.27,0.601-0.6,0.601H7.299
		C6.968,8.613,6.7,8.343,6.7,8.013V6.815c0-0.331,0.268-0.6,0.599-0.6h1.199c0.33,0,0.6,0.269,0.6,0.6V8.013z M12.293,8.013
		c0,0.33-0.268,0.601-0.601,0.601h-1.196c-0.331,0-0.601-0.271-0.601-0.601V6.815c0-0.331,0.27-0.6,0.601-0.6h1.196
		c0.333,0,0.601,0.269,0.601,0.6V8.013z"></path>
</g>
</symbol><symbol viewBox="0 0 16 15" id="sf-font-profile">
<g display="none">
</g>

<g display="none">
	<path display="inline" fill="currentcolor" d="M8.806,10.59h1.52v1.413C10.034,12.217,9.667,12.3,9.31,12.3H4.123
		c-0.95,0-1.585-0.569-1.585-1.537c0-1.342,0.314-3.401,2.054-3.401c0.095,0,0.16,0.042,0.231,0.101
		c0.582,0.445,1.146,0.724,1.894,0.724S8.028,7.907,8.61,7.462c0.071-0.06,0.137-0.101,0.231-0.101c0.506,0,0.949,0.19,1.289,0.57
		H8.806c-0.416,0-0.76,0.344-0.76,0.76V9.83C8.045,10.246,8.39,10.59,8.806,10.59z M4.404,4.646c0-1.258,1.021-2.279,2.279-2.279
		c1.259,0,2.28,1.021,2.28,2.279s-1.021,2.279-2.28,2.279C5.425,6.925,4.404,5.904,4.404,4.646z M13.892,8.677
		c0.079,0,0.148,0.069,0.148,0.147v0.894c0,0.078-0.069,0.148-0.148,0.148h-1.637v1.636c0,0.08-0.07,0.149-0.148,0.149h-0.894
		c-0.078,0-0.147-0.069-0.147-0.149V9.866H9.428c-0.078,0-0.148-0.07-0.148-0.148V8.824c0-0.078,0.07-0.147,0.148-0.147h1.638V7.041
		c0-0.079,0.069-0.149,0.147-0.149h0.894c0.078,0,0.148,0.07,0.148,0.149v1.636H13.892z"></path>
</g>
<path fill="currentcolor" d="M11.095,7.399c-0.264,0-1.383,1.166-3.052,1.166c-1.671,0-2.787-1.166-3.051-1.166
	c-2.498,0-2.949,2.22-2.949,4.117C2.042,12.875,2.963,13,4.317,13h7.449c1.355,0,2.275-0.125,2.275-1.484
	C14.042,9.619,13.591,7.399,11.095,7.399z"></path>
<circle fill="currentcolor" cx="8.042" cy="4.266" r="3"></circle>
</symbol><symbol viewBox="0 0 16 15" id="sf-font-recommendations">

<g id="Page-1">
	<g id="Group">
		<polygon id="Star" fill="currentcolor" points="8.063,10.646 4.354,12.434 5.063,8.648 2.063,5.968 6.208,5.417 8.063,1.973
			9.917,5.417 14.063,5.968 11.063,8.648 11.771,12.434 		"></polygon>
	</g>
</g>
</symbol><symbol viewBox="0 0 16 15" id="sf-font-registration">

<g>
	<path fill="currentcolor" d="M8.927,11.257h1.802v1.674c-0.346,0.253-0.781,0.351-1.203,0.351H3.381c-1.125,0-1.877-0.674-1.877-1.819
		c0-1.59,0.373-4.028,2.432-4.028c0.113,0,0.19,0.048,0.274,0.12c0.688,0.527,1.357,0.858,2.242,0.858
		c0.886,0,1.553-0.331,2.242-0.858c0.083-0.071,0.163-0.12,0.274-0.12c0.6,0,1.125,0.225,1.527,0.674H8.927
		c-0.492,0-0.9,0.407-0.9,0.9v1.349C8.026,10.849,8.435,11.257,8.927,11.257z M3.715,4.218c0-1.49,1.208-2.699,2.698-2.699
		c1.491,0,2.7,1.209,2.7,2.699c0,1.489-1.208,2.699-2.7,2.699C4.924,6.917,3.715,5.708,3.715,4.218z M14.568,8.992
		c0.094,0,0.176,0.081,0.176,0.175v1.057c0,0.093-0.082,0.176-0.176,0.176h-1.938v1.938c0,0.095-0.084,0.178-0.176,0.178h-1.061
		c-0.092,0-0.174-0.083-0.174-0.178v-1.938H9.281c-0.092,0-0.176-0.083-0.176-0.176V9.167c0-0.094,0.084-0.175,0.176-0.175h1.939
		V7.055c0-0.095,0.082-0.178,0.174-0.178h1.061c0.092,0,0.176,0.083,0.176,0.178v1.937H14.568z"></path>
</g>
</symbol><symbol viewBox="0 0 16 15" id="sf-font-search">

<g>
	<circle fill="none" cx="7.172" cy="6.664" r="3"></circle>
	<path fill="currentcolor" d="M14.066,11.713l-3.067-2.709c0.419-0.684,0.673-1.479,0.673-2.34c0-2.485-2.015-4.5-4.5-4.5
		s-4.5,2.015-4.5,4.5s2.015,4.5,4.5,4.5c0.898,0,1.73-0.27,2.433-0.724l3.138,2.771L14.066,11.713z M7.172,9.664
		c-1.657,0-3-1.343-3-3c0-1.657,1.343-3,3-3s3,1.343,3,3C10.172,8.321,8.829,9.664,7.172,9.664z"></path>
</g>
</symbol><symbol viewBox="0 0 16 15" id="sf-font-textbox">

<path display="none" fill="none" stroke="#FFFFFF" stroke-miterlimit="10" d="M14.5,9.5h-12v-4h12V9.5z M7.5,5.5h-5v-1h5V5.5z"></path>
<path fill="currentcolor" d="M7,6V5H1v1v5h14V6H7z M14,10H2V7h12V10z"></path>
</symbol></svg>