<?xml version="1.0" encoding="utf-8"?>
<svg version="1.1" id="Layer_1" xmlns="http://www.w3.org/2000/svg" xmlns:xlink="http://www.w3.org/1999/xlink" x="0px" y="0px"
	 viewBox="0 0 32 32" style="enable-background:new 0 0 32 32;" xml:space="preserve">
<style type="text/css">
	.st0{fill:#3C43BF;}
</style>
<path class="st0" d="M25.5,3.1L25.5,3.1c-0.2-0.2-0.5-0.2-0.7,0l-1.2,1.2c-0.1,0.1-0.2,0.2-0.1,0.4c0,0.1,0.1,0.3,0.2,0.4
	c2.9,2.3,4.6,5.8,4.6,9.6c0,6.7-5.5,12.2-12.2,12.2c-6.7,0-12.2-5.5-12.2-12.2c0-3.7,1.7-7.2,4.6-9.6c0.1-0.1,0.2-0.2,0.2-0.4
	c0-0.1,0-0.3-0.1-0.4L7.2,3.2C7,3,6.7,3,6.5,3.1C3,6,1,10.2,1,14.7c0,8.3,6.7,15,15,15c8.3,0,15-6.7,15-15C31,10.2,29,6,25.5,3.1z"
	/>
<path class="st0" d="M16,24.1c2.4,0,4.7-0.9,6.4-2.6c0.1-0.1,0.2-0.2,0.2-0.4c0-0.1-0.1-0.3-0.2-0.4l-1.2-1.2
	c-0.2-0.2-0.5-0.2-0.7,0c-1.2,1.2-2.8,1.8-4.5,1.8c-3.6,0-6.6-3-6.6-6.6c0-3.6,3-6.6,6.6-6.6c1.7,0,3.3,0.6,4.5,1.8
	c0.2,0.2,0.5,0.2,0.7,0l1.2-1.2c0.1-0.1,0.2-0.2,0.2-0.4c0-0.1-0.1-0.3-0.2-0.4c-1.8-1.7-4-2.6-6.4-2.6c-5.2,0-9.4,4.2-9.4,9.4
	C6.6,19.9,10.8,24.1,16,24.1z"/>
</svg>
